<svg width="24" height="24" viewBox="0 0 24 24" fill="none" xmlns="http://www.w3.org/2000/svg">
<g id="Edit/Edit">
<g id="Icon">
<path fill-rule="evenodd" clip-rule="evenodd" d="M7.79007 15.27L8.52007 11.86C8.62635 11.3861 8.86574 10.9525 9.21007 10.61L15.8801 4.00001C16.5565 3.31098 17.4748 2.91279 18.4401 2.89001C19.1681 2.87957 19.8701 3.16038 20.3901 3.67001C21.5263 5.01247 21.3796 7.01722 20.0601 8.18001L13.3901 14.85C13.0476 15.1943 12.6139 15.4337 12.1401 15.54L8.73007 16.27H8.54007C8.29078 16.2795 8.05268 16.1661 7.903 15.9666C7.75332 15.767 7.71111 15.5067 7.79007 15.27ZM10.2701 11.68C10.13 11.8158 10.0326 11.9896 9.99007 12.18L9.50007 14.51L11.8301 14.01C12.0205 13.9674 12.1943 13.8701 12.3301 13.73L19.0001 7.06001C19.7308 6.47503 19.8758 5.42048 19.3301 4.66001C19.0911 4.43171 18.7704 4.30918 18.4401 4.32001C17.8706 4.34287 17.3326 4.5868 16.9401 5.00001L10.2701 11.68Z" fill="#10B981"/>
<path d="M19.9101 10.93C19.4981 10.9354 19.1655 11.268 19.1601 11.68V17.37C19.1735 18.1743 18.8633 18.9503 18.2993 19.5237C17.7352 20.0972 16.9645 20.4201 16.1601 20.42H6.63008C4.96745 20.3874 3.63519 19.0329 3.63008 17.37V7.88001C3.65738 6.2151 5.01494 4.87978 6.68008 4.88001H12.3701C12.7843 4.88001 13.1201 4.54422 13.1201 4.13001C13.1201 3.71579 12.7843 3.38001 12.3701 3.38001H6.63008C4.13658 3.37985 2.10748 5.38666 2.08008 7.88001V17.37C2.08008 19.8829 4.11718 21.92 6.63008 21.92H16.1201C18.6291 21.9145 20.6601 19.879 20.6601 17.37V11.68C20.6547 11.268 20.322 10.9354 19.9101 10.93Z" fill="#10B981"/>
</g>
</g>
</svg>
