<svg width="22" height="20" viewBox="0 0 22 20" fill="none" xmlns="http://www.w3.org/2000/svg">
<g id="Group 78">
<path id="Union" d="M5.22189 13.3584C2.61406 13.3584 0.5 11.2443 0.5 8.63646C0.5 6.02864 2.61406 3.91457 5.22189 3.91457C5.78735 3.91457 6.32959 4.01397 6.8321 4.19624C7.82356 1.77116 10.2063 0.0625 12.9882 0.0625C16.6597 0.0625 19.6361 3.03888 19.6361 6.71043C19.6361 6.87217 19.6303 7.03256 19.619 7.19141C20.7292 7.70264 21.5 8.8251 21.5 10.1276C21.5 11.9119 20.0535 13.3584 18.2692 13.3584H5.22189Z" fill="#9CA3AF"/>
<g id="Vector">
<path d="M16.4291 15.9456L15.7842 14.6011L15.1393 15.9457C15.0753 16.0577 15.0387 16.188 15.0387 16.3269C15.0387 16.7463 15.3725 17.0863 15.7842 17.0863C16.196 17.0863 16.5298 16.7463 16.5298 16.3269C16.5298 16.1879 16.4931 16.0577 16.4291 15.9456Z" fill="#38BDF8"/>
<path d="M14.1925 18.6794L13.5475 17.3348L12.9027 18.6793C12.8386 18.7914 12.802 18.9216 12.802 19.0606C12.802 19.48 13.1358 19.82 13.5475 19.82C13.9593 19.82 14.2931 19.48 14.2931 19.0606C14.2931 18.9217 14.2565 18.7915 14.1925 18.6794Z" fill="#38BDF8"/>
<path d="M11.9558 15.9457L11.3109 14.6011L10.6659 15.9456C10.6019 16.0577 10.5653 16.1879 10.5653 16.3269C10.5653 16.7463 10.8991 17.0863 11.3109 17.0863C11.7226 17.0863 12.0564 16.7463 12.0564 16.3269C12.0564 16.1879 12.0198 16.0577 11.9558 15.9457Z" fill="#38BDF8"/>
<path d="M9.84331 18.6793L9.19842 17.3348L8.5535 18.6794C8.48951 18.7914 8.45287 18.9217 8.45287 19.0606C8.45287 19.48 8.78666 19.82 9.19843 19.82C9.61019 19.82 9.94399 19.48 9.94399 19.0606C9.94399 18.9216 9.90733 18.7914 9.84331 18.6793Z" fill="#38BDF8"/>
<path d="M7.60668 15.9457L6.96175 14.6011L6.31685 15.9456C6.25284 16.0577 6.21618 16.1879 6.21618 16.3269C6.21618 16.7463 6.54998 17.0863 6.96174 17.0863C7.3735 17.0863 7.7073 16.7463 7.7073 16.3269C7.7073 16.188 7.67066 16.0577 7.60668 15.9457Z" fill="#38BDF8"/>
<path d="M5.36996 18.6794L4.72505 17.3348L4.08015 18.6794C4.01615 18.7914 3.97949 18.9217 3.97949 19.0606C3.97949 19.48 4.31329 19.82 4.72505 19.82C5.13682 19.82 5.47062 19.48 5.47062 19.0606C5.47062 18.9217 5.43396 18.7914 5.36996 18.6794Z" fill="#38BDF8"/>
</g>
</g>
</svg>
