<svg width="24" height="24" viewBox="0 0 24 24" fill="none" xmlns="http://www.w3.org/2000/svg">
<g id="Filled=true">
<g id="Icon">
<path d="M13.76 11.8101C13.76 12.8925 12.8825 13.7701 11.8 13.7701C10.7175 13.7701 9.84 12.8925 9.84 11.8101C9.84 10.7276 10.7175 9.85006 11.8 9.85006C12.8825 9.85006 13.76 10.7276 13.76 11.8101Z" fill="#030712"/>
<path fill-rule="evenodd" clip-rule="evenodd" d="M19.2264 8.73083C19.4169 9.19497 19.8683 9.4986 20.37 9.50006C20.6989 9.50006 21.0143 9.6307 21.2468 9.86325C21.4794 10.0958 21.61 10.4112 21.61 10.7401V12.8801C21.61 13.5649 21.0548 14.1201 20.37 14.1201C19.8683 14.1215 19.4169 14.4251 19.2264 14.8893C19.036 15.3534 19.144 15.8866 19.5 16.2401C19.9776 16.7295 19.9776 17.5106 19.5 18.0001L18 19.5001C17.5105 19.9777 16.7295 19.9777 16.24 19.5001C15.8865 19.144 15.3534 19.036 14.8892 19.2265C14.4251 19.417 14.1215 19.8684 14.12 20.3701C14.12 21.0549 13.5648 21.6101 12.88 21.6101H10.74C10.0552 21.6101 9.5 21.0549 9.5 20.3701C9.49854 19.8684 9.19491 19.417 8.73077 19.2265C8.26664 19.036 7.73346 19.144 7.38 19.5001C6.89055 19.9777 6.10945 19.9777 5.62 19.5001L4.12 18.0001C3.64237 17.5106 3.64237 16.7295 4.12 16.2401C4.47735 15.8853 4.5847 15.3497 4.39166 14.8847C4.19862 14.4196 3.74352 14.1175 3.24 14.1201C2.55517 14.1201 2 13.5649 2 12.8801V10.7401C2 10.0552 2.55517 9.50006 3.24 9.50006C3.7417 9.4986 4.19308 9.19497 4.38355 8.73083C4.57402 8.2667 4.46605 7.73352 4.11 7.38006C3.63237 6.89061 3.63237 6.10951 4.11 5.62006L5.61 4.12006C6.09945 3.64243 6.88055 3.64243 7.37 4.12006C7.72474 4.47741 8.26035 4.58476 8.7254 4.39172C9.19046 4.19868 9.4926 3.74358 9.49 3.24006C9.49 2.55523 10.0452 2.00006 10.73 2.00006H12.88C13.2089 2.00006 13.5243 2.1307 13.7568 2.36325C13.9894 2.59579 14.12 2.91119 14.12 3.24006C14.1174 3.74358 14.4195 4.19868 14.8846 4.39172C15.3496 4.58476 15.8853 4.47741 16.24 4.12006C16.7295 3.64243 17.5105 3.64243 18 4.12006L19.5 5.62006C19.9776 6.10951 19.9776 6.89061 19.5 7.38006C19.144 7.73352 19.036 8.2667 19.2264 8.73083ZM8.34 11.8101C8.34 13.721 9.88909 15.2701 11.8 15.2701C13.7109 15.2701 15.26 13.721 15.26 11.8101C15.26 9.89916 13.7109 8.35006 11.8 8.35006C9.88909 8.35006 8.34 9.89916 8.34 11.8101Z" fill="#030712"/>
</g>
</g>
</svg>
