<svg xmlns="http://www.w3.org/2000/svg" width="16" height="16" viewBox="0 0 16 16" fill="none">
  <path d="M5.41325 6.72C6.14963 6.72 6.74659 6.12304 6.74659 5.38667C6.74659 4.65029 6.14963 4.05333 5.41325 4.05333C4.67687 4.05333 4.07992 4.65029 4.07992 5.38667C4.07992 6.12304 4.67687 6.72 5.41325 6.72Z" fill="#6B7280"/>
  <path fillRule="evenodd" clipRule="evenodd" d="M9.49325 1.33333H6.66659C3.72107 1.33333 1.33325 3.72115 1.33325 6.66667V9.49333C1.33325 12.4389 3.72107 14.8267 6.66659 14.8267H9.49325C12.4388 14.8267 14.8266 12.4389 14.8266 9.49333V6.66667C14.8266 5.25218 14.2647 3.89562 13.2645 2.89543C12.2643 1.89524 10.9077 1.33333 9.49325 1.33333ZM6.66659 2.33333H9.49325C11.6572 2.33671 13.487 3.93597 13.7799 6.08H12.7466C9.96443 6.08227 7.39186 7.55883 5.98659 9.96C5.109 9.26288 4.02069 8.88444 2.89992 8.88667H2.33325V6.66667C2.33692 4.27495 4.27487 2.337 6.66659 2.33333ZM2.89992 9.88667H2.35325C2.49807 11.4588 3.4865 12.8278 4.93325 13.46C4.98103 12.5701 5.18175 11.6951 5.52659 10.8733C4.79889 10.2381 3.86589 9.88761 2.89992 9.88667ZM9.49325 13.8267H6.66659C6.41595 13.8257 6.16596 13.8011 5.91992 13.7533C6.00316 10.0409 9.03322 7.07297 12.7466 7.06667H13.8266V9.49333C13.8229 11.885 11.885 13.823 9.49325 13.8267Z" fill="#6B7280"/>
</svg>