<svg width="24" height="24" viewBox="0 0 24 24" fill="none" xmlns="http://www.w3.org/2000/svg">
<g id="Interface essential/Key">
<g id="Icon">
<path fill-rule="evenodd" clip-rule="evenodd" d="M17.0645 12.1579L20.9592 16.0526C21.2212 16.3525 21.3124 16.765 21.2013 17.1474L20.4856 19.6421C20.3753 20.0196 20.0826 20.3163 19.7066 20.4316L17.1487 21.2C16.741 21.3105 16.3053 21.1986 16.0013 20.9053L12.0961 17C11.5653 16.4697 10.8464 16.1708 10.0961 16.1684C9.73491 16.17 9.37746 16.2415 9.04345 16.3789C8.70814 16.5108 8.35111 16.5786 7.99082 16.5789C7.23959 16.5813 6.51893 16.2816 5.99082 15.7474L2.83292 12.5895C2.11555 11.8746 1.83459 10.831 2.09608 9.85263L3.32766 5.29474C3.57794 4.30573 4.34269 3.5289 5.32766 3.26316L9.92766 2.09474C10.1683 2.03221 10.4159 2.00037 10.6645 2C11.4148 2.00233 12.1337 2.30126 12.6645 2.83158L15.8224 5.98947C16.6314 6.79876 16.8762 8.01434 16.4434 9.07368C16.0107 10.133 16.2555 11.3486 17.0645 12.1579ZM16.9803 19.6526L19.0856 19.0316L19.6645 16.9684L15.9487 13.2526C14.6842 11.9957 14.3056 10.0987 14.9908 8.45263C15.1717 7.97833 15.0561 7.44201 14.6961 7.08421L11.5382 3.92632C11.3059 3.6882 10.9866 3.55514 10.654 3.55789C10.5458 3.5419 10.4358 3.5419 10.3277 3.55789L5.73819 4.78947C5.30689 4.9055 4.97 5.24239 4.85398 5.67368L3.6224 10.3053C3.50688 10.7381 3.63131 11.1997 3.94871 11.5158L7.10661 14.6737C7.33886 14.9118 7.65821 15.0449 7.99082 15.0421C8.1523 15.0406 8.31239 15.0121 8.4645 14.9579C8.98451 14.7403 9.54292 14.6293 10.1066 14.6316C11.291 14.6183 12.4303 15.0854 13.2645 15.9263L16.9803 19.6526Z" fill="#030712"/>
<path d="M10.2961 6.96842L7.03292 10.2316C6.72508 10.5398 6.72508 11.0391 7.03292 11.3474C7.34115 11.6552 7.84048 11.6552 8.14871 11.3474L11.4119 8.08421C11.5623 7.93759 11.6472 7.73641 11.6472 7.52632C11.6472 7.31622 11.5623 7.11504 11.4119 6.96842C11.1036 6.66058 10.6043 6.66058 10.2961 6.96842Z" fill="#030712"/>
</g>
</g>
</svg>
