<svg width="35" height="35" viewBox="0 0 24 24" fill="none" xmlns="http://www.w3.org/2000/svg">
<g id="Filled=false">
<path id="Vector" d="M11.9998 20.75C11.7871 20.75 11.609 20.6781 11.4655 20.5342C11.3218 20.3906 11.25 20.2125 11.25 20V12.8135C10.2475 12.8135 9.2866 12.6237 8.36727 12.2442C7.4481 11.8647 6.63593 11.3224 5.93077 10.6172C5.22577 9.91208 4.68768 9.09991 4.31652 8.18075C3.94535 7.26158 3.75977 6.30066 3.75977 5.298V4.68275C3.75977 4.42942 3.84543 4.217 4.01677 4.0455C4.1881 3.87417 4.40052 3.7885 4.65402 3.7885H5.26927C6.2501 3.7885 7.19977 3.97983 8.11827 4.3625C9.03693 4.74517 9.84877 5.28908 10.5538 5.99425C11.0769 6.51742 11.5061 7.10175 11.8413 7.74725C12.1766 8.39275 12.4167 9.07833 12.5615 9.804C12.6768 9.604 12.8053 9.4145 12.947 9.2355C13.0887 9.05666 13.2468 8.88008 13.4213 8.70575C14.1243 8.00175 14.9366 7.45816 15.8583 7.075C16.7799 6.69166 17.7406 6.5 18.7403 6.5H19.3558C19.6091 6.5 19.8214 6.58575 19.9928 6.75725C20.1643 6.92858 20.25 7.14092 20.25 7.39425V8.0095C20.25 9.00933 20.0583 9.97008 19.675 10.8917C19.2918 11.8134 18.7483 12.6257 18.0443 13.3287C17.3391 14.0339 16.5311 14.5721 15.6203 14.9432C14.7093 15.3144 13.7525 15.5 12.75 15.5V20C12.75 20.2125 12.6781 20.3906 12.5343 20.5342C12.3904 20.6781 12.2123 20.75 11.9998 20.75ZM11.2598 11.2885C11.2598 10.4885 11.1056 9.726 10.7973 9.001C10.4889 8.276 10.0514 7.63016 9.48477 7.0635C8.9181 6.49683 8.27227 6.05933 7.54727 5.751C6.82227 5.44266 6.05977 5.2885 5.25977 5.2885C5.25977 6.0885 5.40977 6.85516 5.70977 7.5885C6.00977 8.32183 6.4431 8.97183 7.00977 9.5385C7.57643 10.1052 8.22643 10.5385 8.95977 10.8385C9.6931 11.1385 10.4598 11.2885 11.2598 11.2885ZM12.75 14C13.55 14 14.3125 13.85 15.0375 13.55C15.7625 13.25 16.4083 12.8167 16.975 12.25C17.5417 11.6833 17.9792 11.0333 18.2875 10.3C18.5958 9.56666 18.75 8.8 18.75 8C17.95 8 17.1833 8.15416 16.45 8.4625C15.7167 8.77083 15.0667 9.20833 14.5 9.775C13.9333 10.3417 13.5 10.9875 13.2 11.7125C12.9 12.4375 12.75 13.2 12.75 14Z" fill="#10B981"/>
</g>
</svg>
