<svg width="22" height="20" viewBox="0 0 22 20" fill="none" xmlns="http://www.w3.org/2000/svg">
<g id="Group 57">
<path id="Vector 2" d="M15.7418 8.94824H14.4259C14.1813 8.94824 13.9648 9.10619 13.8902 9.33903L12.664 13.1643C12.5476 13.5273 12.8184 13.8985 13.1996 13.8985H13.8712C14.0859 13.8985 14.2568 14.0784 14.2457 14.2928L14.0378 18.3309C14.0326 18.4317 14.1685 18.4684 14.2148 18.3787L17.0998 12.7892C17.293 12.4148 17.0213 11.9687 16.5999 11.9687H16.0384C15.7826 11.9687 15.6019 11.7184 15.6824 11.4756L16.2756 9.68789C16.3964 9.32379 16.1254 8.94824 15.7418 8.94824Z" fill="#FACC15"/>
<path id="Subtract" d="M17.4088 13.5459L17.7951 12.7974C18.1366 12.1358 17.6563 11.3474 16.9118 11.3474H16.38L16.9485 9.63407C17.162 8.99062 16.6829 8.32692 16.005 8.32692H14.2878C13.8557 8.32692 13.4731 8.60607 13.3412 9.01755L11.9933 13.2222C11.9585 13.3308 11.9433 13.4397 11.9453 13.5459L5.22189 13.5459C2.61406 13.5459 0.5 11.4318 0.5 8.82396C0.5 6.21613 2.61406 4.10207 5.22189 4.10207C5.78735 4.10207 6.3296 4.20146 6.83211 4.38373C7.82356 1.95866 10.2063 0.25 12.9882 0.25C16.6597 0.25 19.6361 3.22638 19.6361 6.89793C19.6361 7.05967 19.6303 7.22006 19.619 7.37891C20.7292 7.89014 21.5 9.0126 21.5 10.3151C21.5 12.0994 20.0535 13.5459 18.2692 13.5459H17.4088Z" fill="#9CA3AF"/>
<g id="Vector">
<path d="M11.8309 18.6182L11.1861 17.2738L10.5412 18.6184C10.4772 18.7304 10.4405 18.8607 10.4405 18.9996C10.4405 19.419 10.7743 19.759 11.1861 19.759C11.5979 19.759 11.9317 19.419 11.9317 18.9996C11.9317 18.8606 11.895 18.7303 11.8309 18.6182Z" fill="#38BDF8"/>
<path d="M9.59435 16.1332L8.94941 14.7886L8.30456 16.133C8.24052 16.2451 8.20384 16.3754 8.20384 16.5144C8.20384 16.9338 8.53764 17.2738 8.9494 17.2738C9.36117 17.2738 9.69497 16.9338 9.69497 16.5144C9.69497 16.3755 9.65833 16.2452 9.59435 16.1332Z" fill="#38BDF8"/>
<path d="M7.35764 18.6183L6.71273 17.2738L6.06786 18.6183C6.00384 18.7303 5.96717 18.8606 5.96717 18.9996C5.96717 19.419 6.30097 19.759 6.71273 19.759C7.12449 19.759 7.45829 19.419 7.45829 18.9996C7.45829 18.8606 7.42164 18.7304 7.35764 18.6183Z" fill="#38BDF8"/>
<path d="M5.12091 16.1331L4.47603 14.7886L3.83112 16.1331C3.76712 16.2452 3.73047 16.3754 3.73047 16.5144C3.73047 16.9338 4.06427 17.2738 4.47603 17.2738C4.88779 17.2738 5.22159 16.9338 5.22159 16.5144C5.22159 16.3754 5.18493 16.2451 5.12091 16.1331Z" fill="#38BDF8"/>
</g>
</g>
</svg>
