<svg xmlns="http://www.w3.org/2000/svg" width="25" height="24" viewBox="0 0 25 24" fill="none">
  <path d="M13.5236 3.21934L19.2833 9.03934C19.5722 9.33216 19.5722 9.80652 19.2833 10.0993C19.1457 10.2423 18.9569 10.3229 18.7597 10.3229C18.5625 10.3229 18.3737 10.2423 18.2361 10.0993L13.741 5.55934V16.7893C13.741 17.2036 13.4092 17.5393 13 17.5393C12.5908 17.5393 12.259 17.2036 12.259 16.7893V5.55934L7.76391 10.0993C7.62636 10.2419 7.43719 10.3214 7.2403 10.3193C7.04364 10.3203 6.85489 10.241 6.7167 10.0993C6.42777 9.80652 6.42777 9.33216 6.7167 9.03934L12.4764 3.21934C12.7657 2.92689 13.2343 2.92689 13.5236 3.21934Z" fill="#6B7280"/>
  <path d="M8.0603 19.0793H17.9397C18.3489 19.0793 18.6807 19.4151 18.6807 19.8293C18.6807 20.2436 18.3489 20.5793 17.9397 20.5793H8.0603C7.65108 20.5793 7.31934 20.2436 7.31934 19.8293C7.31934 19.4151 7.65108 19.0793 8.0603 19.0793Z" fill="#6B7280"/>
</svg>