<svg width="22" height="18" viewBox="0 0 22 18" fill="none" xmlns="http://www.w3.org/2000/svg">
<g id="Group 117">
<g id="Subtract">
<path d="M10.8623 2.35386C11.0124 2.44075 11.2063 2.40013 11.3009 2.25472L11.6628 1.69847C11.779 1.51998 11.7295 1.28051 11.5451 1.17385C11.3608 1.0672 11.1275 1.14304 11.0306 1.3327L10.7289 1.92378C10.65 2.07829 10.7121 2.26697 10.8623 2.35386Z" fill="#FACC15"/>
<path d="M7.86207 1.55085C8.03558 1.55085 8.18334 1.41845 8.19228 1.24518L8.22651 0.581291C8.23745 0.369267 8.07437 0.1875 7.86207 0.1875C7.64976 0.1875 7.48669 0.369267 7.49762 0.581292L7.53186 1.24518C7.5408 1.41845 7.68856 1.55085 7.86207 1.55085Z" fill="#FACC15"/>
<path d="M4.86185 2.35386C5.012 2.26697 5.07416 2.07829 4.99528 1.92378L4.69351 1.3327C4.59668 1.14304 4.36331 1.0672 4.179 1.17385C3.99469 1.28051 3.94515 1.51998 4.0613 1.69847L4.42327 2.25472C4.51789 2.40013 4.7117 2.44075 4.86185 2.35386Z" fill="#FACC15"/>
<path d="M2.66636 4.54935C2.75325 4.3992 2.71263 4.20539 2.56722 4.11077L2.01097 3.7488C1.83248 3.63265 1.59301 3.68219 1.48635 3.8665C1.3797 4.05081 1.45554 4.28418 1.6452 4.38101L2.23628 4.68278C2.39079 4.76166 2.57947 4.6995 2.66636 4.54935Z" fill="#FACC15"/>
<path d="M1.55768 7.21936C1.73095 7.2283 1.86335 7.37606 1.86335 7.54957C1.86335 7.72308 1.73095 7.87084 1.55768 7.87978L0.893792 7.91401C0.681767 7.92495 0.5 7.76188 0.5 7.54957C0.5 7.33726 0.681767 7.17419 0.893791 7.18512L1.55768 7.21936Z" fill="#FACC15"/>
<path d="M11.2806 3.84016C10.3818 3.01141 9.18104 2.50519 7.86207 2.50519C5.07614 2.50519 2.81769 4.76364 2.81769 7.54957C2.81769 7.75316 2.82975 7.95393 2.8532 8.15121C3.66846 7.61812 4.64287 7.30819 5.68966 7.30819C6.11417 7.30819 6.52738 7.35928 6.92319 7.45582C7.79939 5.7159 9.37452 4.38743 11.2806 3.84016Z" fill="#FACC15"/>
</g>
<path id="Union" d="M5.68972 17.084C3.15683 17.084 1.10352 15.0306 1.10352 12.4978C1.10352 9.96486 3.15683 7.91155 5.68972 7.91155C6.23893 7.91155 6.76559 8.00808 7.25366 8.18512C8.21663 5.82972 10.5309 4.17017 13.2328 4.17017C16.7989 4.17017 19.6897 7.06102 19.6897 10.6271C19.6897 10.7842 19.6841 10.9399 19.6731 11.0942C20.7515 11.5908 21.5001 12.681 21.5001 13.946C21.5001 15.6791 20.0952 17.084 18.3621 17.084H5.68972Z" fill="#9CA3AF"/>
</g>
</svg>
