<svg width="22" height="22" viewBox="0 0 22 22" fill="none" xmlns="http://www.w3.org/2000/svg">
<g id="Group 114">
<path id="Ellipse 17 (Stroke)" fill-rule="evenodd" clip-rule="evenodd" d="M19.9915 11.471C19.7444 11.4582 19.5556 11.2475 19.5556 11C19.5556 10.7525 19.7444 10.5418 19.9915 10.529L20.9384 10.4802C21.2408 10.4646 21.5 10.6972 21.5 11C21.5 11.3028 21.2408 11.5354 20.9384 11.5198L19.9915 11.471ZM18.4103 6.721C18.5342 6.93515 18.8033 7.02381 19.0237 6.9113L19.8667 6.4809C20.1372 6.3428 20.2454 6.00996 20.0932 5.74709C19.9411 5.48422 19.5996 5.41358 19.345 5.57923L18.5517 6.09548C18.3443 6.23043 18.2863 6.50686 18.4103 6.721ZM15.279 3.58973C15.4931 3.71365 15.7696 3.65571 15.9045 3.44833L16.4208 2.65499C16.5864 2.40043 16.5158 2.05889 16.2529 1.90677C15.99 1.75465 15.6572 1.86282 15.5191 2.13332L15.0887 2.97633C14.9762 3.19669 15.0648 3.4658 15.279 3.58973ZM11 2.44444C11.2475 2.44444 11.4582 2.25562 11.471 2.00849L11.5198 1.06164C11.5354 0.759242 11.3028 0.5 11 0.5C10.6972 0.5 10.4646 0.759242 10.4802 1.06164L10.529 2.00849C10.5418 2.25562 10.7525 2.44444 11 2.44444ZM6.721 3.58973C6.93515 3.4658 7.02381 3.19669 6.9113 2.97633L6.4809 2.13332C6.3428 1.86282 6.00996 1.75465 5.74709 1.90677C5.48422 2.05889 5.41358 2.40043 5.57923 2.65499L6.09548 3.44833C6.23043 3.65571 6.50686 3.71366 6.721 3.58973ZM3.58973 6.72101C3.71365 6.50686 3.65571 6.23043 3.44833 6.09548L2.65499 5.57923C2.40043 5.41358 2.05889 5.48422 1.90677 5.74709C1.75465 6.00996 1.86282 6.3428 2.13332 6.4809L2.97633 6.9113C3.19669 7.02381 3.4658 6.93515 3.58973 6.72101ZM2.00849 10.529C2.25562 10.5418 2.44444 10.7525 2.44444 11C2.44444 11.2475 2.25562 11.4582 2.00849 11.471L1.06164 11.5198C0.759242 11.5354 0.5 11.3028 0.5 11C0.5 10.6972 0.759242 10.4646 1.06164 10.4802L2.00849 10.529ZM3.58973 15.279C3.4658 15.0648 3.19669 14.9762 2.97633 15.0887L2.13332 15.5191C1.86282 15.6572 1.75465 15.99 1.90677 16.2529C2.05889 16.5158 2.40043 16.5864 2.65499 16.4208L3.44834 15.9045C3.65571 15.7696 3.71366 15.4931 3.58973 15.279ZM6.721 18.4103C6.50686 18.2863 6.23043 18.3443 6.09548 18.5517L5.57923 19.345C5.41358 19.5996 5.48422 19.9411 5.74709 20.0932C6.00996 20.2454 6.3428 20.1372 6.4809 19.8667L6.9113 19.0237C7.02381 18.8033 6.93515 18.5342 6.721 18.4103ZM11 19.5556C10.7525 19.5556 10.5418 19.7444 10.529 19.9915L10.4802 20.9384C10.4646 21.2408 10.6972 21.5 11 21.5C11.3028 21.5 11.5354 21.2408 11.5198 20.9384L11.471 19.9915C11.4582 19.7444 11.2475 19.5556 11 19.5556ZM15.279 18.4103C15.0648 18.5342 14.9762 18.8033 15.0887 19.0237L15.5191 19.8667C15.6572 20.1372 15.99 20.2454 16.2529 20.0932C16.5158 19.9411 16.5864 19.5996 16.4208 19.345L15.9045 18.5517C15.7696 18.3443 15.4931 18.2863 15.279 18.4103ZM18.4103 15.279C18.2863 15.4931 18.3443 15.7696 18.5517 15.9045L19.345 16.4208C19.5996 16.5864 19.9411 16.5158 20.0932 16.2529C20.2454 15.99 20.1372 15.6572 19.8667 15.5191L19.0237 15.0887C18.8033 14.9762 18.5342 15.0648 18.4103 15.279Z" fill="#FACC15"/>
<path id="Ellipse 17" d="M18.1946 11.0001C18.1946 14.9735 14.9735 18.1946 11.0001 18.1946C7.02673 18.1946 3.80566 14.9735 3.80566 11.0001C3.80566 7.02673 7.02673 3.80566 11.0001 3.80566C14.9735 3.80566 18.1946 7.02673 18.1946 11.0001Z" fill="#FACC15"/>
</g>
</svg>
