<svg width="24" height="24" viewBox="0 0 24 24" fill="none" xmlns="http://www.w3.org/2000/svg">
<g id="Filled=true">
<path id="Vector" d="M8.7615 21.5C8.33333 21.5 7.95867 21.3695 7.6375 21.1085C7.31633 20.8477 7.09742 20.5147 6.98075 20.1095L5.88475 15.75H18.096L17 20.1095C16.8833 20.5147 16.6644 20.8477 16.3432 21.1085C16.0221 21.3695 15.6474 21.5 15.2193 21.5H8.7615ZM11.9905 8.05775C12.0545 6.69242 12.55 5.511 13.477 4.5135C14.4038 3.516 15.5497 2.89167 16.9145 2.6405C16.9895 2.6225 17.0587 2.627 17.122 2.654C17.1855 2.68083 17.2474 2.71925 17.3077 2.76925C17.3679 2.81925 17.4089 2.87867 17.4307 2.9475C17.4526 3.01633 17.4552 3.089 17.4385 3.1655C17.2102 4.3795 16.6727 5.43075 15.826 6.31925C14.9792 7.20775 13.9506 7.7635 12.7402 7.9865V10.2598H19.596C19.8522 10.2598 20.0668 10.3463 20.24 10.5195C20.4133 10.6927 20.5 10.9073 20.5 11.1635V13.0048C20.5 13.5111 20.3193 13.9446 19.9578 14.3053C19.5961 14.6659 19.1614 14.8463 18.6538 14.8463H5.34625C4.83858 14.8463 4.40392 14.6662 4.04225 14.306C3.68075 13.9457 3.5 13.5127 3.5 13.007V11.1678C3.5 10.9073 3.58667 10.6907 3.76 10.5182C3.93317 10.3459 4.14783 10.2598 4.404 10.2598H11.2405V7.9865C10.0302 7.7635 9.00158 7.20775 8.15475 6.31925C7.30808 5.43075 6.77058 4.3795 6.54225 3.1655C6.52558 3.089 6.52817 3.01633 6.55 2.9475C6.57183 2.87867 6.61283 2.81925 6.673 2.76925C6.73333 2.71925 6.79683 2.68083 6.8635 2.654C6.93017 2.627 7.001 2.62267 7.076 2.641C8.44067 2.89833 9.58325 3.52567 10.5037 4.523C11.4243 5.5205 11.9198 6.69875 11.9905 8.05775Z" fill="#030712"/>
</g>
</svg>
