<svg width="21" height="19" viewBox="0 0 21 19" fill="none" xmlns="http://www.w3.org/2000/svg">
<path d="M20.1928 3.46302C20.1361 3.32596 20.04 3.20881 19.9166 3.12637C19.7933 3.04394 19.6483 2.99992 19.5 2.99989H16.6472C16.2483 2.32131 15.6807 1.75747 14.9994 1.36321C14.3181 0.96894 13.5465 0.757653 12.7594 0.74989C12.173 0.742199 11.591 0.851865 11.0476 1.07244C10.5042 1.29301 10.0104 1.62003 9.59531 2.03427C9.16807 2.45354 8.82896 2.954 8.59793 3.50622C8.36689 4.05845 8.2486 4.65129 8.25 5.24989V5.82083C4.47562 4.8252 1.38844 1.75489 1.35562 1.72208C1.255 1.62057 1.12747 1.54992 0.988047 1.51846C0.848622 1.487 0.70311 1.49603 0.568648 1.5445C0.434185 1.59296 0.316371 1.67884 0.22908 1.79202C0.141789 1.9052 0.0886554 2.04096 0.0759371 2.18333C-0.328125 6.66364 0.973125 9.66177 2.13844 11.3877C2.70663 12.2409 3.39786 13.0054 4.18969 13.6565C2.76187 15.2999 0.51375 16.1633 0.489375 16.1727C0.383544 16.2123 0.288039 16.2754 0.209996 16.3571C0.131953 16.4389 0.0733892 16.5372 0.0386815 16.6447C0.00397388 16.7523 -0.00598058 16.8663 0.00956168 16.9782C0.0251039 17.0901 0.065741 17.1971 0.128437 17.2911C0.198749 17.3961 0.48 17.7646 1.16719 18.1086C2.01656 18.5343 3.13875 18.7499 4.5 18.7499C11.1253 18.7499 16.6612 13.648 17.2266 7.08364L20.0306 4.28052C20.1355 4.17557 20.2069 4.04188 20.2357 3.89637C20.2646 3.75085 20.2497 3.60004 20.1928 3.46302ZM15.9741 6.2202C15.8455 6.3491 15.7682 6.52038 15.7566 6.70208C15.375 12.6168 10.4325 17.2499 4.5 17.2499C3.51 17.2499 2.8125 17.1186 2.32312 16.9611C3.40219 16.3752 4.90687 15.3674 5.87437 13.9161C5.93116 13.8308 5.96985 13.7347 5.98806 13.6339C6.00626 13.533 6.0036 13.4295 5.98023 13.3297C5.95686 13.2299 5.91328 13.1359 5.85218 13.0536C5.79109 12.9713 5.71377 12.9024 5.625 12.8511C5.58094 12.8258 1.50844 10.3818 1.5 3.85114C3 5.06989 5.74219 6.96083 8.87531 7.4877C8.98269 7.50581 9.09273 7.50031 9.19777 7.4716C9.30281 7.44288 9.40034 7.39164 9.48358 7.32143C9.56681 7.25121 9.63376 7.16372 9.67977 7.06502C9.72578 6.96632 9.74975 6.85879 9.75 6.74989V5.24989C9.74916 4.84981 9.82835 4.45361 9.98291 4.08459C10.1375 3.71557 10.3643 3.3812 10.65 3.10114C10.9239 2.82673 11.25 2.61002 11.6091 2.46381C11.9682 2.3176 12.3529 2.24486 12.7406 2.24989C13.9275 2.26489 15.0366 2.98864 15.5006 4.05083C15.5591 4.18437 15.6553 4.29797 15.7773 4.37772C15.8994 4.45748 16.042 4.49993 16.1878 4.49989H17.6878L15.9741 6.2202Z" fill="#022C22"/>
</svg>
