<svg width="36" height="46" viewBox="0 0 36 46" fill="none" xmlns="http://www.w3.org/2000/svg">
<g id="Vector">
<path d="M0 18.0972C0 8.41493 7.84901 0.565918 17.5312 0.565918C27.2135 0.565918 35.0625 8.41493 35.0625 18.0972V27.9028C35.0625 37.585 27.2135 45.434 17.5312 45.434C7.84901 45.434 0 37.585 0 27.9028V18.0972Z" fill="white"/>
<path d="M14.8075 42.2645C13.817 31.2208 20.5522 23.8419 32.1901 24.8323C33.1311 37.956 24.6626 43.0569 14.8075 42.2645Z" fill="#10B981"/>
<path d="M19.5626 23.8008C19.0427 18.0832 22.5777 14.2628 28.6859 14.7756C29.1798 21.5702 24.7351 24.2111 19.5626 23.8008Z" fill="#10B981"/>
<path d="M16.9759 23.99C17.5963 17.0294 13.3772 12.3785 6.0867 13.0028C5.49726 21.2744 10.8022 24.4894 16.9759 23.99Z" fill="#10B981"/>
<path d="M18.3236 6.2611C15.2037 9.33154 15.0056 12.5506 18.3236 15.6705C21.6417 12.5506 21.3445 9.0344 18.3236 6.2611Z" fill="#10B981"/>
<path d="M11.8856 41.3731C5.59613 39.3427 1.33713 32.5084 2.57521 24.8323C8.12182 24.3371 12.0837 25.278 15.4017 28.6456C12.5294 33.1523 11.6973 35.9824 11.8856 41.3731Z" fill="#10B981"/>
</g>
</svg>
