<svg xmlns="http://www.w3.org/2000/svg" width="205" height="221" viewBox="0 0 205 221" fill="none">
  <g clip-path="url(#clip0_428_3540)">
    <path d="M175.4 197.733H193.635V191.942H175.4V197.733Z" fill="#EBEBEB"/>
    <path d="M185.576 205.03C188.604 204.983 196.368 204.854 199.288 204.818H203.81L203.572 205.051V199.26L203.831 199.518C200.802 199.518 193.08 199.482 190.155 199.441L185.596 199.384L185.721 199.26L185.596 205.051L185.576 205.03ZM185.576 205.03L185.451 199.239V199.12H185.576C187.847 199.089 192.416 199.037 194.693 199.016L203.8 198.98H204.059V199.239V205.03V205.268H203.8H199.2C196.296 205.237 188.563 205.102 185.565 205.051L185.576 205.03Z" fill="#EBEBEB"/>
    <path d="M116.734 104.582C119.763 104.531 127.526 104.401 130.446 104.37L134.963 104.344L134.73 104.582L134.704 98.7915L134.963 99.0502C131.94 99.0502 124.218 99.014 121.293 98.9726L116.734 98.9157L116.853 98.7915L116.734 104.582ZM116.734 104.582L116.609 98.7915V98.6673H116.739C119.011 98.6362 123.58 98.5845 125.856 98.5689L134.969 98.5327H135.233V98.7915V104.582V104.82H134.995H130.4C127.495 104.789 119.763 104.66 116.765 104.608L116.734 104.582Z" fill="#EBEBEB"/>
    <path d="M126.904 111.884C129.933 111.833 137.696 111.703 140.621 111.672H145.139L144.9 111.91V106.119L145.159 106.378C142.131 106.378 134.408 106.342 131.483 106.3L126.925 106.244L127.044 106.088L126.919 111.879L126.904 111.884ZM126.904 111.884L126.779 106.088V105.964H126.904C129.175 105.933 133.744 105.881 136.021 105.866L145.139 105.83H145.398V106.088L145.372 111.879V112.117H145.139H140.538C137.634 112.086 129.901 111.957 126.904 111.905V111.884Z" fill="#EBEBEB"/>
    <path d="M137.033 104.582H155.268V98.7915H137.033V104.582Z" fill="#EBEBEB"/>
    <path d="M1.19493 205.035H19.4297V199.244H1.19493V205.035Z" fill="#EBEBEB"/>
    <path d="M11.36 10.6865L29.5947 10.6865V4.8956L11.36 4.8956V10.6865Z" fill="#EBEBEB"/>
    <path d="M1.1896 17.9833C4.21835 17.9315 11.9873 17.8021 14.9072 17.7711H19.4244L19.191 18.004V12.2131L19.4503 12.4719C16.4215 12.4719 8.69924 12.4356 5.77421 12.3942L1.1896 12.3166L1.31406 12.1924L1.1896 17.9833ZM1.1896 17.9833L1.07031 12.1924V12.0734H1.19478C3.47153 12.0423 8.04059 11.9906 10.3122 11.9699L19.4295 11.9337H19.6888V12.1924V17.9833V18.2213H19.4503H14.8501C11.9458 18.1851 4.21835 18.0557 1.21553 18.004L1.1896 17.9833Z" fill="#EBEBEB"/>
    <path d="M175.405 10.6813C178.434 10.6295 186.198 10.5002 189.117 10.4691H193.635L193.401 10.702L193.375 4.89041L193.635 5.14916L184.517 5.11294C182.251 5.11294 177.671 5.04566 175.405 5.01461L175.524 4.89041L175.405 10.6813ZM175.405 10.6813L175.275 4.89041V4.77138H175.405C177.677 4.74033 182.246 4.68858 184.517 4.66788L193.635 4.65753H193.899V4.91628V10.7072V10.9452H193.661H189.066C186.156 10.909 178.429 10.7796 175.431 10.7279L175.405 10.6813Z" fill="#EBEBEB"/>
    <path d="M64.6383 26.5272H22.6455V77.3513H64.6383V26.5272Z" fill="#EBEBEB"/>
    <path d="M59.8355 31.1693H27.4424V72.7196H59.8355V31.1693Z" fill="white"/>
    <path d="M28.7078 31.1693H27.4424V72.7196H28.7078V31.1693Z" fill="#DBDBDB"/>
    <path d="M65.9031 26.5272H64.6377V77.3513H65.9031V26.5272Z" fill="#DBDBDB"/>
    <path d="M45.942 36.898H38.3027V59.6061H45.942V36.898Z" fill="#DBDBDB"/>
    <path d="M55.3341 52.3558H34.9678V63.4822H55.3341V52.3558Z" stroke="#EBEBEB" stroke-miterlimit="10"/>
    <path d="M181.09 26.5272H139.097V77.3513H181.09V26.5272Z" fill="#EBEBEB"/>
    <path d="M176.293 31.1693H143.899V72.7196H176.293V31.1693Z" fill="white"/>
    <path d="M145.165 31.1693H143.899V72.7196H145.165V31.1693Z" fill="#DBDBDB"/>
    <path d="M182.355 26.5272H181.09V77.3513H182.355V26.5272Z" fill="#DBDBDB"/>
    <path d="M162.393 36.898H154.754V59.6061H162.393V36.898Z" fill="#DBDBDB"/>
    <path d="M171.785 52.3558H151.419V63.4822H171.785V52.3558Z" stroke="#EBEBEB" stroke-miterlimit="10"/>
    <path d="M122.864 38.7559H80.8711V89.5799H122.864V38.7559Z" fill="#EBEBEB"/>
    <path d="M118.061 43.3978H85.668V84.9482H118.061V43.3978Z" fill="white"/>
    <path d="M86.9334 43.3978H85.668V84.9482H86.9334V43.3978Z" fill="#DBDBDB"/>
    <path d="M124.129 38.7559H122.863V89.5799H124.129V38.7559Z" fill="#DBDBDB"/>
    <path d="M105.277 54.136H98.7324V70.6444H105.277V54.136Z" fill="#EBEBEB"/>
    <path d="M112.17 64.1705H94.5889V75.5504H112.17V64.1705Z" stroke="#DBDBDB" stroke-miterlimit="10"/>
    <path d="M171.059 178.575L167.947 185.158C167.654 185.821 167.228 186.418 166.697 186.913C166.166 187.408 165.539 187.79 164.855 188.035C164.171 188.281 163.445 188.386 162.719 188.343C161.994 188.3 161.284 188.111 160.634 187.787C159.318 187.165 158.301 186.049 157.807 184.681C157.313 183.314 157.383 181.806 158 180.49L162.963 169.964C163.01 169.86 163.113 169.907 163.16 169.809C163.108 169.658 163.108 169.658 163.16 169.555C163.811 168.268 164.931 167.279 166.29 166.791C167.649 166.303 169.144 166.353 170.468 166.931C171.964 167.663 173.591 168.09 175.255 168.187C176.918 168.285 178.585 168.051 180.157 167.5C181.729 166.949 183.175 166.091 184.412 164.976C185.649 163.862 186.651 162.513 187.36 161.008C188.069 159.504 188.471 157.873 188.542 156.212C188.613 154.551 188.353 152.892 187.776 151.332C187.198 149.773 186.316 148.343 185.179 147.127C184.043 145.911 182.675 144.933 181.156 144.249C179.19 143.315 177.011 142.916 174.84 143.091C172.669 143.266 170.583 144.01 168.792 145.248C168.191 145.671 167.51 145.971 166.791 146.129C166.072 146.287 165.329 146.3 164.604 146.168C163.88 146.036 163.189 145.762 162.573 145.36C161.956 144.958 161.426 144.438 161.013 143.83C160.608 143.235 160.326 142.567 160.181 141.863C160.036 141.159 160.031 140.434 160.168 139.729C160.305 139.023 160.58 138.352 160.978 137.753C161.376 137.154 161.888 136.639 162.486 136.238C165.695 134.019 169.406 132.631 173.286 132.198C177.166 131.764 181.093 132.3 184.714 133.755C188.335 135.211 191.537 137.542 194.032 140.538C196.527 143.534 198.238 147.102 199.009 150.921C199.78 154.74 199.589 158.69 198.452 162.417C197.315 166.143 195.267 169.53 192.494 172.272C189.721 175.013 186.308 177.025 182.563 178.125C178.818 179.225 174.858 179.38 171.038 178.575H171.059ZM160.609 200.75L159.748 202.577C159.454 203.238 159.03 203.833 158.5 204.325C157.97 204.818 157.345 205.199 156.664 205.444C155.983 205.69 155.259 205.796 154.535 205.755C153.812 205.714 153.105 205.527 152.456 205.206C151.138 204.585 150.12 203.469 149.627 202.101C149.133 200.733 149.203 199.225 149.821 197.909L150.677 196.087C151.314 194.787 152.434 193.784 153.799 193.294C155.164 192.803 156.667 192.862 157.989 193.458C158.647 193.759 159.237 194.188 159.726 194.72C160.214 195.252 160.592 195.875 160.836 196.555C161.08 197.234 161.185 197.955 161.146 198.675C161.107 199.396 160.924 200.101 160.609 200.75Z" fill="#EBEBEB"/>
    <path d="M16.9451 150.868L13.9837 144.233C13.6699 143.58 13.4925 142.869 13.4621 142.145C13.4318 141.421 13.5492 140.698 13.8072 140.021C14.0652 139.343 14.4584 138.725 14.9631 138.204C15.4677 137.683 16.0732 137.269 16.7428 136.988C18.0719 136.396 19.5822 136.352 20.9431 136.868C22.3039 137.384 23.4044 138.418 24.0035 139.742L28.78 150.361C28.8267 150.459 28.723 150.506 28.78 150.609C28.9252 150.666 28.9252 150.666 28.9719 150.764C29.525 152.096 29.5468 153.588 29.0329 154.935C28.5189 156.282 27.5082 157.382 26.2077 158.009C24.6703 158.662 23.2788 159.614 22.1146 160.809C20.9504 162.005 20.0369 163.42 19.4277 164.973C18.8184 166.525 18.5255 168.183 18.5663 169.849C18.607 171.516 18.9805 173.158 19.6649 174.678C20.3493 176.199 21.3309 177.568 22.5521 178.706C23.7733 179.843 25.2097 180.726 26.7771 181.303C28.3446 181.88 30.0116 182.139 31.6806 182.065C33.3496 181.991 34.9871 181.586 36.4971 180.873C38.488 179.991 40.2107 178.601 41.4917 176.843C42.7728 175.085 43.5669 173.021 43.7941 170.859C43.8645 170.13 44.0796 169.423 44.4268 168.778C44.774 168.133 45.2464 167.563 45.8165 167.102C46.3866 166.641 47.043 166.298 47.7473 166.093C48.4517 165.887 49.1899 165.824 49.9191 165.907C50.635 165.987 51.3279 166.208 51.9581 166.556C52.5882 166.904 53.1431 167.374 53.5908 167.937C54.0386 168.5 54.3703 169.146 54.567 169.838C54.7638 170.529 54.8215 171.253 54.7371 171.967C54.3332 175.841 52.9712 179.555 50.7733 182.774C48.5753 185.993 45.6104 188.617 42.1448 190.41C38.6792 192.203 34.8216 193.109 30.9183 193.046C27.0151 192.984 23.1886 191.954 19.7826 190.051C16.3766 188.148 13.4978 185.43 11.4047 182.142C9.31171 178.854 8.07004 175.098 7.79128 171.213C7.51252 167.328 8.2054 163.434 9.80768 159.882C11.41 156.33 13.8714 153.231 16.971 150.863L16.9451 150.868ZM6.88899 128.512L6.06438 126.675C5.75058 126.021 5.57312 125.311 5.54277 124.586C5.51242 123.862 5.62981 123.14 5.88781 122.462C6.14582 121.785 6.53906 121.166 7.04369 120.645C7.54832 120.124 8.15382 119.71 8.82345 119.43C10.1531 118.837 11.664 118.795 13.025 119.312C14.3859 119.829 15.486 120.863 16.0842 122.188L16.9088 124.025C17.4831 125.354 17.5157 126.854 16.9996 128.207C16.4835 129.56 15.4593 130.659 14.1445 131.27C13.4879 131.573 12.7773 131.741 12.0544 131.766C11.3316 131.791 10.6111 131.671 9.93521 131.414C9.25934 131.157 8.64172 130.768 8.11861 130.27C7.5955 129.771 7.17745 129.174 6.88899 128.512Z" fill="#EBEBEB"/>
    <path d="M44.5204 171.687C37.7783 180.769 30.7873 191.311 29.0811 202.706C29.0811 202.877 29.3404 202.934 29.3767 202.763C30.1518 199.656 31.1466 196.607 32.3536 193.64C36.7722 192.429 41.1079 191.43 43.4313 187.057C45.7962 182.555 45.5058 176.707 45.0442 171.785C45.0131 171.527 44.6553 171.511 44.5204 171.687Z" fill="#10B981"/>
    <path d="M32.4163 193.546C35.4399 186.783 39.314 179.993 44.2409 174.435C44.2443 174.431 44.2484 174.428 44.253 174.426C44.2576 174.424 44.2625 174.423 44.2676 174.422C44.2726 174.422 44.2777 174.423 44.2825 174.425C44.2872 174.426 44.2916 174.429 44.2953 174.432C44.2991 174.436 44.3021 174.44 44.3043 174.444C44.3064 174.449 44.3077 174.454 44.3079 174.459C44.3082 174.464 44.3074 174.469 44.3057 174.474C44.304 174.479 44.3013 174.483 44.2979 174.487C41.0721 178.451 38.5931 182.767 36.223 187.15C38.4531 184.894 40.8906 182.875 42.9962 180.485C43.0377 180.438 43.1051 180.485 43.0636 180.552C40.9891 183.057 38.6865 185.784 35.9585 187.636C35.2255 188.982 34.4873 190.331 33.744 191.683C33.9255 191.585 34.1122 191.492 34.3041 191.399C34.3084 191.402 34.3119 191.405 34.3143 191.41C34.3167 191.414 34.318 191.419 34.318 191.425C34.318 191.43 34.3167 191.435 34.3143 191.439C34.3119 191.444 34.3084 191.448 34.3041 191.45C34.0966 191.554 33.8892 191.663 33.6766 191.756C33.3239 192.392 32.9712 193.034 32.6082 193.671C32.5511 193.826 32.3541 193.702 32.4163 193.546Z" fill="#030712"/>
    <path d="M34.6665 191.197C36.4823 190.188 38.2163 189.039 39.8527 187.761C39.8942 187.724 39.9564 187.787 39.9149 187.823C38.3274 189.185 36.5871 190.359 34.7287 191.321C34.7133 191.324 34.6975 191.322 34.6835 191.314C34.6695 191.307 34.6582 191.296 34.6512 191.282C34.6442 191.268 34.6419 191.252 34.6447 191.237C34.6474 191.222 34.6551 191.208 34.6665 191.197Z" fill="#030712"/>
    <path d="M28.3031 201.014C28.3031 201.149 28.5521 201.149 28.5521 201.014C28.5832 197.267 28.5521 193.495 28.6091 189.727C29.5737 187.787 31.643 186.715 33.0796 185.158C34.1171 184.02 35.0186 182.766 35.7661 181.421C37.4965 178.218 38.5553 174.696 38.8778 171.071C39.272 167.055 37.7472 153.818 36.0513 154.273C35.1749 154.511 32.3276 161.073 31.5756 163.241C30.3505 166.817 29.4548 170.496 28.8995 174.233C27.52 183.062 27.6341 192.128 28.3031 201.014Z" fill="#10B981"/>
    <path d="M28.2773 184.826C28.4847 180.076 29.5583 175.284 30.5592 170.678C31.6431 165.72 32.9034 161.047 35.4602 156.628C35.4698 156.611 35.4859 156.598 35.5048 156.593C35.5238 156.587 35.5441 156.59 35.5613 156.599C35.5785 156.609 35.5912 156.625 35.5965 156.644C35.6019 156.663 35.5995 156.683 35.5898 156.7C33.8814 160.138 32.5612 163.756 31.6535 167.485C31.8246 167.221 32.0321 166.967 32.2084 166.714C32.281 166.616 32.4418 166.714 32.3744 166.812C32.1589 167.207 31.9053 167.579 31.6172 167.925H31.5861C30.7044 171.47 30.0717 175.097 29.5116 178.715C29.5485 178.666 29.5884 178.619 29.6309 178.575C29.6568 178.544 29.7035 178.575 29.6827 178.616C29.6205 178.735 29.5427 178.854 29.4701 178.974C29.1952 180.811 28.9515 182.643 28.6922 184.459C31.9647 181.665 34.7652 178.373 36.3418 174.316C36.3418 174.316 36.3781 174.316 36.3729 174.316C34.8171 178.528 32.3899 182.27 28.6403 184.821C28.5677 185.313 28.5003 185.799 28.4328 186.286C28.4328 186.389 28.2565 186.363 28.2565 186.286C28.2565 185.851 28.2565 185.422 28.2928 184.987C28.2799 184.978 28.269 184.967 28.261 184.954C28.253 184.941 28.2481 184.926 28.2466 184.91C28.2451 184.895 28.2471 184.879 28.2524 184.865C28.2577 184.85 28.2662 184.837 28.2773 184.826Z" fill="#030712"/>
    <path d="M29.8228 177.949C32.3226 174.223 34.6616 170.6 36.4975 166.481C36.4975 166.434 36.596 166.481 36.5753 166.512C35.0194 170.611 32.8723 174.756 29.9473 178.047C29.9408 178.055 29.9328 178.062 29.9237 178.067C29.9146 178.072 29.9046 178.075 29.8942 178.077C29.8839 178.078 29.8734 178.077 29.8633 178.074C29.8533 178.071 29.8439 178.067 29.8358 178.06C29.8276 178.054 29.8208 178.046 29.8157 178.037C29.8106 178.027 29.8074 178.017 29.8062 178.007C29.805 177.997 29.8058 177.986 29.8087 177.976C29.8115 177.966 29.8163 177.957 29.8228 177.949Z" fill="#030712"/>
    <path d="M33.1735 165.56C34.2107 163.728 35.305 161.937 36.2852 160.079C36.3163 160.028 36.3838 160.079 36.363 160.126C35.5631 162.074 34.5491 163.928 33.3394 165.653C33.2409 165.746 33.0905 165.663 33.1735 165.56Z" fill="#030712"/>
    <path d="M25.7618 190.162C25.7061 192.648 25.4091 195.123 24.875 197.552C24.9165 197.821 24.9528 198.069 24.9943 198.364C25.759 195.68 26.2029 192.914 26.3168 190.126C26.3412 190.087 26.3541 190.042 26.3541 189.996C26.3541 189.951 26.3412 189.906 26.3168 189.867C26.4267 186.128 26.1486 182.387 25.487 178.704C24.3564 171.811 21.7944 165.187 16.9764 160.017C16.9366 159.986 16.8902 159.963 16.8406 159.952C16.7911 159.941 16.7396 159.94 16.6899 159.951C16.6403 159.962 16.5937 159.984 16.5535 160.015C16.5133 160.046 16.4806 160.086 16.4578 160.131C14.5129 165.063 15.1923 170.952 16.8467 175.874C17.7483 178.537 19.036 181.055 20.669 183.346C22.3078 185.67 24.4186 187.631 25.7618 190.162Z" fill="#10B981"/>
    <path d="M17.5474 162.331C22.1165 169.741 25.2904 178.492 25.6794 187.228C25.6794 187.383 25.4253 187.424 25.4045 187.269C25.2956 186.482 25.1763 185.717 25.0519 184.93C23.1641 183.124 21.2244 181.219 19.8656 178.963C19.8656 178.927 19.902 178.88 19.9331 178.917C21.5004 180.836 23.1802 182.66 24.9637 184.381C24.6387 182.453 24.248 180.555 23.7916 178.689C23.6671 178.549 23.5479 178.409 23.4286 178.264C23.3093 178.12 23.4804 178.037 23.5634 178.13L23.6775 178.254C23.0346 175.686 22.2362 173.16 21.2867 170.688C20.125 169.306 18.8232 168.101 17.9779 166.44C17.9779 166.403 18.0142 166.372 18.0401 166.408C18.7195 167.361 19.3781 168.318 20.1509 169.203C20.4569 169.555 20.7992 169.886 21.1155 170.238C20.0645 167.561 18.8146 164.966 17.3763 162.475C17.357 162.453 17.3476 162.423 17.35 162.394C17.3524 162.364 17.3665 162.337 17.3892 162.318C17.4119 162.298 17.4413 162.289 17.471 162.291C17.5007 162.294 17.5281 162.308 17.5474 162.331Z" fill="#030712"/>
    <path d="M18.4699 171.454C19.9479 173.436 21.6283 175.325 23.0026 177.374C23.0389 177.431 22.9559 177.493 22.9041 177.447C21.1408 175.796 19.6523 173.545 18.3713 171.511C18.3298 171.444 18.4284 171.392 18.4699 171.454Z" fill="#030712"/>
    <path d="M23.2103 177.835L23.2725 177.897C23.314 177.938 23.2725 178.006 23.2051 177.964L23.1429 177.902C23.1339 177.893 23.1289 177.881 23.1289 177.869C23.1289 177.856 23.1339 177.844 23.1429 177.835C23.1518 177.826 23.1639 177.821 23.1766 177.821C23.1892 177.821 23.2014 177.826 23.2103 177.835Z" fill="#030712"/>
    <path d="M10.3951 176.546C10.7582 180.35 12.7652 184.899 15.2131 187.828C16.288 189.103 17.6183 190.139 19.1184 190.871C20.8143 191.709 22.5828 192.672 24.3357 193.355C25.1692 195.47 25.7878 197.663 26.182 199.901L26.3531 199.322C25.2277 189.686 18.9783 181.452 10.9864 176.169C10.9244 176.128 10.8518 176.106 10.7774 176.105C10.703 176.104 10.6301 176.125 10.5674 176.165C10.5048 176.205 10.4552 176.263 10.4246 176.33C10.394 176.398 10.3838 176.473 10.3951 176.546Z" fill="#10B981"/>
    <path d="M13.1549 179.393C13.0978 179.341 13.1549 179.243 13.2378 179.289C17.6262 182.548 21.1263 186.852 23.4184 191.808C23.4754 191.942 23.2939 192.056 23.2213 191.927C22.8479 191.275 22.4693 190.643 22.0855 190.022C20.26 189.681 18.533 188.402 17.1794 187.186C17.1718 187.179 17.1673 187.17 17.1668 187.16C17.1663 187.149 17.1699 187.139 17.1768 187.132C17.1836 187.124 17.1932 187.12 17.2035 187.119C17.2137 187.119 17.2237 187.122 17.2312 187.129C17.931 187.762 18.7061 188.306 19.5391 188.749C20.2859 189.127 21.095 189.365 21.8573 189.665C21.1831 188.594 20.4778 187.569 19.7414 186.56C17.7715 185.812 15.924 184.776 14.2595 183.486C14.2077 183.45 14.2595 183.362 14.3114 183.398C15.961 184.394 17.6628 185.301 19.4094 186.115C18.294 184.649 17.0921 183.251 15.8102 181.928C15.1879 181.602 14.5603 181.276 13.9587 180.924C13.9486 180.918 13.9412 180.908 13.9378 180.896C13.9345 180.884 13.9353 180.872 13.9403 180.861C13.9452 180.849 13.954 180.84 13.9649 180.835C13.9759 180.83 13.9884 180.828 14.0002 180.831C14.4999 181.007 14.977 181.242 15.4212 181.53C14.69 180.811 13.9483 180.091 13.1549 179.393Z" fill="#030712"/>
    <path d="M13.3256 182.72C13.434 182.783 13.5364 182.856 13.6316 182.938C13.6627 182.963 13.6316 183 13.5901 182.989C13.4802 182.937 13.3744 182.877 13.2738 182.808C13.2167 182.772 13.2686 182.679 13.3256 182.72Z" fill="#030712"/>
    <path d="M38.821 220.762H16.9248L18.6933 200.864L19.0823 196.475H36.6687L37.0525 200.864L38.821 220.762Z" fill="#4B5563"/>
    <path d="M37.0528 200.864L18.8232 199.42L19.0826 196.475H36.669L37.0528 200.864Z" fill="#1F2937"/>
    <path d="M37.7159 193.407H18.0342V197.749H37.7159V193.407Z" fill="#4B5563"/>
    <path d="M149.059 220.762H99.3492C97.1917 212.296 93.8621 199.265 90.963 187.916C90.963 187.916 90.963 187.916 90.963 187.89C90.7919 187.197 90.6104 186.503 90.4444 185.82C90.3355 185.396 90.2318 184.977 90.1281 184.568C87.3379 173.654 85.1389 165.027 85.0871 164.83C85.0352 164.634 85.03 164.613 85.0093 164.54L84.9678 164.375H132.961L149.059 220.762Z" fill="#1F2937"/>
    <path d="M131.395 164.359C131.395 164.39 131.395 164.447 131.395 164.525C131.395 165.089 131.395 165.648 131.395 166.212C131.395 167.645 131.307 169.084 131.213 170.517C130.833 176.125 130.098 181.702 129.014 187.217C127.599 194.496 125.729 201.679 123.413 208.725C123.211 209.335 123.086 209.677 123.076 209.713L119.264 211.602L118.953 211.757L111.376 215.514L109.327 216.549L109.27 216.581C109.27 216.581 109.182 218.283 109.079 220.772H57.2422C58.2795 212.001 58.4195 210.841 58.4195 210.841C58.1135 209.154 56.7547 204.787 57.2422 199.725C58.2795 188.584 65.1564 166.217 65.7736 164.887C65.9188 164.561 66.0069 164.37 66.0069 164.37H79.1177H110.178H131.395V164.359Z" fill="#1F2937"/>
    <path d="M109.323 216.425V216.539C109.323 217.947 109.286 219.359 109.266 220.762H108.747C108.866 219.349 108.96 217.931 109.126 216.518C109.126 216.389 109.152 216.27 109.167 216.141C109.167 216.12 109.175 216.1 109.19 216.086C109.205 216.071 109.224 216.063 109.245 216.063C109.266 216.063 109.285 216.071 109.3 216.086C109.315 216.1 109.323 216.12 109.323 216.141C109.318 216.239 109.323 216.317 109.323 216.425Z" fill="#030712"/>
    <path d="M103.109 219.137C105.314 217.61 107.689 216.332 110.023 214.997C112.356 213.662 114.83 212.363 117.314 211.209C122.169 208.952 127.288 207.328 132.391 205.744C132.526 205.708 132.609 205.915 132.484 205.972C127.568 208.078 122.801 210.495 117.911 212.658C115.453 213.745 112.974 214.79 110.51 215.872C108.047 216.953 105.645 218.18 103.161 219.215C103.152 219.214 103.143 219.212 103.135 219.208C103.127 219.203 103.12 219.197 103.115 219.189C103.11 219.182 103.107 219.173 103.106 219.164C103.105 219.155 103.106 219.146 103.109 219.137Z" fill="#030712"/>
    <path d="M116.562 195.13C116.62 192.724 116.791 190.317 116.91 187.916C117.195 182.223 117.429 176.531 117.947 170.88C117.947 170.833 117.966 170.788 117.999 170.755C118.032 170.722 118.077 170.704 118.124 170.704C118.17 170.704 118.215 170.722 118.248 170.755C118.281 170.788 118.3 170.833 118.3 170.88C118.372 175.268 118.201 179.677 118.113 184.055C118.066 186.255 118.004 188.449 117.942 190.643C117.822 192.739 117.808 194.839 117.901 196.936C118.02 198.52 118.367 201.594 120.437 201.785C122.381 201.966 123.455 199.865 123.937 198.328C125.177 194.421 125.618 190.198 126.012 186.136C126.245 183.729 126.484 181.333 126.629 178.917C126.774 176.5 126.966 172.888 126.836 170.455C126.836 170.3 127.049 170.305 127.08 170.455C127.459 172.525 127.474 176.774 127.422 179.253C126.95 201.64 123.413 202.918 121.541 203.281C121.312 203.325 121.08 203.349 120.846 203.353C120.846 203.871 120.753 204.388 120.717 204.875C120.66 205.672 120.566 206.463 120.457 207.255C120.347 208.031 120.184 208.799 119.97 209.553C119.804 210.318 119.532 211.057 119.161 211.747C119.146 211.769 119.125 211.786 119.101 211.795C119.076 211.804 119.049 211.805 119.024 211.798C118.999 211.792 118.976 211.777 118.96 211.756C118.943 211.736 118.934 211.711 118.933 211.685C118.916 210.925 118.98 210.165 119.124 209.418C119.233 208.642 119.337 207.866 119.498 207.1C119.659 206.334 119.793 205.594 119.949 204.844C120.053 204.326 120.125 203.808 120.219 203.291C119.614 203.187 119.045 202.935 118.563 202.558C118.08 202.18 117.699 201.689 117.454 201.128C116.583 199.322 116.511 197.138 116.562 195.13Z" fill="#030712"/>
    <path d="M71.2553 190.876C74.367 191.099 77.4788 191.502 80.5905 191.13C83.5505 190.827 86.3714 189.723 88.7484 187.937C93.9087 183.942 96.1751 177.4 97.565 171.263C97.5674 171.248 97.5726 171.235 97.5802 171.223C97.5879 171.21 97.5979 171.2 97.6097 171.191C97.6215 171.183 97.6349 171.177 97.649 171.173C97.6631 171.17 97.6778 171.17 97.6921 171.172C97.7064 171.175 97.7201 171.18 97.7324 171.187C97.7447 171.195 97.7553 171.205 97.7638 171.217C97.7722 171.229 97.7782 171.242 97.7815 171.256C97.7847 171.27 97.7852 171.285 97.7828 171.299C97.1968 176.619 96.0506 182.12 92.5966 186.405C91.1143 188.288 89.2405 189.827 87.1044 190.918C84.8335 191.972 82.3472 192.482 79.8437 192.408C76.9086 192.384 73.9882 191.991 71.1516 191.238C71.1034 191.225 71.0627 191.192 71.0384 191.149C71.0141 191.105 71.0082 191.054 71.0219 191.005C71.0357 190.957 71.068 190.917 71.1118 190.893C71.1555 190.868 71.2071 190.862 71.2553 190.876Z" fill="#030712"/>
    <path d="M139.6 189.639C138.728 189.541 137.873 189.613 137.006 188.972C136.14 188.33 135.368 187.176 134.678 185.277C133.169 181.137 132.432 174.927 131.939 169.193C131.939 169.063 131.872 169.068 131.877 169.193C132.131 174.109 132.541 179.248 133.573 183.491C133.93 185.1 134.469 186.663 135.181 188.149C135.824 189.381 136.54 189.97 137.255 190.219C137.651 190.347 138.069 190.392 138.483 190.351C138.898 190.31 139.299 190.184 139.662 189.981C139.682 189.924 139.662 189.65 139.6 189.639Z" fill="#030712"/>
    <path d="M70.6955 165.901C69.0152 175.103 67.0237 184.428 65.1826 193.603C64.7106 196.346 63.8912 199.053 64.0572 201.847C64.2941 204.664 64.7396 207.459 65.39 210.21C65.0892 211.98 64.804 213.75 64.4825 215.52C64.1609 217.289 63.8757 219.018 63.5386 220.762C63.6993 218.992 63.9016 217.227 64.0883 215.463C64.275 213.698 64.4928 211.933 64.6951 210.169C63.9258 207.461 63.405 204.69 63.1392 201.889C63.0475 200.918 63.0701 199.94 63.2066 198.975C63.7668 195.208 64.5551 191.533 65.3485 187.844C66.9563 180.479 68.7248 173.152 70.7215 165.881L70.6955 165.901Z" fill="#030712"/>
    <path d="M117.066 96.442C138.734 116.024 154.142 132.9 153.935 140.57C153.494 157.761 144.392 161.461 142.774 160.944C125.691 155.158 114.825 122.695 107.643 103.087C100.512 83.6079 110.858 90.8323 117.066 96.442Z" fill="#D3766A"/>
    <path d="M147.819 124.341L120.519 138.888C120.519 138.888 109.41 114.674 105.619 100.204C101.828 85.7349 107.647 86.1903 120.358 97.5184C133.07 108.847 147.819 124.341 147.819 124.341Z" fill="#10B981"/>
    <path d="M114.234 106.114C113.926 106.114 113.625 106.205 113.369 106.376C113.114 106.546 112.914 106.789 112.796 107.073C112.679 107.356 112.648 107.668 112.708 107.97C112.768 108.271 112.916 108.547 113.134 108.764C113.351 108.982 113.628 109.129 113.93 109.189C114.232 109.249 114.545 109.219 114.829 109.101C115.113 108.984 115.356 108.785 115.527 108.529C115.698 108.274 115.79 107.974 115.79 107.667C115.79 107.255 115.626 106.86 115.334 106.569C115.042 106.278 114.646 106.114 114.234 106.114ZM114.234 108.986C113.976 108.985 113.724 108.908 113.51 108.764C113.296 108.621 113.129 108.417 113.031 108.179C112.932 107.941 112.907 107.679 112.957 107.427C113.008 107.174 113.132 106.942 113.315 106.76C113.497 106.578 113.73 106.454 113.983 106.403C114.236 106.353 114.498 106.378 114.737 106.476C114.975 106.574 115.179 106.741 115.323 106.954C115.467 107.168 115.545 107.42 115.546 107.677C115.547 107.849 115.513 108.02 115.447 108.179C115.382 108.338 115.285 108.483 115.163 108.604C115.041 108.726 114.896 108.822 114.737 108.888C114.577 108.954 114.406 108.987 114.234 108.986ZM131.644 108.065C131.578 108.277 131.459 108.468 131.298 108.621C131.138 108.774 130.94 108.884 130.725 108.939C130.51 108.994 130.284 108.994 130.069 108.937C129.854 108.881 129.658 108.771 129.497 108.617C129.337 108.463 129.219 108.271 129.155 108.059C129.09 107.847 129.081 107.622 129.128 107.405C129.176 107.188 129.278 106.987 129.425 106.821C129.572 106.655 129.759 106.529 129.969 106.456C129.901 106.383 129.829 106.316 129.756 106.249C129.526 106.353 129.325 106.512 129.17 106.712C129.015 106.911 128.911 107.145 128.867 107.394C128.824 107.642 128.841 107.898 128.919 108.138C128.996 108.378 129.132 108.596 129.312 108.772C129.493 108.949 129.714 109.078 129.957 109.15C130.199 109.222 130.456 109.234 130.704 109.185C130.952 109.135 131.184 109.027 131.38 108.868C131.577 108.709 131.731 108.504 131.831 108.272L131.644 108.065ZM106.159 93.2594C105.852 93.2645 105.554 93.3598 105.302 93.5335C105.049 93.7072 104.854 93.9514 104.74 94.2355C104.626 94.5196 104.599 94.8309 104.662 95.1303C104.725 95.4297 104.875 95.7039 105.094 95.9185C105.312 96.133 105.59 96.2783 105.891 96.3362C106.192 96.394 106.503 96.3618 106.786 96.2436C107.069 96.1253 107.31 95.9264 107.48 95.6717C107.65 95.4169 107.741 95.1178 107.741 94.8119C107.741 94.6058 107.7 94.4018 107.62 94.2117C107.54 94.0217 107.423 93.8493 107.276 93.7048C107.129 93.5603 106.954 93.4465 106.762 93.37C106.57 93.2936 106.365 93.2559 106.159 93.2594ZM106.159 96.1315C105.901 96.1305 105.649 96.0533 105.435 95.9096C105.221 95.7659 105.054 95.5622 104.956 95.3241C104.857 95.086 104.832 94.8242 104.882 94.5717C104.933 94.3192 105.057 94.0873 105.24 93.9053C105.422 93.7232 105.655 93.5991 105.908 93.5486C106.161 93.4981 106.423 93.5235 106.662 93.6216C106.9 93.7196 107.105 93.886 107.249 94.0997C107.393 94.3133 107.47 94.5647 107.471 94.8222C107.472 94.9944 107.438 95.1649 107.372 95.3241C107.307 95.4832 107.21 95.6278 107.088 95.7496C106.966 95.8713 106.821 95.9677 106.662 96.0332C106.502 96.0988 106.331 96.1322 106.159 96.1315ZM130.389 132.051C130.116 132.048 129.847 132.117 129.608 132.25C129.37 132.384 129.172 132.578 129.032 132.812C128.893 133.047 128.818 133.313 128.815 133.586C128.812 133.859 128.881 134.127 129.015 134.365L129.248 134.24C129.146 134.048 129.092 133.833 129.092 133.614C129.094 133.272 129.231 132.943 129.474 132.701C129.716 132.459 130.045 132.322 130.389 132.321C130.627 132.32 130.861 132.385 131.066 132.507C131.27 132.629 131.438 132.804 131.551 133.014L131.789 132.885C131.653 132.632 131.451 132.422 131.204 132.275C130.958 132.128 130.676 132.051 130.389 132.051ZM122.309 119.197C122.001 119.197 121.7 119.288 121.444 119.458C121.188 119.629 120.989 119.871 120.871 120.155C120.754 120.439 120.723 120.751 120.783 121.052C120.843 121.353 120.991 121.63 121.209 121.847C121.426 122.064 121.703 122.212 122.005 122.272C122.307 122.332 122.62 122.301 122.904 122.184C123.188 122.066 123.431 121.867 123.602 121.612C123.773 121.356 123.865 121.056 123.865 120.749C123.865 120.337 123.701 119.943 123.409 119.651C123.117 119.36 122.721 119.197 122.309 119.197ZM122.309 122.069C122.051 122.068 121.799 121.991 121.585 121.847C121.37 121.703 121.204 121.499 121.105 121.261C121.007 121.023 120.982 120.762 121.032 120.509C121.083 120.257 121.207 120.025 121.39 119.843C121.572 119.66 121.805 119.536 122.058 119.486C122.311 119.435 122.573 119.461 122.812 119.559C123.05 119.657 123.254 119.823 123.398 120.037C123.542 120.251 123.62 120.502 123.621 120.76C123.622 120.932 123.588 121.102 123.522 121.261C123.457 121.421 123.36 121.565 123.238 121.687C123.116 121.809 122.971 121.905 122.812 121.971C122.652 122.036 122.481 122.069 122.309 122.069ZM138.453 119.197C138.147 119.202 137.849 119.297 137.596 119.471C137.344 119.644 137.148 119.889 137.035 120.173C136.921 120.457 136.894 120.768 136.957 121.068C137.02 121.367 137.17 121.641 137.388 121.856C137.607 122.07 137.884 122.216 138.185 122.273C138.486 122.331 138.798 122.299 139.081 122.181C139.363 122.063 139.605 121.864 139.775 121.609C139.945 121.354 140.035 121.055 140.035 120.749C140.035 120.543 139.994 120.339 139.914 120.149C139.835 119.959 139.718 119.787 139.57 119.642C139.423 119.498 139.249 119.384 139.057 119.307C138.865 119.231 138.66 119.193 138.453 119.197ZM138.453 122.069C138.195 122.068 137.943 121.991 137.729 121.847C137.515 121.703 137.348 121.499 137.25 121.261C137.152 121.023 137.126 120.762 137.177 120.509C137.228 120.257 137.352 120.025 137.535 119.843C137.717 119.66 137.949 119.536 138.202 119.486C138.455 119.435 138.718 119.461 138.956 119.559C139.195 119.657 139.399 119.823 139.543 120.037C139.687 120.251 139.765 120.502 139.766 120.76C139.766 120.932 139.733 121.102 139.667 121.261C139.601 121.421 139.505 121.565 139.383 121.687C139.261 121.809 139.116 121.905 138.956 121.971C138.797 122.036 138.626 122.069 138.453 122.069Z" fill="white"/>
    <path d="M142.261 120.144C131.722 127.14 121.516 131.663 119.483 132.817C119.384 132.874 119.306 132.714 119.405 132.662C121.479 131.627 132.682 124.786 142.178 119.968C142.287 119.916 142.359 120.061 142.261 120.144Z" fill="#030712"/>
    <path opacity="0.1" d="M141.85 127.823L120.524 138.877C120.524 138.877 109.41 114.679 105.614 100.199C104.224 94.8688 104.131 91.562 105.209 90.0819L141.85 127.823Z" fill="black"/>
    <path d="M133.698 165.084L130.156 142.831C130.156 142.831 137.126 134.101 132.557 124.537C130.249 119.688 118.554 95.8727 110.194 89.937C103.307 85.0673 91.6169 87.6962 87.722 94.4186C78.9054 109.628 70.1407 127.503 65.0479 165.13L133.698 165.084Z" fill="#10B981"/>
    <path d="M81.9233 106.114C81.7184 106.113 81.5155 106.154 81.3269 106.233C81.0393 106.35 80.7933 106.55 80.6205 106.807C80.4476 107.064 80.3559 107.367 80.357 107.677C80.3557 107.825 80.3785 107.971 80.4245 108.112C80.5079 108.387 80.6662 108.633 80.8816 108.823C81.0971 109.014 81.3612 109.141 81.6447 109.191C81.9282 109.24 82.22 109.21 82.4875 109.104C82.755 108.998 82.9878 108.821 83.1601 108.59C83.3323 108.36 83.4372 108.087 83.463 107.801C83.4889 107.515 83.4347 107.227 83.3065 106.97C83.1784 106.713 82.9812 106.496 82.737 106.344C82.4928 106.192 82.2111 106.111 81.9233 106.109V106.114ZM81.9233 108.986C81.5785 108.984 81.2487 108.845 81.0058 108.601C80.763 108.356 80.6267 108.026 80.6267 107.682C80.627 107.492 80.6699 107.303 80.7525 107.131C80.835 106.96 80.9551 106.808 81.1038 106.689C81.3311 106.496 81.62 106.391 81.9181 106.394C82.1021 106.37 82.289 106.386 82.4663 106.441C82.6436 106.495 82.8073 106.587 82.9465 106.709C83.0857 106.831 83.1971 106.982 83.2735 107.151C83.3499 107.319 83.3893 107.502 83.3893 107.687C83.3893 107.872 83.3499 108.055 83.2735 108.224C83.1971 108.393 83.0857 108.543 82.9465 108.666C82.8073 108.788 82.6436 108.88 82.4663 108.934C82.289 108.988 82.1021 109.004 81.9181 108.981L81.9233 108.986ZM98.0783 106.114C97.7718 106.119 97.4736 106.215 97.2211 106.388C96.9687 106.562 96.7733 106.806 96.6595 107.09C96.5457 107.374 96.5186 107.686 96.5815 107.985C96.6445 108.285 96.7947 108.559 97.0132 108.773C97.2318 108.988 97.5091 109.133 97.8102 109.191C98.1112 109.249 98.4227 109.217 98.7055 109.098C98.9883 108.98 99.2298 108.781 99.3996 108.526C99.5695 108.272 99.6601 107.973 99.6601 107.667C99.6602 107.461 99.6193 107.257 99.5398 107.068C99.4603 106.878 99.3438 106.706 99.1971 106.561C99.0505 106.417 98.8765 106.303 98.6853 106.226C98.4941 106.15 98.2896 106.111 98.0835 106.114H98.0783ZM98.0783 108.986C97.8203 108.985 97.5683 108.908 97.3542 108.764C97.1401 108.621 96.9734 108.417 96.8751 108.179C96.7768 107.941 96.7514 107.679 96.802 107.427C96.8526 107.174 96.9769 106.942 97.1594 106.76C97.3419 106.578 97.5743 106.454 97.8273 106.403C98.0803 106.353 98.3427 106.378 98.5813 106.476C98.8199 106.574 99.0241 106.741 99.1681 106.954C99.312 107.168 99.3894 107.42 99.3905 107.677C99.3911 107.849 99.3578 108.019 99.2925 108.178C99.2271 108.336 99.1309 108.481 99.0095 108.603C98.8881 108.724 98.7438 108.821 98.5849 108.887C98.426 108.952 98.2556 108.986 98.0835 108.986H98.0783ZM114.228 106.114C113.921 106.114 113.62 106.205 113.364 106.376C113.108 106.546 112.909 106.789 112.791 107.073C112.673 107.356 112.642 107.668 112.702 107.97C112.762 108.271 112.91 108.547 113.128 108.764C113.346 108.982 113.623 109.129 113.925 109.189C114.227 109.249 114.539 109.218 114.824 109.101C115.108 108.983 115.351 108.784 115.522 108.529C115.693 108.274 115.784 107.974 115.784 107.667C115.784 107.256 115.621 106.862 115.33 106.571C115.04 106.28 114.645 106.116 114.233 106.114H114.228ZM114.228 108.986C113.97 108.985 113.718 108.908 113.504 108.764C113.29 108.621 113.123 108.417 113.025 108.179C112.927 107.941 112.901 107.679 112.952 107.427C113.002 107.174 113.127 106.942 113.309 106.76C113.492 106.578 113.724 106.454 113.977 106.403C114.23 106.353 114.493 106.378 114.731 106.476C114.97 106.574 115.174 106.741 115.318 106.954C115.462 107.168 115.539 107.42 115.54 107.677C115.541 107.849 115.508 108.019 115.442 108.178C115.377 108.336 115.281 108.481 115.159 108.603C115.038 108.724 114.894 108.821 114.735 108.887C114.576 108.952 114.405 108.986 114.233 108.986H114.228ZM90.0034 93.2594C89.6957 93.2594 89.3949 93.3504 89.139 93.521C88.8831 93.6916 88.6837 93.9341 88.566 94.2177C88.4482 94.5014 88.4174 94.8136 88.4774 95.1147C88.5375 95.4159 88.6856 95.6925 88.9032 95.9097C89.1208 96.1268 89.3981 96.2746 89.6999 96.3345C90.0017 96.3944 90.3145 96.3637 90.5988 96.2462C90.8831 96.1287 91.1261 95.9297 91.2971 95.6744C91.468 95.4191 91.5593 95.1189 91.5593 94.8119C91.5593 94.401 91.3961 94.0069 91.1054 93.7159C90.8147 93.4249 90.4203 93.2607 90.0086 93.2594H90.0034ZM90.0034 96.1315C89.7454 96.1305 89.4934 96.0533 89.2793 95.9096C89.0652 95.7659 88.8984 95.5621 88.8002 95.3241C88.7019 95.086 88.6764 94.8242 88.727 94.5717C88.7776 94.3192 88.902 94.0873 89.0845 93.9053C89.2669 93.7232 89.4993 93.5991 89.7524 93.5486C90.0054 93.4981 90.2677 93.5235 90.5063 93.6216C90.7449 93.7196 90.9491 93.886 91.0931 94.0996C91.2371 94.3133 91.3145 94.5647 91.3155 94.8222C91.3162 94.9939 91.2829 95.164 91.2175 95.3229C91.1522 95.4817 91.056 95.6261 90.9346 95.7477C90.8131 95.8693 90.6688 95.9659 90.5099 96.0317C90.351 96.0976 90.1807 96.1315 90.0086 96.1315H90.0034ZM106.153 93.2594C105.847 93.2645 105.549 93.3598 105.296 93.5335C105.044 93.7071 104.848 93.9514 104.734 94.2355C104.621 94.5195 104.594 94.8309 104.656 95.1303C104.719 95.4297 104.87 95.7039 105.088 95.9185C105.307 96.133 105.584 96.2783 105.885 96.3362C106.186 96.394 106.498 96.3618 106.78 96.2436C107.063 96.1253 107.305 95.9264 107.475 95.6716C107.644 95.4169 107.735 95.1178 107.735 94.8119C107.735 94.6062 107.694 94.4026 107.615 94.2129C107.535 94.0232 107.419 93.8511 107.272 93.7067C107.125 93.5623 106.951 93.4483 106.76 93.3715C106.569 93.2947 106.365 93.2566 106.158 93.2594H106.153ZM106.153 96.1315C105.895 96.1305 105.643 96.0533 105.429 95.9096C105.215 95.7659 105.048 95.5621 104.95 95.3241C104.852 95.086 104.826 94.8242 104.877 94.5717C104.928 94.3192 105.052 94.0873 105.234 93.9053C105.417 93.7232 105.649 93.5991 105.902 93.5486C106.155 93.4981 106.418 93.5235 106.656 93.6216C106.895 93.7196 107.099 93.886 107.243 94.0996C107.387 94.3133 107.464 94.5647 107.465 94.8222C107.466 94.9939 107.433 95.164 107.367 95.3229C107.302 95.4817 107.206 95.6261 107.084 95.7477C106.963 95.8693 106.819 95.9659 106.66 96.0317C106.501 96.0976 106.331 96.1315 106.158 96.1315H106.153ZM81.9233 132.051C81.6167 132.057 81.3185 132.152 81.0661 132.326C80.8136 132.499 80.6183 132.743 80.5045 133.028C80.3907 133.312 80.3635 133.623 80.4265 133.922C80.4894 134.222 80.6396 134.496 80.8582 134.711C81.0768 134.925 81.354 135.07 81.6551 135.128C81.9562 135.186 82.2677 135.154 82.5504 135.036C82.8332 134.917 83.0747 134.718 83.2446 134.464C83.4144 134.209 83.505 133.91 83.5051 133.604C83.5051 133.398 83.464 133.194 83.3842 133.004C83.3044 132.814 83.1875 132.641 83.0402 132.497C82.893 132.352 82.7184 132.239 82.5266 132.162C82.3349 132.086 82.1298 132.048 81.9233 132.051ZM81.9233 134.924C81.6652 134.923 81.4133 134.845 81.1991 134.702C80.985 134.558 80.8183 134.354 80.72 134.116C80.6218 133.878 80.5963 133.616 80.6469 133.364C80.6975 133.111 80.8219 132.879 81.0043 132.697C81.1868 132.515 81.4192 132.391 81.6722 132.341C81.9253 132.29 82.1876 132.316 82.4262 132.414C82.6648 132.512 82.869 132.678 83.013 132.892C83.157 133.105 83.2344 133.357 83.2354 133.614C83.2361 133.786 83.2026 133.957 83.1369 134.116C83.0712 134.275 82.9746 134.42 82.8526 134.542C82.7306 134.663 82.5857 134.76 82.4262 134.825C82.2667 134.891 82.0958 134.924 81.9233 134.924ZM98.0783 132.051C97.7718 132.057 97.4736 132.152 97.2211 132.326C96.9687 132.499 96.7733 132.743 96.6595 133.028C96.5457 133.312 96.5186 133.623 96.5815 133.922C96.6445 134.222 96.7947 134.496 97.0132 134.711C97.2318 134.925 97.5091 135.07 97.8102 135.128C98.1112 135.186 98.4227 135.154 98.7055 135.036C98.9883 134.917 99.2298 134.718 99.3996 134.464C99.5695 134.209 99.6601 133.91 99.6601 133.604C99.6602 133.398 99.6193 133.195 99.5398 133.005C99.4603 132.815 99.3438 132.643 99.1971 132.499C99.0505 132.354 98.8765 132.24 98.6853 132.164C98.4941 132.087 98.2896 132.049 98.0835 132.051H98.0783ZM98.0783 134.924C97.8203 134.923 97.5683 134.845 97.3542 134.702C97.1401 134.558 96.9734 134.354 96.8751 134.116C96.7768 133.878 96.7514 133.616 96.802 133.364C96.8526 133.111 96.9769 132.879 97.1594 132.697C97.3419 132.515 97.5743 132.391 97.8273 132.341C98.0803 132.29 98.3427 132.316 98.5813 132.414C98.8199 132.512 99.0241 132.678 99.1681 132.892C99.312 133.105 99.3894 133.357 99.3905 133.614C99.3911 133.786 99.3578 133.956 99.2925 134.115C99.2271 134.274 99.1309 134.418 99.0095 134.54C98.8881 134.661 98.7438 134.758 98.5849 134.824C98.426 134.89 98.2556 134.924 98.0835 134.924H98.0783ZM114.228 132.051C113.921 132.051 113.62 132.142 113.364 132.313C113.108 132.484 112.909 132.726 112.791 133.01C112.673 133.294 112.642 133.606 112.702 133.907C112.762 134.208 112.91 134.485 113.128 134.702C113.346 134.919 113.623 135.067 113.925 135.127C114.227 135.187 114.539 135.156 114.824 135.038C115.108 134.921 115.351 134.722 115.522 134.466C115.693 134.211 115.784 133.911 115.784 133.604C115.784 133.193 115.621 132.799 115.33 132.508C115.04 132.217 114.645 132.053 114.233 132.051H114.228ZM114.228 134.924C113.97 134.923 113.718 134.845 113.504 134.702C113.29 134.558 113.123 134.354 113.025 134.116C112.927 133.878 112.901 133.616 112.952 133.364C113.002 133.111 113.127 132.879 113.309 132.697C113.492 132.515 113.724 132.391 113.977 132.341C114.23 132.29 114.493 132.316 114.731 132.414C114.97 132.512 115.174 132.678 115.318 132.892C115.462 133.105 115.539 133.357 115.54 133.614C115.541 133.786 115.508 133.956 115.442 134.115C115.377 134.274 115.281 134.418 115.159 134.54C115.038 134.661 114.894 134.758 114.735 134.824C114.576 134.89 114.405 134.924 114.233 134.924H114.228ZM130.383 132.051C130.077 132.057 129.779 132.152 129.526 132.326C129.274 132.499 129.078 132.743 128.965 133.028C128.851 133.312 128.824 133.623 128.887 133.922C128.949 134.222 129.1 134.496 129.318 134.711C129.537 134.925 129.814 135.07 130.115 135.128C130.416 135.186 130.728 135.154 131.01 135.036C131.293 134.917 131.535 134.718 131.705 134.464C131.874 134.209 131.965 133.91 131.965 133.604C131.965 133.398 131.924 133.195 131.845 133.005C131.765 132.815 131.649 132.643 131.502 132.499C131.355 132.354 131.181 132.24 130.99 132.164C130.799 132.087 130.595 132.049 130.389 132.051H130.383ZM130.383 134.924C130.125 134.923 129.873 134.845 129.659 134.702C129.445 134.558 129.278 134.354 129.18 134.116C129.082 133.878 129.056 133.616 129.107 133.364C129.158 133.111 129.282 132.879 129.464 132.697C129.647 132.515 129.879 132.391 130.132 132.341C130.385 132.29 130.648 132.316 130.886 132.414C131.125 132.512 131.329 132.678 131.473 132.892C131.617 133.105 131.694 133.357 131.695 133.614C131.696 133.786 131.663 133.956 131.597 134.115C131.532 134.274 131.436 134.418 131.314 134.54C131.193 134.661 131.049 134.758 130.89 134.824C130.731 134.89 130.561 134.924 130.389 134.924H130.383ZM75.3575 120.294L75.1553 120.847C75.141 121.086 75.0601 121.315 74.9219 121.51L74.7248 122.069C74.9435 121.925 75.1229 121.729 75.2469 121.498C75.371 121.268 75.4357 121.011 75.4353 120.749C75.434 120.595 75.4095 120.441 75.3627 120.294H75.3575ZM90.0034 119.197C89.6957 119.197 89.3949 119.288 89.139 119.458C88.8831 119.629 88.6837 119.871 88.566 120.155C88.4482 120.439 88.4174 120.751 88.4774 121.052C88.5375 121.353 88.6856 121.63 88.9032 121.847C89.1208 122.064 89.3981 122.212 89.6999 122.272C90.0017 122.332 90.3145 122.301 90.5988 122.183C90.8831 122.066 91.1261 121.867 91.2971 121.612C91.468 121.356 91.5593 121.056 91.5593 120.749C91.5593 120.338 91.3961 119.944 91.1054 119.653C90.8147 119.362 90.4203 119.198 90.0086 119.197H90.0034ZM90.0034 122.069C89.7454 122.068 89.4934 121.991 89.2793 121.847C89.0652 121.703 88.8984 121.499 88.8002 121.261C88.7019 121.023 88.6764 120.761 88.727 120.509C88.7776 120.257 88.902 120.025 89.0845 119.843C89.2669 119.66 89.4993 119.536 89.7524 119.486C90.0054 119.435 90.2677 119.461 90.5063 119.559C90.7449 119.657 90.9491 119.823 91.0931 120.037C91.2371 120.251 91.3145 120.502 91.3155 120.76C91.3162 120.931 91.2829 121.101 91.2175 121.26C91.1522 121.419 91.056 121.563 90.9346 121.685C90.8131 121.807 90.6688 121.903 90.5099 121.969C90.351 122.035 90.1807 122.069 90.0086 122.069H90.0034ZM106.153 119.197C105.847 119.202 105.549 119.297 105.296 119.471C105.044 119.644 104.848 119.889 104.734 120.173C104.621 120.457 104.594 120.768 104.656 121.068C104.719 121.367 104.87 121.641 105.088 121.856C105.307 122.07 105.584 122.216 105.885 122.273C106.186 122.331 106.498 122.299 106.78 122.181C107.063 122.063 107.305 121.864 107.475 121.609C107.644 121.354 107.735 121.055 107.735 120.749C107.735 120.544 107.694 120.34 107.615 120.15C107.535 119.96 107.419 119.788 107.272 119.644C107.125 119.5 106.951 119.386 106.76 119.309C106.569 119.232 106.365 119.194 106.158 119.197H106.153ZM106.153 122.069C105.895 122.068 105.643 121.991 105.429 121.847C105.215 121.703 105.048 121.499 104.95 121.261C104.852 121.023 104.826 120.761 104.877 120.509C104.928 120.257 105.052 120.025 105.234 119.843C105.417 119.66 105.649 119.536 105.902 119.486C106.155 119.435 106.418 119.461 106.656 119.559C106.895 119.657 107.099 119.823 107.243 120.037C107.387 120.251 107.464 120.502 107.465 120.76C107.466 120.931 107.433 121.101 107.367 121.26C107.302 121.419 107.206 121.563 107.084 121.685C106.963 121.807 106.819 121.903 106.66 121.969C106.501 122.035 106.331 122.069 106.158 122.069H106.153ZM122.303 119.197C121.995 119.197 121.695 119.288 121.439 119.458C121.183 119.629 120.984 119.871 120.866 120.155C120.748 120.439 120.717 120.751 120.777 121.052C120.837 121.353 120.985 121.63 121.203 121.847C121.421 122.064 121.698 122.212 122 122.272C122.301 122.332 122.614 122.301 122.899 122.183C123.183 122.066 123.426 121.867 123.597 121.612C123.768 121.356 123.859 121.056 123.859 120.749C123.859 120.338 123.696 119.944 123.405 119.653C123.115 119.362 122.72 119.198 122.308 119.197H122.303ZM122.303 122.069C122.045 122.068 121.793 121.991 121.579 121.847C121.365 121.703 121.198 121.499 121.1 121.261C121.002 121.023 120.976 120.761 121.027 120.509C121.077 120.257 121.202 120.025 121.384 119.843C121.567 119.66 121.799 119.536 122.052 119.486C122.305 119.435 122.568 119.461 122.806 119.559C123.045 119.657 123.249 119.823 123.393 120.037C123.537 120.251 123.614 120.502 123.615 120.76C123.616 120.931 123.583 121.101 123.517 121.26C123.452 121.419 123.356 121.563 123.234 121.685C123.113 121.807 122.969 121.903 122.81 121.969C122.651 122.035 122.48 122.069 122.308 122.069H122.303ZM66.0794 158.015C66.0794 158.103 66.0794 158.191 66.0379 158.284C66.2081 158.301 66.3734 158.351 66.5242 158.432C66.675 158.512 66.8083 158.622 66.9167 158.754C67.0251 158.886 67.1063 159.038 67.1557 159.202C67.2051 159.365 67.2218 159.537 67.2048 159.707C67.1877 159.877 67.1374 160.042 67.0565 160.192C66.9756 160.343 66.8658 160.476 66.7333 160.584C66.6009 160.692 66.4484 160.773 66.2846 160.822C66.1208 160.872 65.9488 160.888 65.7786 160.871H65.6437C65.6437 160.959 65.6437 161.047 65.6074 161.135H65.7786C66.1912 161.175 66.6028 161.05 66.9228 160.787C67.2428 160.524 67.4449 160.144 67.4848 159.733C67.5247 159.321 67.3991 158.91 67.1355 158.591C66.8719 158.272 66.492 158.07 66.0794 158.03V158.015ZM81.9285 158.015C81.6219 158.02 81.3237 158.115 81.0712 158.289C80.8188 158.462 80.6234 158.707 80.5096 158.991C80.3959 159.275 80.3687 159.586 80.4316 159.886C80.4946 160.185 80.6448 160.459 80.8634 160.674C81.0819 160.888 81.3592 161.034 81.6603 161.091C81.9613 161.149 82.2728 161.117 82.5556 160.999C82.8384 160.881 83.0799 160.682 83.2497 160.427C83.4196 160.172 83.5102 159.873 83.5103 159.567C83.5138 159.358 83.4751 159.151 83.3965 158.958C83.318 158.764 83.2011 158.589 83.053 158.441C82.9048 158.294 82.7284 158.178 82.5343 158.1C82.3402 158.022 82.1324 157.985 81.9233 157.989L81.9285 158.015ZM81.9285 160.887C81.6704 160.886 81.4185 160.809 81.2043 160.665C80.9902 160.521 80.8235 160.317 80.7252 160.079C80.6269 159.841 80.6015 159.579 80.6521 159.327C80.7027 159.074 80.8271 158.843 81.0095 158.66C81.192 158.478 81.4244 158.354 81.6774 158.304C81.9305 158.253 82.1928 158.279 82.4314 158.377C82.67 158.475 82.8742 158.641 83.0182 158.855C83.1622 159.069 83.2395 159.32 83.2406 159.577C83.2351 159.922 83.0936 160.25 82.8468 160.49C82.6001 160.73 82.2681 160.864 81.9233 160.861L81.9285 160.887ZM98.0835 158.015C97.777 158.02 97.4787 158.115 97.2263 158.289C96.9739 158.462 96.7785 158.707 96.6647 158.991C96.5509 159.275 96.5238 159.586 96.5867 159.886C96.6497 160.185 96.7998 160.459 97.0184 160.674C97.237 160.888 97.5143 161.034 97.8153 161.091C98.1164 161.149 98.4279 161.117 98.7107 160.999C98.9935 160.881 99.235 160.682 99.4048 160.427C99.5747 160.172 99.6653 159.873 99.6653 159.567C99.6688 159.359 99.6303 159.152 99.5521 158.959C99.4738 158.766 99.3574 158.59 99.2099 158.443C99.0623 158.296 98.8865 158.18 98.693 158.102C98.4995 158.024 98.2922 157.985 98.0835 157.989V158.015ZM98.0835 160.887C97.8255 160.886 97.5735 160.809 97.3594 160.665C97.1453 160.521 96.9786 160.317 96.8803 160.079C96.782 159.841 96.7566 159.579 96.8072 159.327C96.8578 159.074 96.9821 158.843 97.1646 158.66C97.3471 158.478 97.5795 158.354 97.8325 158.304C98.0855 158.253 98.3479 158.279 98.5865 158.377C98.8251 158.475 99.0292 158.641 99.1732 158.855C99.3172 159.069 99.3946 159.32 99.3957 159.577C99.3902 159.921 99.2494 160.248 99.0038 160.488C98.7581 160.728 98.4275 160.862 98.0835 160.861V160.887ZM114.233 158.015C113.926 158.015 113.625 158.106 113.369 158.276C113.113 158.447 112.914 158.689 112.796 158.973C112.678 159.257 112.647 159.569 112.707 159.87C112.767 160.171 112.916 160.448 113.133 160.665C113.351 160.882 113.628 161.03 113.93 161.09C114.232 161.15 114.545 161.119 114.829 161.001C115.113 160.884 115.356 160.685 115.527 160.43C115.698 160.174 115.789 159.874 115.789 159.567C115.793 159.361 115.755 159.156 115.678 158.965C115.602 158.774 115.488 158.599 115.343 158.453C115.198 158.306 115.025 158.189 114.835 158.109C114.644 158.03 114.44 157.989 114.233 157.989V158.015ZM114.233 160.887C113.975 160.886 113.723 160.809 113.509 160.665C113.295 160.521 113.128 160.317 113.03 160.079C112.932 159.841 112.906 159.579 112.957 159.327C113.008 159.074 113.132 158.843 113.314 158.66C113.497 158.478 113.729 158.354 113.982 158.304C114.235 158.253 114.498 158.279 114.736 158.377C114.975 158.475 115.179 158.641 115.323 158.855C115.467 159.069 115.545 159.32 115.546 159.577C115.54 159.921 115.399 160.248 115.154 160.488C114.908 160.728 114.577 160.862 114.233 160.861V160.887ZM130.389 158.015C130.082 158.02 129.784 158.115 129.531 158.289C129.279 158.462 129.083 158.707 128.97 158.991C128.856 159.275 128.829 159.586 128.892 159.886C128.955 160.185 129.105 160.459 129.323 160.674C129.542 160.888 129.819 161.034 130.12 161.091C130.421 161.149 130.733 161.117 131.016 160.999C131.298 160.881 131.54 160.682 131.71 160.427C131.88 160.172 131.97 159.873 131.97 159.567C131.974 159.359 131.935 159.152 131.857 158.959C131.779 158.766 131.662 158.59 131.515 158.443C131.367 158.296 131.191 158.18 130.998 158.102C130.804 158.024 130.597 157.985 130.389 157.989V158.015ZM130.389 160.887C130.13 160.886 129.879 160.809 129.664 160.665C129.45 160.521 129.284 160.317 129.185 160.079C129.087 159.841 129.062 159.579 129.112 159.327C129.163 159.074 129.287 158.843 129.47 158.66C129.652 158.478 129.884 158.354 130.137 158.304C130.391 158.253 130.653 158.279 130.891 158.377C131.13 158.475 131.334 158.641 131.478 158.855C131.622 159.069 131.7 159.32 131.701 159.577C131.695 159.921 131.554 160.248 131.309 160.488C131.063 160.728 130.732 160.862 130.389 160.861V160.887ZM73.8587 145.16C73.5521 145.165 73.2539 145.26 73.0015 145.434C72.7491 145.608 72.5537 145.852 72.4399 146.136C72.3261 146.42 72.299 146.731 72.3619 147.031C72.4248 147.33 72.575 147.604 72.7936 147.819C73.0122 148.033 73.2894 148.179 73.5905 148.237C73.8916 148.294 74.2031 148.262 74.4859 148.144C74.7687 148.026 75.0101 147.827 75.18 147.572C75.3498 147.317 75.4405 147.018 75.4405 146.712C75.444 146.504 75.4053 146.296 75.3268 146.103C75.2482 145.91 75.1314 145.734 74.9832 145.587C74.8351 145.439 74.6587 145.323 74.4646 145.245C74.2705 145.168 74.0626 145.13 73.8535 145.134L73.8587 145.16ZM73.8587 148.032C73.6007 148.031 73.3487 147.954 73.1346 147.81C72.9204 147.666 72.7537 147.463 72.6555 147.225C72.5572 146.986 72.5317 146.725 72.5823 146.472C72.6329 146.22 72.7573 145.988 72.9398 145.806C73.1222 145.624 73.3546 145.5 73.6077 145.449C73.8607 145.399 74.123 145.424 74.3616 145.522C74.6002 145.62 74.8044 145.786 74.9484 146C75.0924 146.214 75.1698 146.465 75.1708 146.723C75.1653 147.067 75.0238 147.395 74.7771 147.635C74.5303 147.876 74.1984 148.009 73.8535 148.006L73.8587 148.032ZM90.0138 145.16C89.7061 145.16 89.4052 145.251 89.1494 145.421C88.8935 145.592 88.6941 145.835 88.5763 146.118C88.4586 146.402 88.4278 146.714 88.4878 147.015C88.5478 147.316 88.696 147.593 88.9136 147.81C89.1312 148.027 89.4084 148.175 89.7102 148.235C90.012 148.295 90.3249 148.264 90.6092 148.147C90.8935 148.029 91.1365 147.83 91.3074 147.575C91.4784 147.32 91.5696 147.019 91.5696 146.712C91.5731 146.506 91.5352 146.301 91.4583 146.109C91.3813 145.917 91.2668 145.743 91.1214 145.596C90.976 145.449 90.8027 145.332 90.6116 145.253C90.4206 145.174 90.2155 145.133 90.0086 145.134L90.0138 145.16ZM90.0138 148.032C89.7557 148.031 89.5038 147.954 89.2896 147.81C89.0755 147.666 88.9088 147.463 88.8105 147.225C88.7123 146.986 88.6868 146.725 88.7374 146.472C88.788 146.22 88.9124 145.988 89.0948 145.806C89.2773 145.624 89.5097 145.5 89.7627 145.449C90.0158 145.399 90.2781 145.424 90.5167 145.522C90.7553 145.62 90.9595 145.786 91.1035 146C91.2475 146.214 91.3249 146.465 91.3259 146.723C91.3204 147.067 91.1789 147.395 90.9322 147.635C90.6854 147.876 90.3534 148.009 90.0086 148.006L90.0138 148.032ZM106.164 145.16C105.857 145.165 105.559 145.26 105.306 145.434C105.054 145.608 104.859 145.852 104.745 146.136C104.631 146.42 104.604 146.731 104.667 147.031C104.73 147.33 104.88 147.604 105.099 147.819C105.317 148.033 105.594 148.179 105.895 148.237C106.197 148.294 106.508 148.262 106.791 148.144C107.074 148.026 107.315 147.827 107.485 147.572C107.655 147.317 107.745 147.018 107.745 146.712C107.749 146.504 107.71 146.296 107.632 146.103C107.553 145.91 107.436 145.734 107.288 145.587C107.14 145.439 106.964 145.323 106.77 145.245C106.575 145.168 106.368 145.13 106.158 145.134L106.164 145.16ZM106.164 148.032C105.906 148.031 105.654 147.954 105.44 147.81C105.225 147.666 105.059 147.463 104.96 147.225C104.862 146.986 104.837 146.725 104.887 146.472C104.938 146.22 105.062 145.988 105.245 145.806C105.427 145.624 105.66 145.5 105.913 145.449C106.166 145.399 106.428 145.424 106.667 145.522C106.905 145.62 107.109 145.786 107.253 146C107.397 146.214 107.475 146.465 107.476 146.723C107.47 147.067 107.329 147.395 107.082 147.635C106.835 147.876 106.503 148.009 106.158 148.006L106.164 148.032ZM122.314 145.16C122.006 145.16 121.705 145.251 121.449 145.421C121.193 145.592 120.994 145.835 120.876 146.118C120.758 146.402 120.728 146.714 120.788 147.015C120.848 147.316 120.996 147.593 121.213 147.81C121.431 148.027 121.708 148.175 122.01 148.235C122.312 148.295 122.625 148.264 122.909 148.147C123.193 148.029 123.436 147.83 123.607 147.575C123.778 147.32 123.869 147.019 123.869 146.712C123.873 146.506 123.835 146.301 123.758 146.109C123.681 145.917 123.567 145.743 123.421 145.596C123.276 145.449 123.103 145.332 122.911 145.253C122.72 145.174 122.515 145.133 122.308 145.134L122.314 145.16ZM122.314 148.032C122.056 148.031 121.804 147.954 121.589 147.81C121.375 147.666 121.209 147.463 121.11 147.225C121.012 146.986 120.987 146.725 121.037 146.472C121.088 146.22 121.212 145.988 121.395 145.806C121.577 145.624 121.809 145.5 122.063 145.449C122.316 145.399 122.578 145.424 122.816 145.522C123.055 145.62 123.259 145.786 123.403 146C123.547 146.214 123.625 146.465 123.626 146.723C123.62 147.067 123.479 147.395 123.232 147.635C122.985 147.876 122.653 148.009 122.308 148.006L122.314 148.032Z" fill="white"/>
    <path d="M118.585 137.19C115.016 137.578 111.482 138.23 108.01 139.141C106.288 139.617 104.603 140.176 102.917 140.761C102.082 141.056 101.237 141.32 100.387 141.584C99.5051 141.882 98.591 142.073 97.6638 142.153C97.6473 142.153 97.6315 142.16 97.6198 142.171C97.6081 142.183 97.6016 142.199 97.6016 142.215C97.6016 142.232 97.6081 142.247 97.6198 142.259C97.6315 142.271 97.6473 142.277 97.6638 142.277C98.5432 142.301 99.4233 142.269 100.298 142.179C101.142 142.06 101.977 141.887 102.798 141.661C104.546 141.196 106.273 140.626 108.015 140.161C111.532 139.183 115.048 138.21 118.632 137.485C118.798 137.449 118.746 137.17 118.585 137.19Z" fill="#030712"/>
    <path d="M127.479 140.171C124.528 139.923 121.566 139.84 118.606 139.923C117.128 139.969 115.66 140.104 114.187 140.275C113.482 140.357 112.782 140.451 112.081 140.554C111.381 140.658 110.557 140.885 109.784 140.989C109.706 140.989 109.706 141.123 109.784 141.113C110.515 141.04 111.262 141.087 111.993 141.056L114.208 140.953C115.681 140.885 117.159 140.839 118.632 140.761C121.588 140.601 124.528 140.471 127.485 140.414C127.65 140.414 127.635 140.187 127.479 140.171Z" fill="#030712"/>
    <path d="M84.4805 96.4369C63.7357 117.002 49.1468 133.542 49.7329 141.196C50.9931 158.346 60.738 161.306 62.325 160.685C79.1232 154.113 87.9657 122.545 94.2255 102.621C100.423 82.8472 90.4188 90.5632 84.4805 96.4369Z" fill="#D3766A"/>
    <path d="M55.0586 124.718L83.0071 137.977C83.0071 137.977 92.9854 114.311 96.092 99.6816C99.1985 85.0517 93.4159 85.7814 81.2438 97.6892C69.0718 109.597 55.0586 124.718 55.0586 124.718Z" fill="#10B981"/>
    <path d="M81.9233 106.114C81.6167 106.119 81.3185 106.215 81.0661 106.388C80.8137 106.562 80.6183 106.806 80.5045 107.09C80.3907 107.374 80.3636 107.686 80.4265 107.985C80.4894 108.285 80.6396 108.559 80.8582 108.773C81.0768 108.988 81.354 109.133 81.6551 109.191C81.9562 109.249 82.2677 109.217 82.5505 109.098C82.8333 108.98 83.0747 108.781 83.2446 108.526C83.4144 108.272 83.5051 107.973 83.5051 107.667C83.5051 107.461 83.464 107.257 83.3842 107.066C83.3044 106.876 83.1875 106.704 83.0403 106.56C82.893 106.415 82.7184 106.301 82.5267 106.225C82.3349 106.148 82.1298 106.111 81.9233 106.114ZM81.9233 108.986C81.6653 108.985 81.4133 108.908 81.1992 108.764C80.9851 108.621 80.8183 108.417 80.7201 108.179C80.6218 107.941 80.5963 107.679 80.6469 107.426C80.6975 107.174 80.8219 106.942 81.0044 106.76C81.1868 106.578 81.4192 106.454 81.6723 106.403C81.9253 106.353 82.1876 106.378 82.4262 106.476C82.6648 106.574 82.869 106.741 83.013 106.954C83.157 107.168 83.2344 107.42 83.2354 107.677C83.2361 107.849 83.2026 108.02 83.1369 108.179C83.0712 108.338 82.9746 108.483 82.8526 108.604C82.7307 108.726 82.5857 108.822 82.4262 108.888C82.2667 108.954 82.0958 108.987 81.9233 108.986ZM90.0034 93.2593C89.6957 93.2593 89.3949 93.3504 89.139 93.521C88.8832 93.6916 88.6838 93.934 88.566 94.2177C88.4482 94.5014 88.4174 94.8136 88.4775 95.1147C88.5375 95.4159 88.6857 95.6925 88.9033 95.9096C89.1209 96.1268 89.3981 96.2746 89.6999 96.3345C90.0017 96.3944 90.3146 96.3637 90.5988 96.2462C90.8831 96.1287 91.1261 95.9297 91.2971 95.6744C91.4681 95.4191 91.5593 95.1189 91.5593 94.8118C91.5593 94.401 91.3961 94.0069 91.1054 93.7159C90.8148 93.4249 90.4204 93.2607 90.0086 93.2593H90.0034ZM90.0034 96.1315C89.7454 96.1305 89.4934 96.0532 89.2793 95.9095C89.0652 95.7659 88.8985 95.5621 88.8002 95.324C88.7019 95.086 88.6765 94.8242 88.7271 94.5717C88.7777 94.3192 88.902 94.0873 89.0845 93.9052C89.267 93.7232 89.4994 93.5991 89.7524 93.5486C90.0054 93.4981 90.2678 93.5235 90.5064 93.6215C90.745 93.7196 90.9491 93.886 91.0931 94.0996C91.2371 94.3133 91.3145 94.5647 91.3156 94.8222C91.3162 94.9939 91.2829 95.164 91.2176 95.3228C91.1522 95.4817 91.056 95.626 90.9346 95.7477C90.8132 95.8693 90.6689 95.9659 90.51 96.0317C90.3511 96.0976 90.1807 96.1315 90.0086 96.1315H90.0034ZM81.9233 132.051C81.6167 132.057 81.3185 132.152 81.0661 132.326C80.8137 132.499 80.6183 132.743 80.5045 133.028C80.3907 133.312 80.3636 133.623 80.4265 133.922C80.4894 134.222 80.6396 134.496 80.8582 134.711C81.0768 134.925 81.354 135.07 81.6551 135.128C81.9562 135.186 82.2677 135.154 82.5505 135.036C82.8333 134.917 83.0747 134.718 83.2446 134.464C83.4144 134.209 83.5051 133.91 83.5051 133.604C83.5051 133.398 83.464 133.194 83.3842 133.004C83.3044 132.814 83.1875 132.641 83.0403 132.497C82.893 132.352 82.7184 132.239 82.5267 132.162C82.3349 132.086 82.1298 132.048 81.9233 132.051ZM81.9233 134.924C81.6653 134.923 81.4133 134.845 81.1992 134.702C80.9851 134.558 80.8183 134.354 80.7201 134.116C80.6218 133.878 80.5963 133.616 80.6469 133.364C80.6975 133.111 80.8219 132.879 81.0044 132.697C81.1868 132.515 81.4192 132.391 81.6723 132.341C81.9253 132.29 82.1876 132.316 82.4262 132.414C82.6648 132.512 82.869 132.678 83.013 132.892C83.157 133.105 83.2344 133.357 83.2354 133.614C83.2361 133.786 83.2026 133.957 83.1369 134.116C83.0712 134.275 82.9746 134.42 82.8526 134.542C82.7307 134.663 82.5857 134.76 82.4262 134.825C82.2667 134.891 82.0958 134.924 81.9233 134.924ZM59.2077 120.273L58.9898 120.501C58.9978 120.587 58.9978 120.673 58.9898 120.759C58.9898 121.107 58.8516 121.44 58.6055 121.685C58.3595 121.931 58.0257 122.069 57.6777 122.069H57.5066C57.4288 122.146 57.3614 122.224 57.2939 122.296C57.4187 122.332 57.548 122.35 57.6777 122.348C57.8842 122.348 58.0887 122.307 58.2792 122.228C58.4697 122.148 58.6423 122.031 58.7872 121.884C58.932 121.737 59.046 121.563 59.1227 121.372C59.1993 121.181 59.237 120.976 59.2336 120.77C59.2523 120.604 59.2436 120.436 59.2077 120.273ZM73.8535 119.197C73.547 119.202 73.2488 119.297 72.9963 119.471C72.7439 119.644 72.5485 119.889 72.4347 120.173C72.3209 120.457 72.2938 120.768 72.3567 121.068C72.4197 121.367 72.5699 121.641 72.7884 121.856C73.007 122.07 73.2843 122.216 73.5854 122.273C73.8864 122.331 74.1979 122.299 74.4807 122.181C74.7635 122.063 75.005 121.864 75.1748 121.609C75.3447 121.354 75.4353 121.055 75.4353 120.749C75.4354 120.543 75.3943 120.339 75.3145 120.149C75.2347 119.959 75.1177 119.787 74.9705 119.642C74.8233 119.498 74.6487 119.384 74.4569 119.307C74.2651 119.231 74.06 119.193 73.8535 119.197ZM73.8535 122.069C73.5955 122.068 73.3435 121.991 73.1294 121.847C72.9153 121.703 72.7486 121.499 72.6503 121.261C72.552 121.023 72.5266 120.761 72.5772 120.509C72.6278 120.256 72.7521 120.025 72.9346 119.843C73.1171 119.66 73.3495 119.536 73.6025 119.486C73.8555 119.435 74.1179 119.461 74.3565 119.559C74.5951 119.657 74.7992 119.823 74.9432 120.037C75.0872 120.251 75.1646 120.502 75.1657 120.759C75.1663 120.932 75.1329 121.102 75.0672 121.261C75.0015 121.42 74.9049 121.565 74.7829 121.687C74.6609 121.809 74.516 121.905 74.3565 121.971C74.197 122.036 74.0261 122.069 73.8535 122.069ZM90.0086 119.197C89.596 119.197 89.2002 119.36 88.9085 119.651C88.6167 119.942 88.4528 120.337 88.4528 120.749C88.4455 121.023 88.509 121.294 88.6371 121.536C88.7651 121.778 88.9535 121.983 89.184 122.131L89.2774 121.872C89.0989 121.751 88.9527 121.588 88.8515 121.398C88.7503 121.208 88.6971 120.996 88.6965 120.78C88.6979 120.437 88.8349 120.109 89.0778 119.867C89.3206 119.625 89.6496 119.488 89.9931 119.486H90.1331C90.1642 119.404 90.1901 119.321 90.2213 119.233C90.1517 119.214 90.0805 119.202 90.0086 119.197Z" fill="white"/>
    <path d="M60.4219 120.247C71.2767 126.747 81.6854 130.794 83.7599 131.855C83.8584 131.901 83.9311 131.741 83.8273 131.694C81.7165 130.763 70.1979 124.449 60.4893 120.071C60.3856 120.019 60.3182 120.185 60.4219 120.247Z" fill="#030712"/>
    <path d="M81.208 137.04C81.7763 137.208 82.3339 137.411 82.8779 137.646C85.0873 132.336 84.7035 133.547 86.9647 128.263C88.0745 125.672 89.1827 123.085 90.2891 120.501C91.4352 117.805 92.4361 115.01 93.7275 112.381C93.7368 112.37 93.7496 112.361 93.7639 112.358C93.7783 112.354 93.7934 112.356 93.8069 112.362C93.8205 112.367 93.8317 112.378 93.8389 112.39C93.8461 112.403 93.8489 112.418 93.8468 112.433C93.1085 114.955 92.243 117.439 91.2537 119.875C91.4715 119.492 91.6738 119.098 91.9123 118.726C92.431 117.887 92.9496 117.049 93.4371 116.169C93.5097 116.035 93.7327 116.128 93.6601 116.262C93.2141 117.101 92.8303 117.955 92.4517 118.85C92.0731 119.745 91.6375 120.558 91.1966 121.401C90.7558 122.245 90.2942 122.99 89.8119 123.766L89.6408 124.056C89.0444 125.608 88.4687 127.135 87.836 128.657C85.6318 133.992 83.2617 138.23 83.1684 138.215C82.4678 137.938 81.7898 137.608 81.1406 137.226C81.068 137.138 81.1354 137.04 81.208 137.04Z" fill="#030712"/>
    <path d="M89.4436 64.6879C90.2317 65.1785 91.1438 65.4342 92.0726 65.4249C93.0014 65.4157 93.9082 65.1418 94.6863 64.6356C95.4644 64.1294 96.0814 63.412 96.4646 62.5677C96.8479 61.7234 96.9814 60.7874 96.8495 59.87C98.6388 60.7601 100.786 60.7704 102.285 59.1921C103.783 57.6137 103.695 55.2073 102.362 53.4995C103.4 55.1762 103.509 57.4222 102.062 58.9126C100.822 60.1857 99.2507 60.284 97.7623 59.7975C98.5019 59.7972 99.2336 59.645 99.9117 59.3503C100.59 59.0556 101.2 58.6248 101.704 58.0846C102.243 57.4654 102.588 56.7013 102.695 55.8877C102.802 55.0741 102.667 54.247 102.305 53.5099C103.996 52.6819 105.516 51.207 105.848 49.287C105.997 48.4909 105.911 47.6686 105.599 46.9205C105.288 46.1725 104.765 45.531 104.095 45.0745C104.828 44.5343 105.388 43.7914 105.703 42.9375C106.018 42.0837 106.076 41.1564 105.869 40.2702C105.663 39.3839 105.2 38.5775 104.539 37.9506C103.878 37.3238 103.047 36.9038 102.15 36.7427C102.637 36.3028 103.005 35.7478 103.221 35.1288C103.437 34.5098 103.494 33.8465 103.386 33.2C103.278 32.5534 103.009 31.9443 102.603 31.4285C102.198 30.9127 101.669 30.5068 101.066 30.2481C101.371 29.846 101.554 29.3649 101.592 28.862C101.631 28.3592 101.524 27.8559 101.284 27.4121C100.765 26.3771 99.6553 25.7613 98.5558 25.4042C98.6055 24.8797 98.5229 24.3511 98.3155 23.8666C98.108 23.3821 97.7823 22.9571 97.3681 22.6304C96.8209 22.2286 96.1482 22.0345 95.4705 22.0828C94.7929 22.1312 94.1547 22.4189 93.6704 22.8943C92.5605 21.3729 91.1395 19.8825 89.231 19.484C87.6751 19.1528 85.8755 19.6341 84.9679 20.9951C84.4144 20.4169 83.7443 19.9623 83.0019 19.6614C82.2595 19.3605 81.4616 19.2201 80.6608 19.2495C79.86 19.2788 79.0746 19.4772 78.3562 19.8317C77.6379 20.1861 77.0031 20.6884 76.4936 21.3056C75.883 20.9681 75.1943 20.7963 74.4964 20.8072C73.7984 20.8181 73.1155 21.0113 72.5158 21.3677C71.6765 21.8253 70.9638 22.4831 70.4413 23.2825C69.8739 23.0191 69.2378 22.9409 68.6233 23.0589C68.0089 23.1769 67.4473 23.4851 67.0184 23.9397C66.6314 24.3758 66.3461 24.892 66.1829 25.4513C66.0197 26.0105 65.9827 26.5989 66.0745 27.1741C65.9198 27.4768 65.6981 27.7405 65.4262 27.9452C64.7487 28.4639 64.2101 29.1416 63.8581 29.918C63.5062 30.6944 63.3518 31.5455 63.4088 32.3957C62.9407 32.5765 62.5165 32.8546 62.1644 33.2116C61.8123 33.5685 61.5404 33.9962 61.3667 34.4661C61.1931 34.936 61.1216 35.4375 61.1572 35.9371C61.1927 36.4367 61.3344 36.923 61.5728 37.3637C60.7579 38.0156 60.2325 38.9611 60.1103 39.9962C59.988 41.0313 60.2786 42.0728 60.9194 42.8959C60.3133 43.4656 59.8374 44.1589 59.5242 44.9287C59.211 45.6986 59.0677 46.5267 59.1042 47.3567C59.1664 48.6453 59.7888 50.0529 61.049 50.4618C60.3748 51.2173 60.6964 52.4386 61.4017 53.1321C61.6723 53.3911 61.9716 53.6185 62.2937 53.81C62.7322 54.0045 63.1353 54.2704 63.4866 54.5966C63.777 54.964 63.7355 55.5074 63.834 55.937C63.9083 56.2488 64.0143 56.5523 64.1504 56.8426C64.6748 57.9159 65.5511 58.7781 66.634 59.2864C67.7168 59.7946 68.9412 59.9184 70.1042 59.6371C70.4983 61.3086 72.1475 62.2246 73.7345 62.4989C74.2592 62.5831 74.7902 62.6212 75.3215 62.6128C75.7953 62.5754 76.2688 62.6877 76.6751 62.9336C76.9344 63.1044 77.1522 63.3373 77.4116 63.508C78.2932 64.1032 79.3097 64.0255 80.2951 63.803C81.5087 68.2484 87.1098 68.1966 89.4436 64.6879ZM66.9302 24.6538C67.3028 24.1202 67.8322 23.7152 68.4453 23.4946C69.0584 23.2739 69.725 23.2487 70.3531 23.4222L70.2753 23.5619C70.2753 23.5619 69.8449 23.5619 69.6322 23.6033C69.2493 23.66 68.877 23.7734 68.5276 23.9397C67.7901 24.2794 67.1708 24.8307 66.7487 25.5233C66.5701 25.8344 66.4307 26.1664 66.3338 26.5117L66.2871 26.6411C66.3112 25.9317 66.534 25.2433 66.9302 24.6538ZM97.28 23.7068C96.8358 23.273 96.2688 22.9857 95.6557 22.8839C95.0426 22.7821 94.4129 22.8706 93.8519 23.1376L93.7896 23.0548C94.858 22.3199 96.0405 21.9421 97.2281 22.8633C97.5916 23.1488 97.8732 23.5251 98.0444 23.9539C98.2156 24.3828 98.2703 24.8492 98.2031 25.3059C98.054 24.6962 97.7337 24.1415 97.28 23.7068ZM80.4922 63.7823H80.5337C81.2567 65.0046 82.4287 65.8975 83.8009 66.2715C85.173 66.6454 86.6372 66.4709 87.8825 65.7851C85.2376 67.4825 81.9547 67.4307 80.4922 63.7823Z" fill="#030712"/>
    <path d="M94.3705 93.4353C94.7854 94.786 102.259 105.509 109.509 103.625C112.553 102.838 109.509 91.091 109.509 91.091L111.428 78.4794L95.1225 69.6819C95.1225 69.6819 94.2149 92.8609 94.3705 93.4353Z" fill="#D3766A"/>
    <path d="M111.433 78.4743L109.566 90.7184C107.725 90.5528 99.5102 89.1659 94.7959 78.3915C94.9722 73.6667 95.1278 69.6664 95.1278 69.6664L111.433 78.4743Z" fill="#030712"/>
    <path d="M126.224 59.2594C132.619 79.1574 121.396 85.2225 117.096 86.5939C113.191 87.8411 99.7327 91.5826 91.3155 72.4454C82.8983 53.3081 90.1486 44.0603 98.9289 40.7431C107.709 37.4259 119.835 39.3613 126.224 59.2594Z" fill="#D3766A"/>
    <path d="M119.342 53.9239C118.86 53.9335 118.378 53.9715 117.9 54.0377C117.388 54.0056 116.879 54.144 116.453 54.431C116.336 54.5467 116.261 54.6983 116.24 54.8616C116.22 55.0249 116.254 55.1903 116.339 55.3315C116.545 55.5867 116.816 55.7826 117.123 55.899C117.43 56.0154 117.763 56.0482 118.087 55.9939C118.761 55.9826 119.408 55.7227 119.902 55.2642C120.007 55.1522 120.077 55.0124 120.104 54.8615C120.131 54.7107 120.114 54.5552 120.055 54.4138C119.996 54.2723 119.897 54.1509 119.771 54.064C119.644 53.9771 119.495 53.9285 119.342 53.9239Z" fill="#030712"/>
    <path d="M105.386 62.1315C105.695 61.7696 106.022 61.4241 106.366 61.0965C106.657 60.6734 107.08 60.3586 107.57 60.2012C107.733 60.1825 107.898 60.218 108.04 60.3022C108.181 60.3863 108.291 60.5145 108.353 60.667C108.428 60.9865 108.415 61.3204 108.317 61.6335C108.218 61.9467 108.037 62.2277 107.793 62.4472C107.371 62.9707 106.767 63.3178 106.102 63.4201C105.944 63.4408 105.784 63.4136 105.641 63.342C105.499 63.2705 105.382 63.1579 105.305 63.0188C105.227 62.8798 105.194 62.7209 105.208 62.5626C105.223 62.4044 105.285 62.2541 105.386 62.1315Z" fill="#030712"/>
    <path d="M110.142 65.5781C110.142 65.5263 110.054 65.6712 110.07 65.7281C110.484 67.0892 110.728 68.7193 109.608 69.5111C109.572 69.537 109.608 69.6042 109.639 69.5835C111.102 68.9625 110.754 66.7994 110.142 65.5781Z" fill="#030712"/>
    <path d="M108.524 64.4758C106.268 64.9053 107.29 69.3818 109.385 68.9833C111.48 68.5848 110.417 64.1136 108.524 64.4758Z" fill="#030712"/>
    <path d="M107.7 64.9105C107.363 65.2521 107.082 65.7903 106.621 65.9455C106.159 66.1008 105.584 65.7489 105.107 65.3763C105.06 65.34 105.029 65.3763 105.039 65.4487C105.226 66.3078 105.755 67.1151 106.709 67.0323C107.575 66.9546 108.006 66.0594 108.021 65.1486C108.026 64.9778 107.855 64.776 107.7 64.9105Z" fill="#030712"/>
    <path d="M118.17 63.1355C118.17 63.0837 118.289 63.1769 118.3 63.2338C118.564 64.6362 119.103 66.1939 120.462 66.3802C120.504 66.3802 120.514 66.4527 120.462 66.4579C118.886 66.5665 118.191 64.4862 118.17 63.1355Z" fill="#030712"/>
    <path d="M119.093 61.3966C121.292 60.7342 122.459 65.1796 120.415 65.7902C118.372 66.4009 117.247 61.9504 119.093 61.3966Z" fill="#030712"/>
    <path d="M120.095 61.4484C120.509 61.5881 120.971 61.9297 121.396 61.8469C121.822 61.7641 122.128 61.1741 122.319 60.6308C122.319 60.579 122.382 60.6308 122.402 60.6618C122.646 61.5053 122.594 62.4627 121.822 62.8405C121.049 63.2183 120.375 62.5973 119.949 61.8055C119.872 61.6606 119.929 61.3863 120.095 61.4484Z" fill="#030712"/>
    <path d="M110.801 77.3616C111.195 77.6256 111.615 78.0189 112.129 77.9671C112.65 77.863 113.143 77.6495 113.576 77.3409C113.585 77.3364 113.595 77.3346 113.605 77.3358C113.615 77.3371 113.625 77.3413 113.633 77.3479C113.64 77.3545 113.646 77.3633 113.649 77.3731C113.651 77.3829 113.651 77.3933 113.648 77.403C113.498 77.7151 113.266 77.9805 112.976 78.171C112.687 78.3615 112.351 78.4699 112.004 78.4846C111.705 78.462 111.42 78.3517 111.183 78.1675C110.947 77.9834 110.771 77.7336 110.676 77.4496C110.64 77.372 110.744 77.3202 110.801 77.3616Z" fill="#030712"/>
    <path d="M113.118 74.5205C115.281 73.2681 116.489 73.3251 117.926 73.0611C118.071 72.9887 118.382 72.7662 118.362 72.6109L117.371 69.8164C117.802 69.8837 119.964 70.1321 119.772 69.6094C118.108 65.2986 116.251 60.4962 113.679 56.5579C113.662 56.531 113.636 56.5111 113.605 56.502C113.575 56.4929 113.542 56.4953 113.513 56.5087C113.485 56.5221 113.462 56.5456 113.449 56.5747C113.437 56.6038 113.435 56.6365 113.445 56.6666C114.887 60.8791 117.076 64.807 118.569 69.0091C117.793 68.9114 117.008 68.9236 116.235 69.0453C116.106 69.1333 117.433 71.9537 117.532 72.4246C117.532 72.4246 115.266 72.228 112.864 74.3394C112.335 74.8103 112.325 74.9914 113.118 74.5205Z" fill="#030712"/>
    <path d="M109.716 42.6527C109.716 42.6527 111.018 45.5714 110.333 47.9415C108.923 52.8216 103.285 52.5215 101.719 54.6122C100.251 56.5787 101.434 59.9528 100.132 61.8883C98.3325 64.5689 95.2104 64.1549 95.1067 65.7799C95.0029 67.4049 94.7903 72.554 92.9077 73.5114C91.0251 74.4688 76.4259 42.8338 102.601 39.6253C102.601 39.6253 105.93 37.5811 111.936 39.4752C118.548 41.5452 122.869 51.1966 122.869 51.1966C122.869 51.1966 122.718 51.0828 121.696 50.4411C120.26 49.5355 119.622 48.5884 118.585 48.0192C116.951 47.1291 116.23 47.6828 114.545 46.8289C111.957 45.5403 109.716 42.6527 109.716 42.6527Z" fill="#030712"/>
    <path d="M109.079 41.2761C109.698 42.505 110.175 43.8002 110.5 45.1367C110.887 46.428 110.916 47.7997 110.583 49.106C110.088 50.3247 109.166 51.323 107.99 51.916C106.828 52.5784 105.485 52.951 104.24 53.6807C103.595 54.0639 103.067 54.6172 102.716 55.2798C102.432 55.9535 102.284 56.6761 102.28 57.4067C102.228 58.7885 102.161 60.1495 101.435 61.2518C101.075 61.8058 100.599 62.2748 100.039 62.626C99.4793 62.9773 98.8493 63.2024 98.1932 63.2856C96.8811 63.5029 95.3719 63.3735 94.1895 64.155C95.4341 63.4719 96.85 63.7203 98.2347 63.6012C98.9548 63.5426 99.6533 63.3268 100.281 62.9691C100.908 62.6114 101.449 62.1205 101.865 61.5312C102.757 60.3306 102.804 58.7781 102.902 57.4481C102.912 56.797 103.047 56.1538 103.302 55.5541C103.615 55.0046 104.069 54.5489 104.619 54.2344C105.729 53.5358 107.082 53.1477 108.312 52.4335C108.939 52.0838 109.507 51.6385 109.997 51.1139C110.52 50.5982 110.9 49.9564 111.102 49.2509C111.402 47.8546 111.312 46.4028 110.842 45.0539C110.403 43.731 109.811 42.4633 109.079 41.2761Z" fill="#030712"/>
    <path d="M109.773 42.3835C110.236 43.5892 110.859 44.7274 111.625 45.768C112.388 46.8712 113.462 47.7232 114.711 48.2158C115.331 48.4163 115.971 48.5532 116.619 48.6246C117.195 48.7101 117.735 48.9578 118.175 49.3388C118.591 49.8428 119.057 50.3039 119.565 50.7154C120.107 51.0813 120.727 51.3185 121.375 51.4088C120.786 51.1937 120.245 50.8649 119.783 50.4411C119.334 49.9972 118.927 49.5121 118.569 48.9921C118.085 48.4882 117.453 48.1496 116.764 48.0243C116.15 47.9378 115.545 47.7993 114.954 47.6103C113.819 47.1448 112.822 46.3986 112.055 45.442C111.227 44.4746 110.465 43.4528 109.773 42.3835Z" fill="#030712"/>
    <path d="M96.8651 70.691C96.8651 70.691 90.958 65.3452 88.4271 67.586C85.8962 69.8268 91.3469 78.288 95.0343 78.7796C95.5021 78.8749 95.9845 78.8748 96.4522 78.7791C96.92 78.6835 97.3635 78.4943 97.756 78.223C98.1485 77.9518 98.4819 77.604 98.7361 77.2007C98.9904 76.7974 99.1601 76.3469 99.2352 75.8764L96.8651 70.691Z" fill="#D3766A"/>
    <path d="M90.0507 69.9717C89.9937 69.9717 90.004 70.0596 90.0507 70.0648C92.6438 70.4892 94.4019 72.4091 95.8022 74.4895C94.8946 73.7753 93.8211 73.5114 92.8305 74.6189C92.7787 74.6758 92.8616 74.7586 92.9239 74.7327C93.3115 74.504 93.7607 74.4011 94.2094 74.4381C94.6581 74.4752 95.0842 74.6505 95.4288 74.9397C96.0072 75.425 96.5291 75.9735 96.9847 76.575C97.1455 76.7613 97.5033 76.575 97.3685 76.3318L97.3374 76.28C96.7046 73.2423 93.3803 69.537 90.0507 69.9717Z" fill="#030712"/>
    <path d="M93.333 78.2879C93.5768 79.1987 90.1746 76.7044 89.9308 76.2697C89.6871 75.835 87.5556 74.8931 86.871 74.0962C85.9368 72.8873 85.1222 71.5909 84.4386 70.2252C84.2208 69.599 82.6857 68.2691 82.4368 67.1202C82.1878 65.9713 80.3623 55.8438 85.6211 47.5896C90.8799 39.3354 96.7818 37.5707 96.7818 37.5707C99.6991 36.4329 102.732 35.6156 105.827 35.1333C110.842 34.3726 120.53 44.3345 120.607 44.5829C120.685 44.8313 120.524 45.6904 120.913 46.3321C121.302 46.9738 122.215 47.5275 121.951 48.2727C121.686 49.0179 123.092 50.5135 123.237 51.2277C123.382 51.9418 123.237 52.1695 123.47 52.6249C123.704 53.0803 118.59 41.0846 102.502 40.1013C102.528 40.1013 88.069 58.7056 93.333 78.2879Z" fill="#10B981"/>
    <path d="M123.444 52.4956C123.458 52.5401 123.475 52.5834 123.496 52.625C123.517 52.6612 123.501 52.6146 123.444 52.4956Z" fill="#10B981"/>
    <path d="M123.439 52.4956C123.456 52.5397 123.475 52.5828 123.497 52.625C123.517 52.6612 123.502 52.6146 123.439 52.4956Z" fill="#10B981"/>
    <path opacity="0.3" d="M114.13 39.3303C114.29 39.2429 114.467 39.1901 114.649 39.175C115.136 39.558 115.613 39.9357 116.064 40.3187C116.098 40.5788 116.053 40.8431 115.933 41.0768C115.814 41.3105 115.626 41.5027 115.395 41.628C115.244 41.7264 115.073 41.7926 114.894 41.8222C114.716 41.8519 114.533 41.8445 114.357 41.8004C114.181 41.7564 114.017 41.6767 113.873 41.5663C113.73 41.4558 113.611 41.3171 113.523 41.1587C113.436 41.0003 113.383 40.8256 113.366 40.6456C113.35 40.4656 113.37 40.2841 113.427 40.1126C113.484 39.941 113.576 39.7829 113.697 39.6483C113.818 39.5137 113.965 39.4054 114.13 39.3303ZM106.869 40.6913C107.754 40.8741 108.601 41.0898 109.411 41.3382C109.473 41.1658 109.498 40.9824 109.485 40.7997C109.472 40.617 109.421 40.439 109.334 40.2772C109.248 40.1154 109.129 39.9734 108.985 39.8602C108.841 39.747 108.674 39.6651 108.497 39.6198C108.319 39.5745 108.133 39.5668 107.952 39.5972C107.771 39.6276 107.599 39.6955 107.445 39.7964C107.292 39.8972 107.162 40.029 107.063 40.1831C106.963 40.3372 106.898 40.5103 106.869 40.6913ZM117.003 45.1315C117.686 45.6348 118.341 46.1756 118.964 46.7513C119.234 46.5553 119.42 46.2641 119.483 45.9365C119.547 45.6089 119.483 45.2696 119.305 44.9872C119.127 44.7049 118.848 44.5007 118.524 44.416C118.201 44.3313 117.857 44.3725 117.563 44.5312C117.31 44.6533 117.104 44.8551 116.977 45.1056L117.003 45.1315ZM87.9603 44.3966C88.0865 44.5269 88.2383 44.6297 88.4061 44.6986C88.574 44.7675 88.7543 44.8011 88.9358 44.7972C89.1173 44.7933 89.296 44.752 89.4608 44.6759C89.6255 44.5998 89.7727 44.4906 89.8931 44.355C90.0136 44.2195 90.1046 44.0606 90.1606 43.8882C90.2165 43.7159 90.2362 43.5339 90.2183 43.3537C90.2005 43.1734 90.1455 42.9988 90.0568 42.8407C89.9681 42.6827 89.8476 42.5447 89.7029 42.4353C89.1272 43.0201 88.5464 43.6566 87.9603 44.3707V44.3966ZM90.652 55.1659C90.777 55.3943 90.9671 55.5806 91.1983 55.7011C91.4296 55.8215 91.6914 55.8708 91.9507 55.8427C92.21 55.8145 92.4551 55.7101 92.6549 55.5428C92.8547 55.3755 93.0003 55.1528 93.0731 54.9028C93.1459 54.6529 93.1427 54.387 93.0639 54.1389C92.9851 53.8908 92.8343 53.6716 92.6305 53.5091C92.4268 53.3466 92.1793 53.2481 91.9193 53.2262C91.6594 53.2042 91.3988 53.2597 91.1706 53.3857C90.8737 53.5546 90.654 53.8316 90.5573 54.1586C90.4606 54.4857 90.4945 54.8374 90.652 55.14V55.1659ZM102.668 36.5409C102.747 36.7002 102.857 36.8419 102.992 36.9576C103.127 37.0732 103.284 37.1604 103.454 37.2139C103.623 37.2673 103.802 37.286 103.979 37.2686C104.156 37.2513 104.328 37.1983 104.484 37.113C104.64 37.0277 104.777 36.9117 104.887 36.7721C104.996 36.6324 105.077 36.4721 105.123 36.3006C105.169 36.1292 105.18 35.9502 105.154 35.7744C105.129 35.5987 105.069 35.4299 104.976 35.2782C104.115 35.4231 103.291 35.5991 102.523 35.7957C102.495 36.0531 102.545 36.313 102.668 36.5409ZM96.3931 41.0018C96.4717 41.1611 96.5817 41.3028 96.7167 41.4184C96.8516 41.5341 97.0086 41.6213 97.1783 41.6747C97.3479 41.7282 97.5266 41.7468 97.7036 41.7295C97.8807 41.7122 98.0524 41.6592 98.2083 41.5739C98.3643 41.4886 98.5014 41.3726 98.6112 41.2329C98.721 41.0933 98.8014 40.9329 98.8474 40.7615C98.8935 40.59 98.9042 40.4111 98.8791 40.2353C98.8539 40.0596 98.7933 39.8908 98.701 39.7391C98.5249 39.4497 98.2437 39.2393 97.9159 39.1516C97.5882 39.064 97.2392 39.106 96.9417 39.2688C96.6442 39.4315 96.4211 39.7026 96.3189 40.0254C96.2167 40.3483 96.2433 40.698 96.3931 41.0018ZM94.1164 48.0036C94.2414 48.2321 94.4315 48.4183 94.6627 48.5388C94.8939 48.6593 95.1558 48.7086 95.4151 48.6804C95.6744 48.6522 95.9195 48.5479 96.1193 48.3806C96.3191 48.2133 96.4647 47.9905 96.5375 47.7406C96.6103 47.4907 96.6071 47.2248 96.5283 46.9767C96.4495 46.7285 96.2987 46.5093 96.0949 46.3468C95.8912 46.1843 95.6437 46.0859 95.3837 46.0639C95.1238 46.0419 94.8632 46.0974 94.635 46.2234C94.3313 46.3925 94.1067 46.6741 94.0096 47.0073C93.9126 47.3405 93.9509 47.6984 94.1164 48.0036ZM84.8175 51.5951C84.9431 51.8228 85.1336 52.0083 85.3649 52.128C85.5962 52.2477 85.8578 52.2963 86.1168 52.2676C86.3757 52.2389 86.6204 52.1342 86.8197 51.9668C87.019 51.7994 87.1641 51.5768 87.2367 51.3271C87.3092 51.0774 87.3059 50.8118 87.2272 50.564C87.1485 50.3162 86.9979 50.0972 86.7944 49.9348C86.591 49.7724 86.3439 49.6738 86.0843 49.6515C85.8247 49.6293 85.5643 49.6843 85.3361 49.8097C85.0301 49.9778 84.8035 50.2604 84.7062 50.5952C84.609 50.93 84.649 51.2897 84.8175 51.5951ZM86.9283 61.3656C87.0539 61.5933 87.2444 61.7788 87.4757 61.8985C87.707 62.0182 87.9686 62.0668 88.2276 62.0381C88.4865 62.0094 88.7311 61.9047 88.9305 61.7373C89.1298 61.5699 89.2749 61.3473 89.3475 61.0976C89.42 60.8479 89.4167 60.5823 89.338 60.3345C89.2593 60.0867 89.1087 59.8677 88.9052 59.7053C88.7018 59.5429 88.4546 59.4443 88.1951 59.422C87.9355 59.3997 87.6751 59.4548 87.4469 59.5802C87.2943 59.6624 87.1597 59.7741 87.0509 59.9088C86.942 60.0434 86.8611 60.1983 86.8128 60.3645C86.7646 60.5306 86.7499 60.7047 86.7697 60.8766C86.7895 61.0485 86.8434 61.2147 86.9283 61.3656ZM91.2017 75.5555C91.357 75.8365 91.6096 76.0514 91.9122 76.16C92.2148 76.2685 92.5467 76.2634 92.8457 76.1455C92.6746 75.3019 92.5397 74.4532 92.4412 73.6149C92.2056 73.5984 91.97 73.6457 91.7591 73.7517C91.5482 73.8577 91.3698 74.0186 91.2429 74.2173C91.116 74.416 91.0452 74.6452 91.0379 74.8807C91.0307 75.1163 91.0872 75.3494 91.2017 75.5555ZM91.9589 64.5689C92.0681 64.7698 92.2293 64.9378 92.4257 65.0554C92.5138 64.2532 92.6279 63.4563 92.7628 62.6749C92.6632 62.7006 92.5674 62.7388 92.4775 62.7887C92.3229 62.8709 92.1864 62.9832 92.0762 63.1191C91.966 63.2549 91.8842 63.4115 91.8359 63.5795C91.7875 63.7475 91.7734 63.9235 91.7946 64.097C91.8157 64.2706 91.8716 64.4381 91.9589 64.5896V64.5689ZM82.0117 59.3628C82.1985 59.4261 82.3971 59.4467 82.5929 59.4232C82.7887 59.3997 82.9767 59.3325 83.143 59.2268C83.3093 59.1211 83.4498 58.9794 83.5539 58.8123C83.6581 58.6452 83.7233 58.4569 83.7448 58.2613C83.7662 58.0657 83.7434 57.8677 83.678 57.6821C83.6126 57.4964 83.5062 57.3278 83.3667 57.1887C83.2273 57.0495 83.0583 56.9434 82.8722 56.8781C82.6862 56.8129 82.4878 56.7901 82.2918 56.8115C82.1569 57.712 82.0688 58.5659 82.0117 59.3835V59.3628ZM86.9542 69.0867C87.1303 69.3761 87.4115 69.5865 87.7393 69.6742C88.067 69.7618 88.416 69.7198 88.7135 69.5571C89.011 69.3943 89.2341 69.1232 89.3363 68.8004C89.4385 68.4775 89.4119 68.1278 89.2621 67.824C89.1835 67.6648 89.0734 67.523 88.9385 67.4074C88.8036 67.2917 88.6465 67.2045 88.4769 67.1511C88.3073 67.0976 88.1286 67.079 87.9515 67.0963C87.7745 67.1136 87.6028 67.1666 87.4468 67.2519C87.2909 67.3373 87.1538 67.4532 87.044 67.5929C86.9341 67.7325 86.8538 67.8929 86.8077 68.0643C86.7617 68.2358 86.7509 68.4148 86.7761 68.5905C86.8013 68.7662 86.8619 68.935 86.9542 69.0867ZM85.0716 71.4155C85.4035 71.9744 85.8132 72.6161 86.1814 73.1595C86.2497 72.9719 86.274 72.7712 86.2523 72.5728C86.2306 72.3744 86.1635 72.1836 86.0563 72.0151C85.9491 71.8467 85.8046 71.705 85.6339 71.601C85.4631 71.4971 85.2708 71.4336 85.0716 71.4155ZM82.3488 66.6596C82.5858 66.6702 82.8211 66.6147 83.0282 66.4992C83.3108 66.3434 83.5261 66.0895 83.6335 65.7857C83.7408 65.4818 83.7325 65.1493 83.6103 64.8511C83.4881 64.553 83.2604 64.31 82.9705 64.1683C82.6806 64.0266 82.3486 63.996 82.0377 64.0825C82.1258 65.2054 82.2555 66.1111 82.3488 66.6545V66.6596Z" fill="white"/>
    <path opacity="0.1" d="M89.9363 76.2697C89.6276 75.3911 89.4053 74.4847 89.2725 73.5632C89.1065 72.6472 88.9665 71.726 88.8368 70.8049C88.5827 68.9574 88.3182 67.1099 88.1782 65.2572C88.1419 64.7966 88.09 64.3309 88.0848 63.8755C88.1068 63.4233 88.1816 62.9752 88.3079 62.5403C88.536 61.6399 88.8265 60.7601 89.1065 59.87C89.3866 58.9799 89.6978 58.1001 90.0037 57.2204L90.9269 54.5811C90.1835 56.3061 89.492 58.0415 88.8524 59.7872C88.536 60.667 88.2508 61.5571 88.0019 62.4679C87.8678 62.9266 87.7843 63.3986 87.7529 63.8755C87.7529 64.3568 87.7996 64.8173 87.8411 65.2883C88.0278 67.1461 88.2664 68.9988 88.5775 70.8411C88.7331 71.7622 88.8991 72.6834 89.0962 73.5942C89.1999 74.0496 89.3088 74.505 89.4333 74.9552C89.5532 75.4101 89.7219 75.8508 89.9363 76.2697Z" fill="#050400"/>
    <path opacity="0.1" d="M86.6176 57.3497C85.5627 59.3194 84.7794 61.4222 84.2889 63.6012C84.0385 64.6948 83.9064 65.8121 83.8948 66.9339C83.8764 68.0552 84.0627 69.1705 84.4445 70.2252C84.3927 69.9509 84.3356 69.6767 84.2734 69.4076C84.2439 69.273 84.2248 69.1363 84.2163 68.9987L84.18 68.5899C84.18 68.4502 84.1437 68.3156 84.1385 68.1759V67.7619C84.1385 67.4876 84.1385 67.2134 84.1385 66.9391L84.1956 66.1162L84.3045 65.2986C84.3356 65.0243 84.3927 64.75 84.4393 64.4809C84.486 64.2118 84.5327 63.9634 84.6001 63.6685C84.8231 62.592 85.1187 61.5312 85.4714 60.4755C85.6374 59.958 85.8241 59.4404 86.016 58.9229C86.2078 58.4054 86.4101 57.8621 86.6176 57.3497Z" fill="#050400"/>
    <path opacity="0.1" d="M120.618 45.7991C119.919 45.001 119.146 44.2698 118.31 43.6152C117.496 42.9321 116.656 42.2904 115.811 41.6539C114.966 41.0072 114.088 40.4043 113.181 39.8478C112.248 39.3296 111.243 38.9528 110.199 38.73C110.699 38.9041 111.189 39.1045 111.667 39.3303C112.141 39.5454 112.601 39.7927 113.041 40.0703C113.482 40.3498 113.902 40.6603 114.333 40.9759L115.634 41.9178L118.176 43.8119C118.601 44.1275 119.016 44.4484 119.431 44.7744C119.847 45.0911 120.244 45.4333 120.618 45.7991Z" fill="#050400"/>
    <path opacity="0.1" d="M121.998 48.7592C121.552 48.1377 121.064 47.548 120.535 46.9945C120.018 46.4314 119.471 45.8959 118.897 45.3903C118.604 45.1353 118.298 44.8968 117.979 44.6761C117.657 44.4743 117.341 44.2673 117.009 44.0706L116.034 43.4703C115.702 43.284 115.375 43.0822 115.038 42.9062C115.334 43.1443 115.64 43.372 115.946 43.6049L116.869 44.2725C117.175 44.495 117.491 44.7072 117.802 44.9245C118.114 45.1419 118.394 45.3799 118.679 45.6283C119.254 46.1458 119.799 46.6633 120.359 47.1808L121.179 47.9674C121.459 48.221 121.728 48.4901 121.998 48.7592Z" fill="#050400"/>
    <path opacity="0.1" d="M86.7363 45.9699C89.511 46.4874 95.8537 47.6104 97.1554 47.217C97.5918 47.0611 98.0164 46.8744 98.4261 46.6581C99.6245 44.3717 100.996 42.1797 102.528 40.1014C104.397 40.2103 106.251 40.4927 108.067 40.9449C109.29 39.6954 110.394 38.3354 111.366 36.8825C109.353 35.6819 107.372 34.9005 105.827 35.1333C102.732 35.6147 99.699 36.432 96.782 37.5708C96.782 37.5708 91.6736 39.1129 86.7363 45.9699Z" fill="#050400"/>
    <path d="M101.024 37.5242C101.024 37.5242 104.696 29.8755 111.915 28.2816C111.915 28.2816 112.393 35.5266 110.08 38.1918C108.928 39.5114 103.26 40.6085 102.487 39.7443C101.926 39.0552 101.436 38.3114 101.024 37.5242Z" fill="#10B981"/>
    <path opacity="0.3" d="M107.959 29.8859C108.031 30.1658 108.01 30.4617 107.897 30.7282C107.785 30.9946 107.588 31.2169 107.336 31.3607C107.13 31.4746 106.897 31.5305 106.661 31.5223C106.425 31.5141 106.196 31.4421 105.998 31.3142C106.613 30.7874 107.269 30.3098 107.959 29.8859ZM110.35 35.2524C110.44 35.419 110.565 35.5638 110.718 35.6765C110.87 35.7892 111.045 35.867 111.231 35.9044C111.476 35.0577 111.649 34.1922 111.75 33.3169C111.449 33.2579 111.136 33.3074 110.868 33.4566C110.715 33.5394 110.58 33.6518 110.47 33.7873C110.361 33.9228 110.28 34.0787 110.231 34.2459C110.183 34.4131 110.169 34.5882 110.189 34.761C110.209 34.9338 110.264 35.1009 110.35 35.2524ZM102.669 36.541C102.794 36.7694 102.984 36.9557 103.215 37.0762C103.446 37.1966 103.708 37.2459 103.968 37.2177C104.227 37.1896 104.472 37.0852 104.672 36.9179C104.872 36.7506 105.017 36.5279 105.09 36.2779C105.163 36.028 105.16 35.7621 105.081 35.514C105.002 35.2659 104.851 35.0467 104.647 34.8842C104.444 34.7217 104.196 34.6232 103.936 34.6012C103.676 34.5793 103.416 34.6348 103.187 34.7607C103.036 34.8435 102.903 34.9552 102.795 35.0896C102.687 35.2239 102.606 35.3781 102.558 35.5435C102.51 35.7089 102.495 35.8821 102.514 36.0532C102.533 36.2244 102.586 36.3901 102.669 36.541Z" fill="white"/>
    <path opacity="0.1" d="M101.024 37.5294C101.438 38.3058 101.926 39.0406 102.482 39.7236C102.514 39.7665 102.557 39.8004 102.606 39.8219C102.659 39.8614 102.719 39.8912 102.783 39.9099C102.829 39.9099 102.871 39.9409 102.933 39.9513C103.994 40.1027 105.074 40.0447 106.112 39.7805C105.836 38.7304 105.463 37.7083 104.997 36.7272C104.608 35.9769 103.597 35.3973 102.606 34.9729C102.007 35.7788 101.478 36.634 101.024 37.5294Z" fill="#050400"/>
    <path d="M99.3443 38.7041C99.3443 38.7041 89.0081 38.1866 84.3457 40.9293C84.3457 40.9293 87.5715 45.9388 92.8044 46.7099C95.1486 47.0566 101.393 42.2127 100.9 41.0587C100.493 40.206 99.9691 39.4137 99.3443 38.7041Z" fill="#10B981"/>
    <path opacity="0.3" d="M88.3598 42.3991C88.588 42.2737 88.8484 42.2186 89.108 42.2409C89.3676 42.2632 89.6147 42.3617 89.8181 42.5242C90.0216 42.6866 90.1722 42.9056 90.2509 43.1534C90.3296 43.4012 90.3329 43.6668 90.2604 43.9165C90.1878 44.1662 90.0427 44.3888 89.8434 44.5562C89.644 44.7236 89.3994 44.8283 89.1405 44.857C88.8815 44.8856 88.6199 44.8371 88.3886 44.7174C88.1573 44.5977 87.9668 44.4122 87.8412 44.1845C87.6741 43.8788 87.6348 43.5196 87.732 43.1852C87.8291 42.8508 88.0548 42.5682 88.3598 42.3991ZM96.3932 41.0018C96.4718 41.1611 96.5819 41.3028 96.7168 41.4185C96.8517 41.5341 97.0088 41.6213 97.1784 41.6748C97.348 41.7282 97.5267 41.7468 97.7038 41.7295C97.8808 41.7122 98.0525 41.6592 98.2085 41.5739C98.3644 41.4886 98.5015 41.3726 98.6113 41.233C98.7212 41.0933 98.8015 40.933 98.8476 40.7615C98.8936 40.59 98.9044 40.4111 98.8792 40.2353C98.854 40.0596 98.7934 39.8908 98.7011 39.7391C98.525 39.4497 98.2438 39.2393 97.916 39.1517C97.5883 39.064 97.2393 39.106 96.9418 39.2688C96.6443 39.4315 96.4212 39.7026 96.319 40.0254C96.2168 40.3483 96.2434 40.698 96.3932 41.0018ZM94.3187 46.4615C94.6439 46.3462 94.9625 46.2131 95.273 46.063C95.0497 46.0576 94.8292 46.1131 94.6351 46.2234C94.5183 46.2841 94.413 46.3646 94.3239 46.4615H94.3187Z" fill="white"/>
    <path opacity="0.1" d="M97.0001 38.6679C96.8474 39.8088 97.0274 40.9695 97.5187 42.011C97.911 42.6203 98.429 43.139 99.0383 43.5324C100.257 42.4974 101.071 41.5038 100.89 41.0536C100.482 40.2027 99.9584 39.4121 99.3339 38.7041C99.3339 38.7041 98.4211 38.6524 97.0001 38.6679Z" fill="#050400"/>
    <path d="M98.5196 41.1157C98.8874 41.6674 99.4107 42.098 100.024 42.3531C100.636 42.6083 101.311 42.6766 101.963 42.5494C102.615 42.4221 103.214 42.1051 103.685 41.6383C104.157 41.1715 104.479 40.5759 104.611 39.9265C104.743 39.2772 104.68 38.6033 104.429 37.9899C104.178 37.3765 103.75 36.8511 103.2 36.4801C102.65 36.109 102.002 35.9089 101.338 35.905C100.673 35.9011 100.023 36.0935 99.4687 36.4581C99.0991 36.7011 98.7813 37.0145 98.5334 37.3804C98.2856 37.7463 98.1126 38.1574 98.0244 38.5901C97.9362 39.0229 97.9346 39.4688 98.0196 39.9022C98.1045 40.3356 98.2745 40.748 98.5196 41.1157Z" fill="#10B981"/>
    <path d="M62.9625 159.847C66.7121 153.083 69.383 137.873 61.4066 108.277C60.3071 104.184 30.1959 109.944 31.145 114.379C32.343 119.963 38.1983 141.377 38.8206 142.888C44.1313 155.639 60.416 164.437 62.9625 159.847Z" fill="#D3766A"/>
    <path d="M65.4837 154.263C66.2765 152.069 66.8362 149.799 67.1537 147.489C67.3144 146.335 67.4493 145.17 67.5219 144.001C67.5945 142.825 67.5945 141.647 67.5219 140.471C67.3971 138.14 67.1547 135.817 66.7958 133.511C66.4615 131.193 65.9712 128.901 65.3281 126.649C65.6912 128.946 65.9453 131.254 66.1735 133.563C66.4017 135.871 66.5832 138.179 66.6921 140.487C66.7336 141.636 66.7699 142.79 66.6921 143.928C66.6143 145.067 66.5469 146.231 66.4328 147.38C66.215 149.678 65.9349 151.975 65.4837 154.263Z" fill="#030712"/>
    <path d="M46.6577 120.93C43.1933 120.842 24.554 119.414 20.208 118.115C12.7502 115.921 6.33483 112.743 7.51729 109.457C8.61158 106.44 16.8992 109.255 16.8992 109.255C16.8992 109.255 5.4065 102.528 6.80678 97.9738C7.84402 94.5945 12.968 97.7047 12.968 97.7047C12.968 97.7047 7.64176 93.3318 9.89258 90.6097C11.7648 88.3534 22.7285 95.2673 22.7285 95.2673C22.7285 95.2673 12.4286 87.5047 16.4687 84.6015C19.1189 82.7075 23.9887 88.7416 30.1137 90.4441C30.6323 90.5994 35.943 91.6758 41.2018 92.7315C46.6681 93.8338 61.6355 109.033 61.6355 109.033L46.6577 120.93Z" fill="#D3766A"/>
    <path d="M22.8888 95.2207C25.6348 96.7415 28.5819 97.8687 31.6431 98.5689C31.7157 98.5689 31.6898 98.7915 31.612 98.7811C27.2919 98.2636 26.0472 97.8341 22.7436 95.4018C22.5621 95.2776 22.7073 95.1327 22.8888 95.2207Z" fill="#030712"/>
    <path d="M13.2112 97.6737C19.3724 101.984 22.8524 103.18 30.1494 104.727C30.2531 104.727 30.2272 104.924 30.1234 104.908C22.8627 103.992 18.6308 103.133 13.0452 98.0204C12.7911 97.8082 12.9467 97.477 13.2112 97.6737Z" fill="#030712"/>
    <path d="M17.0341 109.136C21.126 110.321 22.3033 110.487 26.7064 111.346C26.8205 111.346 26.8257 111.615 26.7064 111.605C22.2566 111.393 20.6385 111.237 16.9771 109.349C16.7022 109.193 16.7437 109.054 17.0341 109.136Z" fill="#030712"/>
    <path d="M61.6354 109.033C61.6354 109.033 58.2281 94.7963 51.8801 89.7507C48.701 87.2252 33.7284 80.0268 31.9443 83.0231C29.6468 86.8992 37.0787 92.8039 41.1032 95.2207C41.1032 95.2207 35.7769 104.179 40.1956 109.566C44.6143 114.953 61.6354 109.033 61.6354 109.033Z" fill="#D3766A"/>
    <path d="M31.6586 84.2962C32.1202 89.3367 37.602 92.1674 41.3257 94.8067C41.3813 94.8447 41.4268 94.8957 41.4583 94.9552C41.4897 95.0147 41.5061 95.081 41.5061 95.1483C41.5061 95.2155 41.4897 95.2818 41.4583 95.3413C41.4268 95.4008 41.3813 95.4518 41.3257 95.4898C39.3446 99.3918 37.6953 105.472 39.8839 109.535C39.8932 109.558 39.8943 109.583 39.887 109.607C39.8797 109.631 39.8645 109.651 39.8439 109.665C39.8233 109.679 39.7985 109.686 39.7737 109.684C39.7489 109.682 39.7256 109.671 39.7076 109.654C36.7618 105.612 37.8976 99.5056 40.3403 95.3708C36.4818 92.7263 31.1037 89.6472 31.586 84.2962H31.6586Z" fill="#030712"/>
    <path d="M141.451 159.743C137.701 152.979 135.025 137.77 142.976 108.174C144.075 104.08 174.192 109.84 173.237 114.275C172.045 119.859 166.189 141.273 165.562 142.784C160.277 155.536 143.992 164.333 141.451 159.743Z" fill="#D3766A"/>
    <path d="M138.926 154.159C138.136 151.956 137.576 149.677 137.256 147.359C137.1 146.205 136.96 145.041 136.887 143.871C136.817 142.696 136.817 141.517 136.887 140.342C137.012 138.011 137.255 135.688 137.614 133.381C137.952 131.074 138.441 128.79 139.076 126.545C138.713 128.843 138.464 131.151 138.231 133.459C137.997 135.767 137.821 138.075 137.712 140.383C137.671 141.532 137.634 142.686 137.712 143.825C137.79 144.963 137.852 146.128 137.966 147.276C138.194 149.559 138.48 151.872 138.926 154.159Z" fill="#030712"/>
    <path d="M157.741 120.827C161.211 120.739 179.845 119.31 184.191 118.012C191.649 115.791 198.07 112.64 196.882 109.354C195.793 106.337 187.505 109.152 187.505 109.152C187.505 109.152 198.993 102.424 197.592 97.8703C196.555 94.491 191.431 97.6012 191.431 97.6012C191.431 97.6012 196.763 93.2283 194.507 90.5062C192.64 88.2447 181.671 95.1638 181.671 95.1638C181.671 95.1638 191.971 87.4012 187.936 84.498C185.28 82.6039 180.41 88.638 174.291 90.3406C173.772 90.4959 168.456 91.5723 163.203 92.628C157.736 93.7303 142.764 108.929 142.764 108.929L157.741 120.827Z" fill="#D3766A"/>
    <path d="M181.525 95.1275C178.778 96.6467 175.832 97.7738 172.771 98.4758C172.698 98.4758 172.719 98.6983 172.802 98.688C177.122 98.1705 178.367 97.7409 181.67 95.3087C181.852 95.1741 181.702 95.0292 181.525 95.1275Z" fill="#030712"/>
    <path d="M191.197 97.5702C185.036 101.881 181.556 103.076 174.259 104.624C174.155 104.624 174.181 104.82 174.29 104.805C181.551 103.889 185.778 103.03 191.368 97.9169C191.617 97.6841 191.477 97.3735 191.197 97.5702Z" fill="#030712"/>
    <path d="M187.375 109.033C183.288 110.218 182.111 110.384 177.703 111.243C177.594 111.243 177.584 111.512 177.703 111.501C182.147 111.289 183.771 111.134 187.432 109.245C187.723 109.105 187.671 108.95 187.375 109.033Z" fill="#030712"/>
    <path d="M142.773 108.929C142.773 108.929 146.181 94.6928 152.529 89.6471C155.708 87.1217 170.68 79.9233 172.47 82.9196C174.767 86.7957 167.33 92.7004 163.311 95.1172C163.311 95.1172 168.632 104.07 164.213 109.462C159.795 114.855 142.773 108.929 142.773 108.929Z" fill="#D3766A"/>
    <path d="M172.75 84.1927C172.293 89.2332 166.806 92.0639 163.083 94.7032C163.026 94.7398 162.98 94.7894 162.947 94.8476C162.914 94.9059 162.895 94.9712 162.893 95.0381C162.89 95.1049 162.904 95.1714 162.932 95.232C162.961 95.2926 163.004 95.3455 163.057 95.3863C165.038 99.2883 166.687 105.369 164.498 109.431C164.489 109.454 164.488 109.48 164.495 109.504C164.503 109.527 164.518 109.548 164.539 109.562C164.559 109.576 164.584 109.582 164.609 109.58C164.633 109.578 164.657 109.568 164.675 109.55C167.621 105.509 166.485 99.4021 164.042 95.2673C167.906 92.6228 173.279 89.5385 172.802 84.1927C172.802 84.1858 172.799 84.1792 172.794 84.1744C172.789 84.1695 172.783 84.1668 172.776 84.1668C172.769 84.1668 172.762 84.1695 172.757 84.1744C172.752 84.1792 172.75 84.1858 172.75 84.1927Z" fill="#030712"/>
    <path d="M0.5 220.762C65.8464 220.446 139.154 220.441 204.5 220.762C139.154 221.083 65.8464 221.078 0.5 220.762Z" fill="#030712"/>
    <path d="M136.084 32.1991L135.243 37.1205C135.175 37.6155 135.006 38.0913 134.747 38.5189C134.488 38.9466 134.145 39.317 133.738 39.6076C133.33 39.8983 132.868 40.103 132.379 40.2092C131.889 40.3154 131.384 40.321 130.892 40.2256C129.907 40.056 129.03 39.5038 128.453 38.6899C127.875 37.876 127.645 36.8669 127.812 35.8837L129.155 28.0125C129.155 27.9348 129.243 27.9452 129.253 27.8727C129.264 27.8003 129.191 27.7848 129.207 27.7071C129.395 26.7318 129.952 25.8659 130.761 25.2882C131.571 24.7104 132.572 24.4648 133.558 24.6021C134.685 24.8195 135.844 24.81 136.968 24.5741C138.091 24.3383 139.156 23.8809 140.1 23.2288C141.044 22.5767 141.848 21.743 142.464 20.7767C143.081 19.8104 143.498 18.7309 143.69 17.6016C143.883 16.4724 143.848 15.316 143.587 14.2005C143.326 13.085 142.844 12.0328 142.169 11.1057C141.495 10.1786 140.642 9.3952 139.66 8.80155C138.678 8.2079 137.588 7.81595 136.452 7.64869C134.98 7.39255 133.466 7.52795 132.063 8.04124C130.66 8.55454 129.417 9.42763 128.46 10.5726C128.14 10.9611 127.746 11.2822 127.3 11.5174C126.855 11.7525 126.367 11.8969 125.865 11.9421C125.363 11.9874 124.857 11.9326 124.377 11.781C123.896 11.6294 123.451 11.384 123.066 11.059C122.689 10.7396 122.38 10.3491 122.154 9.90999C121.929 9.47088 121.793 8.99175 121.753 8.50002C121.714 8.00829 121.772 7.51361 121.924 7.0443C122.076 6.57499 122.32 6.14025 122.641 5.76498C124.355 3.70945 126.554 2.11111 129.041 1.1136C131.527 0.116092 134.223 -0.249334 136.886 0.0501611C139.549 0.349656 142.096 1.30469 144.298 2.82944C146.499 4.35418 148.287 6.40087 149.5 8.78557C150.712 11.1703 151.312 13.8183 151.245 16.4916C151.179 19.1649 150.447 21.7798 149.117 24.1013C147.787 26.4228 145.9 28.3781 143.625 29.7915C141.35 31.205 138.758 32.0323 136.084 32.1991ZM133.252 48.7592L133.019 50.1202C132.95 50.6146 132.781 51.09 132.523 51.5172C132.264 51.9444 131.921 52.3146 131.515 52.6052C131.108 52.8957 130.646 53.1005 130.157 53.2072C129.669 53.3138 129.164 53.3199 128.672 53.2253C127.687 53.0569 126.808 52.5052 126.23 51.6912C125.651 50.8772 125.42 49.8674 125.587 48.8834L125.82 47.5172C126.001 46.543 126.555 45.6772 127.364 45.1027C128.173 44.5281 129.174 44.2898 130.156 44.438C130.649 44.5125 131.122 44.6848 131.547 44.945C131.973 45.2052 132.341 45.5478 132.631 45.9527C132.921 46.3575 133.127 46.8163 133.237 47.302C133.346 47.7876 133.356 48.2901 133.267 48.7799L133.252 48.7592Z" fill="#4B5563"/>
  </g>
  <defs>
    <clipPath id="clip0_428_3540">
      <rect width="204" height="221" fill="white" transform="translate(0.5)"/>
    </clipPath>
  </defs>
</svg>