<svg width="543" height="437" viewBox="0 0 543 437" fill="none" xmlns="http://www.w3.org/2000/svg">
<path d="M53.6895 197.244C54.336 204.561 54.0617 212.162 51.133 218.901C48.2042 225.64 42.2292 231.38 34.9612 232.448C26.3513 233.712 17.8589 228.158 13.2258 220.802C8.59272 213.436 7.10387 204.571 6.10476 195.932C4.86078 185.059 4.37102 173.501 9.37634 163.765C14.1662 154.449 29.7208 144.566 38.4581 154.038C48.1063 164.499 52.4749 183.58 53.6797 197.244H53.6895Z" fill="#AAF1F7"/>
<path d="M525.041 180.534H39.4375V197.039H525.041V180.534Z" fill="#4883B2"/>
<path d="M261.618 0C251.97 6.15134 242.43 12.5769 234.055 20.3837C225.69 28.1904 218.481 37.4566 214.328 48.1235C207.598 65.3727 209.597 85.7857 219.548 101.399C246.887 76.069 262.686 37.2705 261.618 0.00979513V0Z" fill="#57A0CF"/>
<path d="M208.225 115.161C197.539 112.34 188.302 104.974 182.337 95.6589C176.372 86.3437 173.531 75.2263 173.306 64.1774C173.071 53.1187 175.353 42.1187 178.987 31.6771C187.861 44.2247 197.137 56.9877 203.279 71.0731C209.342 84.9822 211.418 100.331 208.235 115.161H208.225Z" fill="#57A0CF"/>
<path d="M228.901 114.446C228.519 102.633 233.054 90.8986 240.518 81.7401C247.982 72.5719 258.238 65.8916 269.316 61.7679C280.394 57.6441 292.286 55.9789 304.099 55.8418C286.898 83.1114 259.168 103.368 228.891 114.456L228.901 114.446Z" fill="#57A0CF"/>
<path d="M222.472 127.004C222.081 127.004 221.728 126.729 221.64 126.328C217.732 108.579 218.016 89.8703 222.443 72.2391C226.871 54.6078 235.471 37.9953 247.303 24.2037C247.607 23.8413 248.155 23.8021 248.508 24.1058C248.87 24.4192 248.91 24.958 248.596 25.3106C236.94 38.9062 228.467 55.2739 224.098 72.6504C219.73 90.027 219.456 108.452 223.305 125.946C223.403 126.406 223.119 126.866 222.649 126.964C222.59 126.974 222.521 126.984 222.463 126.984L222.472 127.004Z" fill="#4883B2"/>
<path d="M221.586 133.537C221.507 133.537 221.419 133.527 221.341 133.498C220.89 133.36 220.626 132.881 220.763 132.43C229.48 103.348 251.049 78.2139 278.476 65.1864C278.897 64.9807 279.416 65.1668 279.622 65.5978C279.827 66.0288 279.641 66.5381 279.21 66.7438C252.225 79.5657 230.989 104.308 222.408 132.93C222.301 133.302 221.958 133.537 221.586 133.537Z" fill="#4883B2"/>
<path d="M226.776 138.209C226.561 138.209 226.345 138.131 226.179 137.964C201.456 113.78 185.157 81.5931 180.279 47.3591C180.21 46.8889 180.533 46.458 181.004 46.3894C181.464 46.3306 181.905 46.6441 181.973 47.1142C186.792 80.9858 202.915 112.81 227.374 136.74C227.717 137.073 227.717 137.611 227.383 137.954C227.217 138.131 226.992 138.209 226.766 138.209H226.776Z" fill="#4883B2"/>
<path d="M237.601 180.514H206.756L185.207 121.028H259.15L237.601 180.514Z" fill="#4883B2"/>
<path d="M210.351 163.657L194.904 121.028H185.207L206.756 180.514H237.601L241.372 170.112H219.568C215.445 170.112 211.762 167.526 210.361 163.657H210.351Z" fill="#386693"/>
<path d="M59.2526 31.8143C57.4111 65.294 73.0735 113.506 94.2408 139.512C96.0822 106.032 80.4198 57.8203 59.2526 31.8143Z" fill="#4883B2"/>
<path d="M129.237 31.8143C131.078 65.294 115.416 113.506 94.2487 139.512C92.4072 106.032 108.07 57.8203 129.237 31.8143Z" fill="#4883B2"/>
<path d="M94.2419 17.2784C81.185 51.0325 81.185 105.758 94.2419 139.512C107.299 105.758 107.299 51.0325 94.2419 17.2784Z" fill="#57A0CF"/>
<path d="M29.2891 46.7423C37.3113 79.3013 66.393 120.823 94.2406 139.502C86.2183 106.943 57.1366 65.4216 29.2891 46.7423Z" fill="#57A0CF"/>
<path d="M159.19 46.7425C151.168 79.3015 122.086 120.823 94.2383 139.502C102.26 106.943 131.342 65.4218 159.19 46.7425Z" fill="#57A0CF"/>
<path d="M109.671 180.514H78.8266L57.2773 121.028H131.221L109.671 180.514Z" fill="#4883B2"/>
<path d="M82.4097 163.657L66.9628 121.028H57.2656L78.8149 180.514H109.66L113.431 170.112H91.6269C87.5032 170.112 83.8202 167.526 82.4195 163.657H82.4097Z" fill="#386693"/>
<path d="M334.198 112.184C330.927 104.71 331.025 95.8357 334.463 88.4404C335.55 86.0993 336.97 83.8758 337.509 81.3487C339.429 72.5037 330.202 63.6587 333.091 55.0781C335.325 48.4468 343.582 45.9001 347.324 39.9839C350.145 35.5271 349.988 29.8851 351.075 24.723C352.162 19.561 355.689 13.9484 360.968 14.0072C365.621 14.0561 369.108 18.7872 369.568 23.4203C370.029 28.0534 368.324 32.5885 366.855 37.0061C365.386 41.4237 364.122 46.2136 365.474 50.6703C367.355 56.8805 374.084 61.9445 372.673 68.282C371.772 72.3372 367.805 74.8741 365.621 78.4101C362.829 82.9453 363.202 88.7244 364.25 93.955C365.298 99.1758 366.943 104.426 366.365 109.725C365.582 116.905 359.176 125.27 351.741 126.72C344.336 128.16 336.725 118.012 334.169 112.164L334.198 112.184Z" fill="#57A0CF"/>
<path d="M372.697 68.3009C373.402 65.1076 372.041 62.2377 370.287 59.3775C367.3 60.4256 364.185 61.1308 361.158 62.1005C357.583 63.2466 353.969 64.9607 351.392 67.674C348.895 81.4459 347.073 95.0905 345.682 105.777C345.368 94.3461 346.436 79.4085 349.149 64.6473C347.651 61.7283 345.143 59.2306 342.616 57.0462C340.285 55.0285 337.797 53.0302 335.818 50.6892C334.633 51.9724 333.663 53.4025 333.095 55.097C330.206 63.6776 339.433 72.5128 337.513 81.3676C336.964 83.8849 335.554 86.1182 334.466 88.4592C331.028 95.8545 330.921 104.729 334.202 112.203C336.759 118.041 344.379 128.198 351.774 126.758C359.209 125.309 365.615 116.943 366.399 109.764C366.976 104.464 365.331 99.2143 364.283 93.9935C363.235 88.7727 362.853 82.9837 365.654 78.4486C367.829 74.9126 371.805 72.3756 372.707 68.3204L372.697 68.3009Z" fill="#4883B2"/>
<path d="M351.393 67.6643C351.609 66.4497 351.834 65.2351 352.069 64.0205C354.871 49.0241 358.475 34.1943 361.296 22.8124C356.732 33.6066 352.187 48.3777 349.366 63.5111C349.297 63.8834 349.229 64.2556 349.16 64.6376C349.816 65.9207 350.277 67.2823 350.463 68.7417C350.757 68.3597 351.07 68.0071 351.403 67.6643H351.393Z" fill="#4883B2"/>
<path d="M345.681 105.767C347.071 95.0808 348.893 81.4362 351.391 67.6643C351.058 68.0071 350.745 68.3695 350.451 68.7417C350.274 67.2823 349.814 65.9207 349.148 64.6376C346.435 79.3988 345.357 94.3364 345.681 105.767Z" fill="#386693"/>
<path d="M321.587 119.726C321.529 114.329 317.082 110.146 312.958 106.669C308.834 103.191 304.348 99.0677 304.191 93.6706C304.054 88.871 307.443 84.6983 308.344 79.9868C309.402 74.4232 306.905 68.84 304.142 63.9032C301.38 58.9665 298.207 53.9709 297.736 48.3387C297.276 42.6968 300.724 36.2418 306.356 35.6932C311.312 35.2133 315.554 39.3468 317.885 43.7546C320.206 48.1624 321.45 53.1775 324.526 57.0858C329.414 63.2959 338.523 66.254 340.884 73.8061C342.784 79.8791 339.375 86.2459 338.915 92.6029C337.838 107.315 351.218 118.07 353.069 132.146C355.195 148.298 338.161 158.877 326.221 146.75C323.096 143.577 320.481 139.443 319.628 135.035C318.561 129.501 321.636 125.084 321.587 119.735V119.726Z" fill="#57A0CF"/>
<path d="M353.066 132.136C352.214 125.642 348.903 119.853 345.69 114.064C337.462 118.874 331.154 127.885 330.39 137.387C330.018 142.02 330.821 146.721 332.594 151.021C343.369 155.126 354.829 145.565 353.056 132.146L353.066 132.136Z" fill="#4883B2"/>
<path d="M350.364 150.091C345.545 146.584 342.254 141.05 341.47 135.143C340.686 129.237 342.42 123.036 346.152 118.384C349.737 113.927 355.125 110.734 357.201 105.405C359.043 100.655 357.818 95.3456 356.819 90.3501C355.83 85.3546 355.203 79.7714 357.994 75.5105C362.941 67.9585 374.803 69.4375 381.904 63.8641C385.744 60.8472 387.742 56.1161 390.563 52.1295C393.384 48.1429 398.027 44.5481 402.768 45.7431C407.372 46.9087 409.84 52.2569 409.458 56.9879C409.066 61.719 406.559 65.9602 404.228 70.0938C401.896 74.2273 399.614 78.6645 399.751 83.4054C399.869 87.6761 401.945 92.0447 400.496 96.0607C399.134 99.8514 395.118 101.918 391.367 103.358C387.615 104.808 383.501 106.179 381.16 109.451C379.103 112.33 378.868 116.121 379.25 119.638C379.642 123.154 380.582 126.612 380.621 130.138C380.7 138.062 375.773 145.82 368.554 149.101C362.921 151.668 355.36 153.725 350.364 150.091Z" fill="#57A0CF"/>
<path d="M355.668 145.8C358.117 139.267 360.987 131.773 364.317 123.908C367.638 116.042 371.428 107.805 375.523 99.7238C379.627 91.6526 384.044 83.7283 388.433 76.4114C392.811 69.0846 397.17 62.3456 401 56.5175C396.308 61.6795 391.254 67.9876 386.366 75.089C381.478 82.1905 376.757 90.0756 372.604 98.2545C368.451 106.433 364.866 114.896 362.025 123.036C359.175 131.176 357.069 138.973 355.668 145.81V145.8Z" fill="#4883B2"/>
<path d="M333.175 123.8C331.873 112.604 328.866 98.0783 324.507 83.9537C320.177 69.8095 314.516 56.1061 309.305 46.1151C312.89 56.8016 317.68 70.6911 321.98 84.7373C326.309 98.7737 330.149 112.947 333.185 123.81L333.175 123.8Z" fill="#4883B2"/>
<path d="M366.38 180.514H330.392L314.25 135.946H382.532L366.38 180.514Z" fill="#4883B2"/>
<path d="M333.086 167.888L321.518 135.946H314.25L330.392 180.514H366.38L369.201 172.727H339.982C336.896 172.727 334.134 170.797 333.086 167.888Z" fill="#386693"/>
<path d="M447.98 145.516C460.508 125.809 466.983 102.31 466.307 78.9683C465.631 55.6265 458.246 32.4218 444.591 13.4683C448.578 44.558 434.904 75.9024 438.841 107.002C440.497 120.059 443.318 133.204 447.98 145.516Z" fill="#4883B2"/>
<path d="M419.799 29.3365C438.92 63.6096 448.088 103.358 445.903 142.539C433.17 137.259 424.511 125.427 421.053 112.076C417.596 98.7251 418.458 84.6789 419.701 70.9462C420.945 57.2134 421.837 42.9615 419.799 29.3267V29.3365Z" fill="#57A0CF"/>
<path d="M444.828 145.536C447.052 103.309 470.501 62.7475 505.979 39.7388C491.884 60.1224 490.268 87.7545 479.797 110.215C472.578 125.681 459.158 136.25 444.828 145.536Z" fill="#57A0CF"/>
<path d="M459.084 180.514H432.764L414.379 129.756H477.469L459.084 180.514Z" fill="#4883B2"/>
<path d="M435.83 166.126L422.656 129.746H414.379L432.764 180.505H459.084L462.297 171.63H443.686C440.169 171.63 437.025 169.426 435.83 166.116V166.126Z" fill="#386693"/>
<path d="M253.497 339.636H159.797V422.62H253.497V339.636Z" fill="#386693"/>
<path d="M159.797 422.62H253.497V339.636L159.797 422.62Z" fill="#2A4D7C"/>
<path d="M360.333 342.721C360.607 332.818 363.389 323.189 365.475 313.502C367.552 303.814 368.933 293.657 366.406 284.087C363.879 274.507 356.65 265.613 346.923 263.742C337.197 261.872 325.962 269.345 326.118 279.248C325.746 269.913 325.364 260.49 322.945 251.469C320.525 242.448 315.863 233.73 308.379 228.137C300.896 222.544 290.317 220.624 281.981 224.846C272.999 229.411 268.396 240.019 268.18 250.088C267.955 260.157 271.334 269.923 274.674 279.424C270.57 272.764 259.903 272.989 254.193 278.337C248.482 283.685 246.905 292.168 247.258 299.984C248.022 316.852 256.7 333.2 270.237 343.279L360.342 342.701L360.333 342.721Z" fill="#57A0CF"/>
<path d="M274.988 317.253C276.261 309.535 278.759 301.13 282.824 290.845C282.922 290.591 282.804 290.307 282.55 290.209C282.295 290.111 282.011 290.228 281.913 290.483C278.103 300.112 275.664 308.114 274.312 315.461L262.068 282.892C261.97 282.637 261.686 282.51 261.441 282.608C261.187 282.706 261.059 282.98 261.157 283.235L273.734 316.705C266.437 311.778 259.825 305.91 254.056 299.25C253.879 299.044 253.566 299.024 253.36 299.201C253.155 299.377 253.135 299.69 253.311 299.896C259.384 306.909 266.388 313.061 274.126 318.164C274.175 318.193 274.234 318.203 274.292 318.213L282.687 340.546C282.765 340.742 282.951 340.859 283.147 340.859C283.206 340.859 283.265 340.859 283.324 340.83C283.578 340.732 283.706 340.458 283.608 340.203L274.988 317.263V317.253Z" fill="#4883B2"/>
<path d="M321.434 290.17C321.18 290.111 320.906 290.278 320.847 290.542C318.653 300.279 314.813 309.466 309.445 317.871C307.809 304.765 305.566 291.727 302.716 278.827C302.814 278.788 302.912 278.72 302.961 278.612C307.036 270.668 310.16 262.244 312.247 253.566C312.305 253.301 312.149 253.037 311.884 252.978C311.61 252.919 311.355 253.076 311.297 253.34C309.289 261.705 306.291 269.826 302.422 277.505C300.777 270.178 298.955 262.891 296.927 255.662C295.184 249.432 293.293 243.232 291.256 237.08C291.168 236.826 290.893 236.679 290.639 236.767C290.384 236.855 290.247 237.129 290.325 237.384C292.225 243.144 293.998 248.942 295.654 254.78C293.695 253.683 291.706 252.537 289.777 251.411C287.494 250.079 285.124 248.697 282.822 247.434C282.587 247.307 282.283 247.395 282.156 247.63C282.029 247.865 282.117 248.169 282.352 248.296C284.644 249.55 287.005 250.931 289.287 252.263C291.51 253.556 293.802 254.898 296.046 256.132C299.582 268.768 302.52 281.56 304.871 294.46C297.574 289.494 290.717 283.823 284.507 277.564C284.321 277.368 284.007 277.368 283.811 277.564C283.615 277.75 283.615 278.063 283.811 278.259C290.296 284.783 297.456 290.689 305.086 295.802C305.086 295.802 305.096 295.802 305.106 295.802C307.672 310.162 309.504 324.649 310.581 339.195C310.601 339.449 310.817 339.645 311.071 339.645C311.081 339.645 311.101 339.645 311.11 339.645C311.385 339.626 311.581 339.391 311.561 339.116C311.071 332.446 310.415 325.785 309.612 319.144C309.739 319.115 309.857 319.056 309.935 318.948C315.557 310.299 319.554 300.817 321.816 290.758C321.875 290.493 321.709 290.229 321.444 290.17H321.434Z" fill="#4883B2"/>
<path d="M356.133 282.843C355.869 282.765 355.604 282.912 355.516 283.166C353.939 288.26 351.118 292.912 347.357 296.693C347.523 289.249 347.21 281.805 346.368 274.458C346.338 274.194 346.084 273.998 345.829 274.027C345.564 274.057 345.369 274.302 345.398 274.566C346.515 284.371 346.72 294.352 346.035 304.275C342.704 297.281 338.316 290.885 332.958 285.272C332.772 285.076 332.459 285.066 332.263 285.253C332.067 285.439 332.057 285.752 332.243 285.948C337.924 291.903 342.518 298.74 345.878 306.253C344.967 317.616 342.9 328.9 339.687 339.743C339.609 339.998 339.756 340.272 340.02 340.35C340.069 340.36 340.109 340.37 340.158 340.37C340.373 340.37 340.559 340.233 340.628 340.017C344.653 326.421 346.897 312.15 347.318 297.869C347.328 297.869 347.337 297.869 347.347 297.869C347.474 297.869 347.592 297.82 347.69 297.732C351.735 293.784 354.762 288.847 356.437 283.44C356.515 283.186 356.368 282.911 356.114 282.823L356.133 282.843Z" fill="#4883B2"/>
<path d="M350.319 422.62H266.649L236.578 325.618H380.39L350.319 422.62Z" fill="#4883B2"/>
<path d="M260.762 325.619H236.578L266.639 422.62H350.319L355.08 407.271H308.318C295.084 407.271 283.399 398.661 279.481 386.015L260.762 325.609V325.619Z" fill="#386693"/>
<path d="M82.7297 334.199C77.0387 307.488 67.3415 281.442 54.2062 257.346C57.7913 255.769 61.0432 253.036 63.5606 249.559L61.582 249.216C62.5321 248.903 63.5018 248.589 64.4617 248.247C66.6656 244.799 68.1447 240.753 68.7226 236.649C67.655 237.335 66.6167 238.001 65.5294 238.628C66.6852 237.452 67.8117 236.228 68.9087 234.955C69.3789 229.401 68.1153 223.916 65.3825 219.733C63.5704 221.849 62.0228 224.121 60.6808 226.482C60.8963 227.667 61.1314 228.862 61.2979 230.067C60.9257 229.205 60.5143 228.353 60.0931 227.52C58.3986 230.664 57.037 233.956 56.0085 237.345C56.3318 238.853 56.6256 240.401 56.8607 241.968C56.4003 241.028 55.9596 240.117 55.4698 239.216C53.9712 244.877 53.3051 250.803 53.9124 256.788C50.5429 250.637 46.9383 244.632 43.1377 238.765C45.469 236.855 47.3888 234.298 48.7406 231.36L47.095 231.399L49.2597 230.175C50.4841 227.099 51.1012 223.69 51.0522 220.35C50.2784 221.026 49.5046 221.692 48.7112 222.339C49.4948 221.241 50.249 220.125 50.9934 218.979C50.6898 214.483 49.1422 210.212 46.5562 207.009C45.2535 208.89 44.1956 210.908 43.3336 213.004C43.6373 213.964 43.9507 214.924 44.225 215.903C43.8234 215.237 43.3924 214.581 42.9712 213.934C41.9134 216.726 41.2081 219.635 40.8163 222.593C41.2767 223.798 41.737 225.032 42.1582 226.276C41.6489 225.581 41.1591 224.895 40.6302 224.209C40.2776 228.245 40.5224 232.339 41.5118 236.267C38.9454 232.408 36.3007 228.598 33.5581 224.875C33.47 224.748 33.3524 224.66 33.2153 224.601C32.99 221.232 31.9321 217.813 30.1886 214.659L29.1405 216.168L29.4735 213.425C27.5439 210.32 24.958 207.518 21.9901 205.324C22.0586 206.461 22.1174 207.587 22.1566 208.723C21.7158 207.293 21.2456 205.873 20.7461 204.453C16.6027 201.7 11.8423 200.123 7.25819 200.123C7.97324 202.562 9.00172 204.903 10.2555 207.107C11.3036 207.509 12.3712 207.9 13.4193 208.322C12.5574 208.224 11.6856 208.145 10.8138 208.067C12.5476 210.917 14.6633 213.552 17.0631 215.903C18.4638 216.305 19.8645 216.736 21.275 217.196C20.3151 217.176 19.365 217.157 18.405 217.167C22.3231 220.683 26.8974 223.485 31.8733 225.081C31.746 225.385 31.7558 225.747 31.9713 226.041C33.9205 228.686 35.811 231.389 37.6721 234.112C35.2429 232.476 32.5394 231.184 29.6792 230.233L29.9633 232.261L28.2002 229.783C24.4095 228.705 20.3935 228.235 16.4362 228.382L18.8752 231.213L14.8004 228.48C9.47189 228.901 4.31965 230.459 0 233.211C2.13534 235.072 4.57433 236.61 7.20921 237.825L10.9412 236.855L8.37484 238.334C11.9011 239.803 15.7408 240.695 19.6294 241.008L24.2723 239.049L21.7648 241.126C28.0435 241.273 34.3221 239.872 39.5135 236.855C43.0986 242.242 46.5073 247.757 49.7201 253.379C47.2223 251.117 44.1564 249.334 40.7967 248.139L41.022 250.098L39.347 247.659C35.6053 246.532 31.5697 246.111 27.6321 246.425C28.4842 247.297 29.3266 248.168 30.1494 249.05C28.7879 248.207 27.4166 247.394 26.0159 246.591C20.7461 247.267 15.7995 249.314 12.0578 252.498C14.3401 253.996 16.8084 255.182 19.3846 256.102C20.5208 255.691 21.6668 255.26 22.8129 254.878C22.039 255.407 21.275 255.946 20.511 256.494C23.9295 257.601 27.5145 258.247 31.1191 258.443C32.5394 257.787 33.9793 257.131 35.4388 256.504C34.6552 257.17 33.8716 257.826 33.1075 258.512C39.1315 258.571 45.1751 257.434 50.5429 254.809C53.0112 259.198 55.3719 263.645 57.6051 268.16C55.3131 266.25 52.5705 264.751 49.5829 263.743L49.8278 265.594L48.192 263.312C44.5972 262.312 40.7183 261.999 36.9668 262.41C37.8092 263.214 38.632 264.017 39.445 264.84C38.1226 264.076 36.7905 263.341 35.429 262.626C30.4139 263.439 25.771 265.574 22.3623 268.767C24.5956 270.09 26.9856 271.108 29.454 271.882C30.5118 271.451 31.5795 271.001 32.657 270.589C31.9419 271.118 31.2367 271.657 30.5412 272.206C33.8128 273.126 37.2117 273.636 40.6204 273.734C41.9427 273.067 43.2847 272.421 44.656 271.794C43.9214 272.45 43.2063 273.087 42.4913 273.753C48.0549 273.675 53.6087 272.548 58.6043 270.149C60.1813 273.391 61.6799 276.662 63.1296 279.963C60.1127 278.651 56.6942 278.024 53.1777 278.102L54.0397 279.767L51.7085 278.161C47.9472 278.445 44.1466 279.513 40.7477 281.237C41.8252 281.687 42.8929 282.138 43.9507 282.628C42.4423 282.373 40.9142 282.167 39.3666 281.981C34.9196 284.547 31.3346 288.289 29.3854 292.54C31.9615 292.922 34.5474 292.991 37.1235 292.805C37.9463 292.021 38.7691 291.208 39.6311 290.444C39.1511 291.188 38.7006 291.962 38.25 292.717C41.6195 292.393 44.9498 291.659 48.1626 290.571C49.1618 289.494 50.1902 288.407 51.2579 287.359C50.7975 288.23 50.347 289.073 49.916 289.945C55.0094 287.976 59.7895 285.125 63.7271 281.305C65.3237 284.988 66.8518 288.691 68.2916 292.432C64.6283 291.482 60.5731 291.463 56.5669 292.344L57.8696 293.99C56.9097 293.569 55.9302 293.147 54.9409 292.736C50.8171 293.892 46.8403 295.988 43.5002 298.76C44.8127 298.985 46.0861 299.211 47.3692 299.485C45.6453 299.583 43.9116 299.73 42.1582 299.936C37.8778 303.893 34.9588 309.006 34.0675 314.178C36.9668 313.854 39.7878 313.208 42.5207 312.336C43.1965 311.268 43.8724 310.171 44.607 309.114C44.2838 310.054 43.9997 311.004 43.7157 311.944C47.2713 310.72 50.68 309.114 53.883 307.184C54.7058 305.773 55.5678 304.353 56.4885 302.962C56.1849 304.02 55.891 305.039 55.6265 306.097C60.6416 302.825 65.1964 298.77 68.8108 293.843C70.6719 298.76 72.386 303.716 73.963 308.722C71.2987 308.702 68.5953 309.143 65.98 309.985L67.1064 311.141L64.8242 310.377C61.8954 311.455 59.1136 313.022 56.6452 314.961L59.525 315.627L55.6461 315.774C52.4431 318.527 49.867 321.926 48.3879 325.697C50.6212 325.893 52.8937 325.736 55.1466 325.285L57.086 322.925L56.1359 325.07C59.0744 324.365 61.9444 323.15 64.5793 321.534L66.6265 318.115L65.9898 320.613C69.6336 318.086 72.6994 314.775 74.6781 311.004C77.0583 318.781 79.1251 326.637 80.8098 334.571C80.9078 335.031 81.3192 335.345 81.7697 335.345C81.8383 335.345 81.9069 335.345 81.9754 335.325C82.5044 335.208 82.8472 334.689 82.7297 334.16V334.199Z" fill="#57A0CF"/>
<path d="M97.3731 331.995C103.965 305.49 106.649 277.828 105.395 250.421C109.313 250.578 113.437 249.54 117.208 247.512L115.582 246.337C116.572 246.474 117.58 246.611 118.599 246.729C122.086 244.593 125.191 241.606 127.513 238.168C126.259 238.315 125.025 238.452 123.771 238.54C125.328 237.991 126.876 237.384 128.424 236.728C131.284 231.938 132.547 226.453 131.921 221.496C129.364 222.603 126.984 223.965 124.731 225.503C124.408 226.658 124.094 227.844 123.712 228.999C123.751 228.059 123.751 227.119 123.751 226.178C120.852 228.255 118.188 230.625 115.778 233.221C115.406 234.72 114.995 236.238 114.515 237.756C114.515 236.708 114.515 235.699 114.475 234.671C110.655 239.108 107.462 244.143 105.376 249.785C105.043 242.781 104.435 235.807 103.583 228.862C106.512 228.167 109.362 226.707 111.86 224.66L110.361 223.974L112.84 223.828C115.288 221.594 117.336 218.812 118.756 215.776C117.757 216.04 116.777 216.305 115.788 216.54C116.973 215.893 118.139 215.218 119.314 214.522C121.019 210.349 121.489 205.834 120.568 201.818C118.57 202.935 116.738 204.286 115.044 205.795C114.897 206.784 114.759 207.793 114.573 208.792C114.495 208.018 114.407 207.235 114.309 206.471C112.144 208.518 110.224 210.82 108.579 213.308C108.471 214.601 108.334 215.903 108.167 217.216C108.02 216.364 107.873 215.531 107.697 214.698C105.621 218.166 104.044 221.957 103.211 225.924C102.604 221.33 101.889 216.746 101.046 212.201C101.017 212.054 100.948 211.917 100.86 211.799C102.134 208.665 102.682 205.138 102.496 201.534L100.89 202.425L102.388 200.114C102.016 196.47 100.919 192.826 99.2146 189.554C98.7738 190.612 98.3428 191.651 97.8727 192.679C98.098 191.2 98.3036 189.721 98.4702 188.222C95.9528 183.932 92.358 180.435 88.2441 178.427C87.8131 180.935 87.7151 183.481 87.8816 186.018C88.6554 186.841 89.4391 187.654 90.1933 188.497C89.4586 188.026 88.7142 187.576 87.96 187.125C88.2734 190.456 89.0179 193.747 90.1443 196.911C91.2218 197.89 92.2992 198.889 93.3571 199.908C92.4951 199.467 91.6528 199.036 90.7908 198.625C92.7792 203.503 95.659 208.018 99.4399 211.642C99.1852 211.858 99.0383 212.191 99.1068 212.544C99.7043 215.776 100.223 219.038 100.703 222.29C99.2342 219.753 97.3731 217.402 95.2084 215.306L94.5815 217.255L94.0819 214.258C91.1434 211.633 87.7445 209.448 84.1203 207.842L85.0802 211.456L82.6216 207.215C77.6457 205.266 72.327 204.404 67.2433 204.982C68.3403 207.587 69.8684 210.046 71.7001 212.289L75.481 213.053L72.5229 213.259C75.0598 216.119 78.1159 218.607 81.4658 220.595L86.5005 220.86L83.3367 221.624C88.9199 224.513 95.1692 225.992 101.164 225.561C102.036 231.967 102.672 238.422 103.093 244.887C101.84 241.753 99.8611 238.814 97.3633 236.267L96.707 238.119L96.2663 235.2C93.3963 232.555 89.9484 230.4 86.2752 228.96C86.6572 230.116 87.0392 231.262 87.3919 232.428C86.5397 231.076 85.6581 229.734 84.7472 228.402C79.7125 226.707 74.3741 226.374 69.6137 227.599C71.0046 229.94 72.709 232.085 74.619 234.044C75.8238 234.171 77.0384 234.289 78.2432 234.445C77.3127 234.583 76.3919 234.73 75.4712 234.896C78.0571 237.384 80.9957 239.539 84.1497 241.302C85.7169 241.331 87.2939 241.371 88.8807 241.449C87.8816 241.704 86.8923 241.958 85.903 242.233C91.2903 244.926 97.2262 246.552 103.191 246.542C103.495 251.567 103.662 256.602 103.691 261.637C102.467 258.914 100.664 256.367 98.4114 254.153L97.8237 255.926L97.3535 253.154C94.5619 250.676 91.212 248.707 87.6563 247.434C88.0579 248.531 88.4497 249.608 88.822 250.705C87.9698 249.442 87.0882 248.198 86.1773 246.954C81.3189 245.485 76.196 245.377 71.7393 246.758C73.1694 248.923 74.8639 250.882 76.7446 252.664C77.8808 252.743 79.0366 252.802 80.1827 252.909C79.3109 253.066 78.4391 253.252 77.5674 253.438C80.1043 255.701 82.9351 257.64 85.952 259.227C87.4311 259.208 88.9297 259.208 90.4284 259.247C89.488 259.511 88.5575 259.776 87.627 260.06C92.6617 262.42 98.1469 263.85 103.691 263.88C103.691 267.484 103.603 271.089 103.456 274.684C101.321 272.186 98.5191 270.119 95.3259 268.65L95.3651 270.521L93.9742 268.053C90.4675 266.652 86.5887 265.956 82.7784 266.025C83.5522 266.907 84.3064 267.778 85.041 268.679C83.7873 267.788 82.5139 266.936 81.2014 266.094C76.0785 266.446 71.2201 268.248 67.6057 271.207C69.7509 272.676 72.0527 273.871 74.4427 274.841C75.53 274.498 76.627 274.126 77.7339 273.812C76.9797 274.272 76.2352 274.762 75.5006 275.252C78.6742 276.437 81.985 277.24 85.3447 277.671C86.716 277.142 88.1167 276.613 89.537 276.134C88.7436 276.711 87.96 277.27 87.196 277.867C92.6323 278.328 98.1763 277.867 103.397 276.153C103.221 280.159 102.966 284.166 102.623 288.152C99.7435 285.694 96.1095 283.901 92.1229 282.941L92.5735 284.998C91.8976 284.195 91.2022 283.392 90.4871 282.589C86.2752 281.825 81.7793 281.962 77.5674 282.99C78.6448 283.764 79.6929 284.528 80.7312 285.341C79.1346 284.675 77.5086 284.048 75.8532 283.46C70.27 285.145 65.4018 288.466 62.3359 292.717C65.0884 293.696 67.9094 294.352 70.7402 294.764C71.8176 294.108 72.9049 293.412 74.0215 292.785C73.3261 293.491 72.6404 294.215 71.9841 294.94C75.7161 295.401 79.4774 295.44 83.2094 295.117C84.5709 294.215 85.9618 293.314 87.4017 292.462C86.667 293.275 85.952 294.068 85.2565 294.901C91.2022 294.157 97.0695 292.501 102.476 289.661C101.996 294.891 101.37 300.102 100.596 305.294C98.2057 304.108 95.5806 303.325 92.8674 302.933L93.3767 304.471L91.6626 302.786C88.5575 302.473 85.3643 302.669 82.2984 303.325L84.5905 305.186L81.0446 303.628C76.9601 304.696 73.1596 306.626 70.172 309.368C72.0919 310.524 74.2076 311.386 76.4311 311.964L79.2031 310.691L77.4106 312.199C80.3688 312.846 83.4738 313.012 86.5495 312.718L89.8896 310.544L88.2245 312.513C92.6127 311.837 96.8148 310.201 100.243 307.684C98.9795 315.716 97.3927 323.689 95.4337 331.554C95.3161 332.015 95.5512 332.475 95.9528 332.671C96.0116 332.7 96.0802 332.72 96.1487 332.74C96.6777 332.867 97.2066 332.553 97.3339 332.025L97.3731 331.995Z" fill="#57A0CF"/>
<path d="M108.931 334.199C114.622 307.488 124.329 281.443 137.455 257.347C133.87 255.77 130.618 253.037 128.1 249.559L130.079 249.217C129.129 248.903 128.159 248.59 127.199 248.247C124.995 244.799 123.516 240.754 122.938 236.649C124.006 237.335 125.044 238.001 126.132 238.628C124.976 237.453 123.849 236.228 122.752 234.955C122.282 229.401 123.546 223.916 126.279 219.733C128.091 221.849 129.638 224.121 130.98 226.482C130.765 227.667 130.53 228.862 130.363 230.067C130.735 229.205 131.147 228.353 131.568 227.52C133.262 230.665 134.624 233.956 135.652 237.345C135.329 238.853 135.035 240.401 134.8 241.968C135.261 241.028 135.701 240.117 136.191 239.216C137.69 244.877 138.356 250.803 137.749 256.788C141.118 250.637 144.723 244.632 148.523 238.765C146.192 236.855 144.282 234.299 142.92 231.36L144.566 231.399L142.401 230.175C141.177 227.099 140.56 223.691 140.609 220.35C141.383 221.026 142.156 221.692 142.95 222.339C142.166 221.242 141.412 220.125 140.668 218.979C140.971 214.483 142.519 210.212 145.105 207.009C146.408 208.89 147.465 210.908 148.327 213.004C148.024 213.964 147.71 214.924 147.436 215.903C147.838 215.237 148.269 214.581 148.69 213.935C149.748 216.726 150.453 219.635 150.835 222.593C150.375 223.798 149.914 225.032 149.493 226.276C150.002 225.581 150.492 224.895 151.021 224.21C151.374 228.245 151.129 232.34 150.139 236.267C152.706 232.408 155.35 228.598 158.093 224.876C158.181 224.748 158.299 224.66 158.436 224.601C158.661 221.232 159.719 217.813 161.463 214.659L162.511 216.168L162.178 213.425C164.107 210.32 166.693 207.519 169.661 205.325C169.593 206.461 169.534 207.587 169.495 208.724C169.935 207.293 170.406 205.873 170.905 204.453C175.048 201.7 179.809 200.123 184.393 200.123C183.678 202.562 182.649 204.903 181.396 207.107C180.348 207.509 179.28 207.901 178.232 208.322C179.094 208.224 179.966 208.146 180.837 208.067C179.104 210.918 176.988 213.553 174.588 215.903C173.187 216.305 171.787 216.736 170.376 217.196C171.336 217.177 172.286 217.157 173.246 217.167C169.328 220.683 164.754 223.485 159.778 225.081C159.905 225.385 159.895 225.747 159.68 226.041C157.731 228.686 155.84 231.389 153.979 234.113C156.408 232.477 159.112 231.184 161.972 230.234L161.688 232.261L163.451 229.783C167.242 228.706 171.258 228.235 175.215 228.382L172.776 231.213L176.851 228.48C182.179 228.902 187.332 230.459 191.651 233.211C189.516 235.072 187.077 236.61 184.442 237.825L180.71 236.855L183.276 238.334C179.75 239.803 175.91 240.695 172.022 241.008L167.379 239.049L169.886 241.126C163.608 241.273 157.329 239.872 152.138 236.855C148.553 242.242 145.144 247.757 141.931 253.38C144.429 251.117 147.495 249.334 150.854 248.139L150.629 250.098L152.304 247.659C156.046 246.533 160.082 246.112 164.019 246.425C163.167 247.297 162.325 248.169 161.502 249.05C162.863 248.208 164.235 247.395 165.635 246.592C170.905 247.267 175.852 249.315 179.593 252.498C177.311 253.997 174.843 255.182 172.267 256.103C171.13 255.691 169.984 255.26 168.838 254.878C169.612 255.407 170.376 255.946 171.14 256.494C167.722 257.601 164.137 258.248 160.532 258.444C159.112 257.787 157.672 257.131 156.212 256.504C156.996 257.17 157.78 257.827 158.544 258.512C152.52 258.571 146.476 257.435 141.108 254.81C138.64 259.198 136.279 263.645 134.046 268.16C136.338 266.25 139.081 264.752 142.068 263.743L141.823 265.594L143.459 263.312C147.054 262.313 150.933 261.999 154.684 262.411C153.842 263.214 153.019 264.017 152.206 264.84C153.529 264.076 154.861 263.341 156.222 262.626C161.237 263.439 165.88 265.574 169.289 268.768C167.056 270.09 164.666 271.109 162.197 271.883C161.139 271.452 160.072 271.001 158.994 270.59C159.709 271.119 160.415 271.657 161.11 272.206C157.838 273.127 154.44 273.636 151.031 273.734C149.708 273.068 148.367 272.421 146.995 271.794C147.73 272.451 148.445 273.087 149.16 273.753C143.596 273.675 138.042 272.549 133.047 270.149C131.47 273.391 129.971 276.663 128.522 279.964C131.538 278.651 134.957 278.024 138.473 278.102L137.611 279.768L139.943 278.161C143.704 278.445 147.505 279.513 150.903 281.237C149.826 281.687 148.758 282.138 147.7 282.628C149.209 282.373 150.737 282.167 152.285 281.981C156.732 284.548 160.317 288.289 162.266 292.54C159.69 292.922 157.104 292.991 154.528 292.815C153.705 292.031 152.882 291.218 152.02 290.454C152.5 291.199 152.951 291.972 153.401 292.727C150.032 292.403 146.701 291.669 143.489 290.581C142.489 289.504 141.461 288.417 140.393 287.369C140.854 288.24 141.304 289.083 141.735 289.955C136.642 287.986 131.862 285.135 127.924 281.315C126.327 284.998 124.799 288.701 123.36 292.443C127.023 291.492 131.078 291.473 135.084 292.354L133.782 294C134.742 293.579 135.721 293.158 136.71 292.746C140.834 293.902 144.811 295.998 148.151 298.77C146.839 298.995 145.565 299.221 144.282 299.495C146.006 299.593 147.74 299.74 149.493 299.946C153.773 303.903 156.692 309.016 157.584 314.188C154.684 313.864 151.863 313.218 149.131 312.346C148.455 311.279 147.779 310.181 147.044 309.124C147.367 310.064 147.651 311.014 147.936 311.954C144.38 310.73 140.971 309.124 137.768 307.194C136.945 305.783 136.083 304.363 135.163 302.972C135.466 304.03 135.76 305.049 136.025 306.107C131.01 302.835 126.455 298.78 122.84 293.853C120.979 298.77 119.265 303.727 117.688 308.732C120.352 308.712 123.056 309.153 125.671 309.995L124.545 311.151L126.827 310.387C129.756 311.465 132.538 313.032 135.006 314.971L132.126 315.637L136.005 315.784C139.208 318.537 141.784 321.936 143.263 325.707C141.03 325.903 138.758 325.746 136.505 325.295L134.565 322.935L135.515 325.08C132.577 324.375 129.707 323.16 127.072 321.544L125.025 318.125L125.661 320.623C122.018 318.096 118.952 314.785 116.973 311.014C114.593 318.791 112.526 326.647 110.841 334.581C110.743 335.042 110.332 335.355 109.881 335.355C109.813 335.355 109.744 335.355 109.676 335.335C109.147 335.218 108.804 334.699 108.922 334.17L108.931 334.199Z" fill="#57A0CF"/>
<path d="M137.675 422.62H53.9948L23.9336 325.619H167.736L137.675 422.62Z" fill="#57A0CF"/>
<path d="M48.106 325.619H23.9219L53.9831 422.62H137.663L142.423 407.271H95.6614C82.4282 407.271 70.7426 398.661 66.8245 386.016L48.106 325.609V325.619Z" fill="#4883B2"/>
<path d="M397.445 272.676C393.36 271.285 389.775 268.729 386.484 265.937C374.828 256.054 366.12 242.732 361.761 228.089C360.703 224.533 359.89 220.85 360.145 217.157C360.399 213.464 361.839 209.723 364.66 207.323C368.941 203.679 375.543 203.895 380.538 206.471C385.534 209.047 389.246 213.543 392.567 218.078C397.944 225.434 402.685 233.251 406.73 241.42C409.042 246.092 411.148 250.931 412.167 256.054C413.009 260.275 413.92 267.955 410.746 271.559C407.818 274.88 401.088 273.93 397.464 272.696L397.445 272.676Z" fill="#457F97"/>
<path d="M430.679 249.922C428.426 247.669 427.652 244.319 427.456 241.136C426.937 232.506 429.954 223.916 434.714 216.697C439.475 209.478 445.901 203.503 452.669 198.125C456.205 195.314 459.937 192.601 464.266 191.318C468.596 190.034 473.65 190.407 477.098 193.316C480.027 195.794 481.398 199.761 481.408 203.601C481.408 207.44 480.203 211.172 478.704 214.708C471.956 230.625 458.86 243.682 442.903 250.274C438.819 251.959 434.352 253.605 430.669 249.932L430.679 249.922Z" fill="#457F97"/>
<path d="M433.208 287.711C443.307 272.999 457.647 261.235 474.064 254.212C479.059 252.077 484.946 250.412 489.765 252.919C494.036 255.143 496.24 260.246 496.103 265.065C495.966 269.875 493.85 274.419 491.274 278.494C484.868 288.652 475.2 296.586 464.229 301.356C458.705 303.766 452.828 305.382 446.833 306.087C442.768 306.567 435.726 307.762 432.101 305.186C426.166 300.964 430.084 292.276 433.218 287.711H433.208Z" fill="#457F97"/>
<path d="M417.827 332.72C417.338 332.72 416.917 332.347 416.858 331.848C411.97 289.298 426.428 245.141 455.529 213.709C455.891 213.307 456.518 213.288 456.91 213.66C457.312 214.032 457.331 214.649 456.959 215.041C428.25 246.052 413.978 289.641 418.797 331.623C418.856 332.161 418.474 332.641 417.935 332.71C417.896 332.71 417.857 332.71 417.818 332.71L417.827 332.72Z" fill="#457F97"/>
<path d="M421.353 335.462C420.853 335.462 420.432 335.09 420.383 334.581C416.553 297.692 403.369 262.077 382.231 231.595C381.927 231.154 382.035 230.537 382.476 230.233C382.917 229.93 383.534 230.037 383.837 230.478C405.161 261.235 418.473 297.163 422.332 334.375C422.391 334.914 421.999 335.394 421.46 335.453C421.421 335.453 421.392 335.453 421.362 335.453L421.353 335.462Z" fill="#457F97"/>
<path d="M408.453 332.172C408.277 332.172 408.1 332.123 407.934 332.025C407.473 331.741 407.336 331.133 407.62 330.673C421.578 308.154 441.149 289.337 464.187 276.261C464.657 275.996 465.255 276.163 465.519 276.633C465.784 277.103 465.617 277.701 465.147 277.965C442.383 290.885 423.067 309.466 409.276 331.711C409.09 332.005 408.766 332.172 408.443 332.172H408.453Z" fill="#457F97"/>
<path d="M410.454 188.957C411.169 175.675 415.616 162.618 423.158 151.657C425.95 147.592 429.26 143.733 433.541 141.284C437.821 138.835 443.238 137.973 447.744 139.991C452.661 142.185 455.678 147.416 456.638 152.705C457.598 158.004 456.834 163.441 456.07 168.769C454.346 180.739 452.553 192.914 447.44 203.875C443.385 212.563 436.587 221.369 427.625 225.385C416.909 230.185 413.941 216.775 412.168 208.939C410.689 202.396 410.101 195.657 410.463 188.957H410.454Z" fill="#87D38C"/>
<path d="M439.082 241.44C444.803 230.577 453.569 221.34 464.109 215.042C467.851 212.808 471.906 210.908 476.235 210.409C480.565 209.909 485.237 210.967 488.381 213.994C491.731 217.216 492.887 222.241 492.309 226.855C491.721 231.468 489.606 235.739 487.176 239.706C480.222 251.058 470.378 260.56 458.937 267.338C453.099 270.796 446.801 273.617 440.268 275.478C432.422 277.711 430.962 273.519 431.658 266.417C432.5 257.719 435.027 249.178 439.102 241.449L439.082 241.44Z" fill="#87D38C"/>
<path d="M516.684 244.211C522.992 243.888 530.201 245.092 533.679 250.362C536.49 254.613 535.912 260.481 533.326 264.879C530.75 269.277 526.489 272.44 522.071 274.987C514.627 279.287 506.36 282.128 497.868 283.44C490.453 284.586 479.424 285.811 472.391 282.529C458.335 275.967 486.133 254.721 491.991 251.459C499.543 247.247 508.035 244.661 516.684 244.211Z" fill="#87D38C"/>
<path d="M471.208 291.247C479.534 287.025 489.447 286.467 498.507 288.72C500.995 289.337 503.503 290.199 505.462 291.864C507.421 293.529 508.733 296.144 508.243 298.662C507.626 301.894 504.453 303.902 501.495 305.352C491.925 310.024 481.444 312.796 470.826 313.531C467.074 313.785 460.855 314.843 457.701 312.111C454.37 309.231 457.495 304.539 459.385 301.708C462.334 297.29 466.457 293.666 471.198 291.266L471.208 291.247Z" fill="#87D38C"/>
<path d="M376.101 213.161C369.45 203.307 366.522 191.474 363.71 179.926C362.682 175.685 361.644 171.306 362.29 166.996C362.946 162.677 365.709 158.377 369.93 157.28C373.995 156.222 378.227 158.308 381.547 160.894C387.718 165.703 392.244 172.345 395.574 179.426C398.894 186.508 401.098 194.051 403.273 201.554C405.33 208.655 409.336 220.341 405.32 227.472C401.902 233.545 389.54 226.1 385.808 223.348C382.017 220.556 378.726 217.069 376.091 213.161H376.101Z" fill="#87D38C"/>
<path d="M382.212 240.881C379.646 237.845 376.198 234.71 372.27 235.317C369.331 235.768 367.049 238.324 366.119 241.145C365.188 243.966 365.374 247.032 365.746 249.99C368.048 268.699 377.109 286.517 390.881 299.387C393.457 301.797 400.088 307.116 403.507 303.237C406.171 300.22 403.938 291.561 403.399 287.947C401.734 276.8 398.07 265.947 392.644 256.063C389.686 250.676 386.199 245.573 382.222 240.881H382.212Z" fill="#87D38C"/>
<path d="M355.424 271.961C352.466 270.874 349.331 270.051 346.197 270.384C343.062 270.717 339.938 272.412 338.576 275.252C336.754 279.072 338.537 283.617 340.79 287.193C348.117 298.829 360.87 306.695 374.426 308.624C379.598 309.359 387.963 308.987 386.092 301.435C384.574 295.283 379.187 288.965 374.848 284.567C369.392 279.033 362.741 274.645 355.434 271.971L355.424 271.961Z" fill="#87D38C"/>
<path d="M465.708 239.774L466.404 239.108C466.796 238.736 466.815 238.119 466.443 237.727C466.071 237.335 465.444 237.325 465.062 237.688L464.366 238.354C450.82 251.244 428.624 272.362 417.83 302.668C417.575 296.772 417.418 291.061 417.359 285.498C417.359 285.458 417.379 285.429 417.379 285.39C417.379 285.223 417.36 285.057 417.35 284.89C416.821 235.758 423.609 198.722 439.555 158.445C439.751 157.945 439.506 157.377 439.007 157.172C438.507 156.976 437.939 157.221 437.733 157.72C423.697 193.169 416.703 226.09 415.528 266.828C410.679 235.719 397.113 205.491 376.984 181.797C376.631 181.385 376.014 181.336 375.603 181.689C375.191 182.041 375.142 182.658 375.485 183.07C399.199 210.996 413.716 248.09 415.371 284.92C415.518 298.368 416.204 312.708 417.408 328.273C417.448 328.782 417.879 329.174 418.388 329.174C418.417 329.174 418.437 329.174 418.466 329.174C419.005 329.135 419.407 328.665 419.368 328.126C418.839 321.23 418.408 314.569 418.075 308.124C427.968 275.683 451.593 253.213 465.708 239.784V239.774Z" fill="#457F97"/>
<path d="M384.938 264.791C384.654 264.33 384.046 264.193 383.586 264.477C383.126 264.761 382.989 265.369 383.273 265.829C396.721 287.378 406.536 309.613 410.905 328.42C411.012 328.871 411.414 329.174 411.855 329.174C411.933 329.174 412.002 329.174 412.08 329.145C412.609 329.027 412.932 328.498 412.815 327.969C408.397 308.957 398.504 286.516 384.938 264.781V264.791Z" fill="#457F97"/>
<path d="M354.888 284.518C354.378 284.332 353.82 284.597 353.634 285.106C353.448 285.615 353.712 286.174 354.222 286.36C374.703 293.843 392.266 310.181 401.189 330.085C401.356 330.448 401.708 330.663 402.081 330.663C402.218 330.663 402.355 330.634 402.482 330.575C402.972 330.35 403.197 329.772 402.972 329.282C393.706 308.604 376.182 292.286 354.888 284.518Z" fill="#457F97"/>
<path d="M516.136 259.208C495.41 262.852 476.632 270.668 461.822 281.815C445.2 294.323 433.23 311.308 428.127 329.645C427.98 330.164 428.284 330.702 428.812 330.849C428.901 330.869 428.989 330.889 429.077 330.889C429.508 330.889 429.9 330.605 430.017 330.174C435.003 312.258 446.718 295.646 462.997 283.392C477.563 272.431 496.046 264.742 516.469 261.147C516.998 261.049 517.36 260.55 517.262 260.011C517.165 259.482 516.655 259.13 516.126 259.218L516.136 259.208Z" fill="#457F97"/>
<path d="M492.48 295.057C481.676 295.528 470.872 299.25 462.086 305.548C453.3 311.846 446.286 320.867 442.368 330.947C442.172 331.446 442.417 332.014 442.926 332.21C443.044 332.259 443.162 332.279 443.279 332.279C443.671 332.279 444.043 332.044 444.19 331.652C447.981 321.916 454.739 313.217 463.222 307.135C471.714 301.052 482.136 297.457 492.568 297.007C493.107 296.987 493.528 296.527 493.509 295.988C493.489 295.449 493.029 295.028 492.49 295.048L492.48 295.057Z" fill="#457F97"/>
<path d="M474.578 322.729H374.668V422.64H474.578V322.729Z" fill="#E4E4E0"/>
<path d="M474.588 322.729H438.953V422.64H474.588V322.729Z" fill="#D4CFBE"/>
<path d="M438.944 344.279H374.668V348.197H438.944V344.279Z" fill="#D4CFBE"/>
<path d="M474.588 344.279H438.953V348.197H474.588V344.279Z" fill="#A59B95"/>
<path d="M308.924 132.694C308.082 130.549 306.387 128.659 304.183 127.993C302.097 127.356 299.775 127.875 297.895 128.982C296.014 130.089 294.506 131.734 293.164 133.458C287.297 140.971 284.054 150.267 282.879 159.768C286.484 164.323 289.393 169.406 291.479 174.823C294.31 169.024 298.257 163.843 301.783 158.436C305.555 152.667 308.914 146.378 309.61 139.521C309.845 137.229 309.757 134.849 308.914 132.714L308.924 132.694Z" fill="#52969E"/>
<path d="M282.428 164.949C281.909 176.204 283.975 187.439 286.806 198.351C287.551 197.812 288.618 196.813 289.128 196.049C286.728 189.584 288.06 182.257 290.901 175.979C291.077 175.587 291.283 175.205 291.469 174.813C289.382 169.396 286.473 164.303 282.869 159.758C282.653 161.482 282.496 163.215 282.418 164.949H282.428Z" fill="#457F97"/>
<path d="M287.785 198.488C285.953 189.271 284.072 179.946 279.998 171.483C275.923 163.02 269.321 155.37 260.544 152.02C257.126 150.717 253.032 150.169 249.985 152.196C247.047 154.155 245.911 158.171 246.733 161.6C247.556 165.028 250.044 167.888 252.973 169.857C255.902 171.835 259.271 173.04 262.611 174.177C265.951 175.313 269.34 176.429 272.367 178.251C279.047 182.277 283.455 189.819 283.7 197.606C285.091 197.704 286.394 198.37 287.785 198.478V198.488Z" fill="#52969E"/>
<path d="M290.615 198.429C290.243 193.306 293.426 188.438 297.628 185.48C301.831 182.532 306.924 181.17 311.939 180.063C316.954 178.956 322.077 178.016 326.681 175.744C330.325 173.951 333.694 171.15 335.046 167.32C336.398 163.49 335.124 158.592 331.51 156.751C329.325 155.644 326.72 155.771 324.32 156.271C315.994 158.005 309.069 163.676 303.075 169.71C299.098 173.706 295.346 177.977 292.466 182.816C289.587 187.664 287.608 193.13 287.402 198.762C288.323 198.723 289.694 198.468 290.615 198.429Z" fill="#52969E"/>
<path d="M315.482 196.244H259.836V209.634H315.482V196.244Z" fill="white"/>
<path d="M301.018 249.853H274.297L262.582 209.634H312.733L301.018 249.853Z" fill="white"/>
<path d="M301.438 196.244V209.634H312.731H315.474V196.244H301.438Z" fill="#E4E4E0"/>
<path d="M293.367 249.853H301.017L312.732 209.634H301.438L293.367 249.853Z" fill="#E4E4E0"/>
<path d="M262.578 209.634L300.456 214.532L301.435 209.634H262.578Z" fill="#D4CFBE"/>
<path d="M312.73 209.634H301.437L300.457 214.532L310.908 215.884L312.73 209.634Z" fill="#A59B95"/>
<path d="M36.2387 425.481H52.4888C53.2822 425.481 53.9189 426.118 53.9189 426.911V426.931C53.9189 427.724 53.2822 428.361 52.4888 428.361H47.9537C47.1602 428.361 46.5236 428.997 46.5236 429.791V429.81C46.5236 430.604 47.1602 431.24 47.9537 431.24H150.949C151.743 431.24 152.38 431.877 152.38 432.67V432.69C152.38 433.483 151.743 434.12 150.949 434.12H69.3462C68.5528 434.12 67.9161 434.757 67.9161 435.55V435.57C67.9161 436.363 68.5528 437 69.3462 437H402.665C403.458 437 404.095 436.363 404.095 435.57V435.55C404.095 434.757 403.458 434.12 402.665 434.12H360.467C359.674 434.12 359.037 433.483 359.037 432.69V432.67C359.037 431.877 359.674 431.24 360.467 431.24H507.668C508.462 431.24 509.099 430.604 509.099 429.81V429.791C509.099 428.997 508.462 428.361 507.668 428.361H503.133C502.34 428.361 501.703 427.724 501.703 426.931V426.911C501.703 426.118 502.34 425.481 503.133 425.481H532.137C532.93 425.481 533.567 424.844 533.567 424.051V424.031C533.567 423.238 532.93 422.601 532.137 422.601H36.2387C35.4453 422.601 34.8086 423.238 34.8086 424.031V424.051C34.8086 424.844 35.4453 425.481 36.2387 425.481Z" fill="#386693"/>
<path d="M523.473 428.351H513.786C512.996 428.351 512.355 428.991 512.355 429.781V429.8C512.355 430.59 512.996 431.23 513.786 431.23H523.473C524.263 431.23 524.903 430.59 524.903 429.8V429.781C524.903 428.991 524.263 428.351 523.473 428.351Z" fill="#386693"/>
<path d="M537.043 424.051C537.043 424.845 537.68 425.481 538.473 425.481H541.421C542.215 425.481 542.851 424.845 542.851 424.051C542.851 423.258 542.215 422.621 541.421 422.621H538.473C537.68 422.621 537.043 423.258 537.043 424.051Z" fill="#386693"/>
<path d="M29.9959 422.601H23.0512C22.2614 422.601 21.6211 423.241 21.6211 424.031V424.051C21.6211 424.841 22.2614 425.481 23.0512 425.481H29.9959C30.7857 425.481 31.426 424.841 31.426 424.051V424.031C31.426 423.241 30.7857 422.601 29.9959 422.601Z" fill="#386693"/>
<path d="M62.2479 434.11H53.3637C52.5739 434.11 51.9336 434.751 51.9336 435.54V435.56C51.9336 436.35 52.5739 436.99 53.3637 436.99H62.2479C63.0377 436.99 63.678 436.35 63.678 435.56V435.54C63.678 434.751 63.0377 434.11 62.2479 434.11Z" fill="#386693"/>
<path d="M455.343 436.98H410.873C410.08 436.98 409.434 436.334 409.434 435.54C409.434 434.747 410.08 434.101 410.873 434.101H455.343C456.137 434.101 456.783 434.747 456.783 435.54C456.783 436.334 456.137 436.98 455.343 436.98Z" fill="#386693"/>
<path d="M483.372 436.98H464.987C464.193 436.98 463.547 436.334 463.547 435.54C463.547 434.747 464.193 434.101 464.987 434.101H483.372C484.166 434.101 484.812 434.747 484.812 435.54C484.812 436.334 484.166 436.98 483.372 436.98Z" fill="#386693"/>
<path d="M200.001 190.35C209.943 192.789 217.965 200.115 221.286 209.803L236.273 253.43L260.026 261.022L256.842 286.489L233.422 282.003C222.491 279.907 213.293 272.541 208.866 262.334L195.055 230.51L200.001 190.35Z" fill="#CC6164"/>
<path d="M270.28 289.271L273.493 263.539C273.601 262.657 273.023 261.844 272.151 261.668L262.042 259.572C261.073 259.376 260.142 260.042 260.015 261.022L256.831 286.489L256.802 286.753C256.694 287.635 257.272 288.448 258.144 288.624L268.252 290.72C269.222 290.916 270.153 290.25 270.28 289.271Z" fill="#A34262"/>
<path d="M273.278 265.312L313.164 276.821C316.102 273.324 320.353 270.728 324.781 269.631C329.208 268.534 333.988 268.887 338.22 270.611C339.131 270.983 340.032 271.434 340.678 272.168C341.325 272.903 341.658 273.99 341.266 274.891C340.786 276.008 339.454 276.458 338.259 276.684C334.909 277.32 331.422 277.242 328.111 276.458C326.887 283.188 326.299 290.083 325.075 296.813C319.893 296.646 314.623 294.912 310.549 291.709L270.438 288.066L273.278 265.321V265.312Z" fill="#EBA58E"/>
<path d="M198.669 201.144L195.055 230.51L199.041 239.698C204.194 227.532 204.096 213.192 198.669 201.144Z" fill="#A34262"/>
<path d="M353.451 206.227C336.662 214.847 325.594 230.117 320.696 238.434C319.374 240.686 320.06 243.556 322.234 245.006C328.67 249.287 336.535 251.774 339.464 252.656L353.451 206.227Z" fill="#C7D2D7"/>
<path d="M353.452 206.227C362.689 222.683 363.483 241.529 362.963 251.167C362.826 253.773 360.662 255.791 358.046 255.791C350.328 255.8 342.384 253.528 339.465 252.646L353.452 206.217V206.227Z" fill="#99A3B0"/>
<path d="M343.068 230.353C338.924 233.84 333.322 240.02 335.437 246.701C336.505 250.06 336.339 253.684 335.32 257.054L330.941 271.58L336.103 273.138L340.482 258.611C341.501 255.242 343.362 252.127 346.104 249.913C351.56 245.515 350.306 237.268 348.778 232.076C348.053 229.628 345.027 228.717 343.068 230.353Z" fill="#797C99"/>
<path d="M334.845 268.201C332.543 267.505 330.466 267.623 330.211 268.465L311.875 329.332L320.22 331.85L338.557 270.983C338.812 270.14 337.146 268.906 334.845 268.211V268.201Z" fill="#A64F5A"/>
<path d="M320.219 331.84C319.964 332.682 317.897 332.79 315.586 332.104C313.284 331.409 311.619 330.165 311.873 329.332C312.128 328.49 314.195 328.382 316.506 329.068C318.808 329.763 320.473 331.007 320.219 331.84Z" fill="#8C404C"/>
<path d="M343.233 283.589C342.919 283.227 342.567 282.913 342.185 282.629C342.537 282.443 342.87 282.218 343.164 281.944C344.291 280.925 344.878 279.25 344.349 277.83C343.918 276.674 342.831 275.861 341.665 275.469C340.5 275.077 339.236 275.048 338.012 275.048C336.405 275.048 334.799 275.097 333.193 275.195C331.763 275.283 330.342 275.41 328.922 275.567C328.08 275.665 326.924 275.636 326.179 276.116C324.622 277.115 325.063 279.044 326.15 280.19C325.807 280.357 325.484 280.582 325.151 280.896C324.348 281.679 324.064 282.904 324.455 283.961C324.7 284.608 325.151 285.127 325.69 285.568C325.092 285.93 324.534 286.449 324.181 286.9C323.554 287.693 323.211 288.771 323.495 289.741C323.701 290.465 324.211 291.063 324.73 291.611C324.867 291.758 325.004 291.896 325.151 292.033C324.426 292.042 323.868 292.513 323.633 293.825C323.388 295.196 323.819 296.499 324.426 297.714C325.063 298.86 325.944 299.83 326.875 300.75C328.04 301.906 329.304 303.013 330.822 303.65C332.34 304.286 334.153 304.394 335.583 303.581C337.013 302.778 337.885 300.927 337.287 299.399C337.238 299.281 337.179 299.163 337.121 299.056C337.14 299.056 337.15 299.056 337.169 299.056C338.443 299.193 339.795 298.977 340.852 298.243C341.959 297.479 342.655 296.186 342.763 294.844C342.86 293.502 342.38 292.15 341.499 291.131C341.499 291.131 341.479 291.112 341.47 291.102C341.714 291.053 341.959 290.994 342.194 290.896C343.527 290.358 344.447 288.986 344.594 287.556C344.741 286.126 344.193 284.667 343.252 283.57L343.233 283.589Z" fill="#F2C9AD"/>
<path d="M338.699 281.826C335.407 280.886 329.981 280.23 326.562 280.367C329.854 281.307 335.28 281.963 338.699 281.826Z" fill="#EBA58E"/>
<path d="M339.287 290.603C337.485 289.839 335.124 288.986 332.783 288.105C330.433 287.223 328.092 286.322 326.23 285.705C327.798 286.871 330.06 288.075 332.45 288.977C334.84 289.878 337.338 290.446 339.287 290.612V290.603Z" fill="#EBA58E"/>
<path d="M336.222 299.213C334.605 298.204 332.725 297.038 330.834 295.853C328.964 294.638 327.112 293.433 325.516 292.395C326.652 293.766 328.415 295.324 330.384 296.568C332.353 297.822 334.498 298.762 336.231 299.213H336.222Z" fill="#EBA58E"/>
<path d="M148.576 180.534C133.726 182.003 120.767 191.221 114.499 204.758L81.9787 274.998C79.7846 279.739 79.2753 285.097 80.5388 290.161H165.756L190.234 241.822C197.982 226.532 201.411 209.42 200.147 192.318L200 190.339L181.203 185.726L148.576 180.524V180.534Z" fill="#CC6164"/>
<path d="M139.375 225.023L178.213 265.311L174.363 273.137L172.091 271.746C159.142 263.832 149.239 251.784 143.998 237.551L139.385 225.023H139.375Z" fill="#A34262"/>
<path d="M163.562 281.453C158.841 281.424 153.483 281.355 147.831 280.983C142.179 280.621 136.234 279.965 130.337 278.975C124.44 277.966 118.612 276.624 113.157 275.087C107.701 273.568 102.627 271.864 98.1602 270.336C101.921 273.186 106.653 275.978 112.04 278.26C117.417 280.552 123.432 282.345 129.583 283.393C135.734 284.431 142.003 284.735 147.841 284.343C153.679 283.961 159.076 282.893 163.562 281.444V281.453Z" fill="#A34262"/>
<path d="M149.283 277.888C145.825 276.625 141.927 275.165 137.891 273.402C133.856 271.639 129.683 269.572 125.647 267.251C121.622 264.929 117.733 262.363 114.177 259.747C110.622 257.142 107.399 254.507 104.578 252.146C106.518 255.261 109.201 258.601 112.502 261.756C115.794 264.91 119.702 267.848 123.914 270.277C128.126 272.697 132.631 274.597 137.01 275.86C141.388 277.134 145.62 277.771 149.293 277.888H149.283Z" fill="#A34262"/>
<path d="M80.5282 290.161L80.1854 304.883C79.9699 314.404 83.3982 323.641 89.7846 330.703L142.149 388.602L134.97 386.643L125.586 416.273L142.806 423.835C150.975 427.42 160.31 427.165 168.273 423.13C182.182 416.087 188.314 399.514 182.349 385.105L165.021 343.3L230.403 314.649L229.179 356.523H262.238L270.407 313.258C272.356 302.924 269.222 292.286 261.973 284.666C254.382 276.683 243.167 273.235 232.402 275.596L165.756 290.171H80.538L80.5282 290.161Z" fill="#495375"/>
<path d="M165.742 290.161L80.3672 296.802L80.5239 290.161H165.742Z" fill="#797C99"/>
<path d="M165.007 343.299L156.25 322.171L175.409 302.16L165.83 324.444L165.007 343.299Z" fill="#373F56"/>
<path d="M230.39 314.649L231.761 292.081L228.441 296.88C224.483 302.581 223.827 309.947 226.717 316.255L230.39 314.649Z" fill="#373F56"/>
<path d="M142.155 388.602L155.584 402.687L148.522 400.131C143.428 398.289 140.039 393.451 140.039 388.034L142.165 388.612L142.155 388.602Z" fill="#373F56"/>
<path d="M63.2766 403.912C69.5651 377.788 77.2445 370.168 80.6238 368.013C79.6737 367.934 78.6942 367.875 77.6657 367.875C77.6657 367.875 67.8706 369.345 59.5447 403.922C55.1173 422.317 59.055 430.065 66.7735 428.351C61.6409 426.969 59.6231 419.045 63.2669 403.922L63.2766 403.912Z" fill="#ECA85E"/>
<path d="M95.4632 372.773C95.4632 372.773 89.5861 368.787 80.6236 368.013C77.2443 370.177 69.5649 377.788 63.2764 403.912C59.6326 419.045 61.6504 426.96 66.7831 428.341C73.5809 426.832 83.3075 418.017 92.8577 402.678L123.575 422.611L135.427 385.193L95.4632 372.754V372.773Z" fill="#F4D071"/>
<path d="M123.574 422.621L125.582 416.273L129.677 418.076L123.574 422.621Z" fill="#ECA85E"/>
<path d="M286.682 418.154H219.733C219.684 419.603 219.713 421.092 219.87 422.62H287.701L287.642 422.189C287.466 420.798 287.133 419.447 286.682 418.154Z" fill="#ECA85E"/>
<path d="M272.871 405.253L256.592 400.846L265.652 356.523H223.778L224.934 399.866C224.934 399.866 220.085 407.79 219.723 418.154H286.672C284.517 411.914 279.404 407.026 272.861 405.253H272.871Z" fill="#F4D071"/>
<path d="M157.565 392.873C157.428 392.873 157.291 392.814 157.202 392.706L108.276 337.246C103.76 332.123 99.0879 326.834 95.5224 320.839C91.4771 314.032 89.4984 307.351 89.6356 300.975C89.6356 300.701 89.8413 300.495 90.1351 300.495C90.4094 300.495 90.6151 300.73 90.6151 300.994C90.478 307.185 92.4174 313.699 96.3648 320.34C99.8813 326.256 104.524 331.516 109.01 336.6L157.937 392.06C158.113 392.265 158.094 392.569 157.898 392.755C157.81 392.834 157.692 392.873 157.575 392.873H157.565Z" fill="#373F56"/>
<path d="M171.512 316.814C171.326 316.814 171.139 316.706 171.061 316.52C170.953 316.275 171.061 315.981 171.316 315.873C188.496 308.547 206.108 301.523 223.641 295.019C223.896 294.921 224.18 295.059 224.268 295.303C224.366 295.558 224.229 295.842 223.984 295.93C206.461 302.434 188.869 309.448 171.708 316.774C171.649 316.804 171.58 316.814 171.512 316.814Z" fill="#373F56"/>
<path d="M154.086 173.306H164.439L155.839 180.29L154.086 173.306Z" fill="#A34262"/>
<path d="M166.758 161.189C162.889 166.91 159.01 172.62 155.141 178.341C157.256 185.579 165.739 195.404 172.674 195.404L174.065 208.01L175.044 195.649L185.143 179.369L166.758 161.209V161.189Z" fill="#F2C9AD"/>
<path d="M167.532 161.963C167.121 165.989 167.072 170.035 168.218 173.884C169.981 179.81 174.692 184.737 180.452 186.921L185.144 179.36L167.532 161.963Z" fill="#DE7274"/>
<path d="M154.087 173.306C158.201 182.131 164.685 189.84 172.678 195.404C169.553 199.263 166.507 203.534 163.383 207.393C158.465 198.568 153.48 189.36 148.562 180.535C150.002 178.782 152.314 175.931 154.087 173.306Z" fill="#E06E6E"/>
<path d="M175.047 195.639L185.988 204.053L181.198 185.726L175.047 195.639Z" fill="#E06E6E"/>
<path d="M162.138 148.259C164.381 148.955 166.076 150.884 167.016 153.03C167.957 155.185 168.231 157.555 168.388 159.896C170.621 155.743 171.454 150.698 170.582 146.065C177.272 141.344 181.268 132.989 180.161 124.878C191.338 121.832 204.59 123.272 215.933 125.613C215.101 118.658 209.606 110.94 203.327 107.815C194.727 103.535 184.363 102.957 175.342 106.258C166.321 109.559 158.769 116.69 154.968 125.505C151.403 133.772 151.168 143.411 154.263 151.864C154.292 151.815 154.302 151.756 154.322 151.697C155.703 148.925 159.18 147.348 162.138 148.269V148.259Z" fill="#6A3649"/>
<path d="M215.934 125.603C204.591 123.272 191.338 121.832 180.162 124.869C181.269 132.979 177.272 141.334 170.582 146.056C171.464 150.689 170.621 155.733 168.388 159.886C168.222 157.545 167.947 155.175 167.017 153.02C166.076 150.865 164.382 148.945 162.139 148.25C159.181 147.329 155.703 148.906 154.322 151.678C154.293 151.727 154.283 151.786 154.264 151.845C152.99 154.597 153.754 158.123 155.997 160.17C158.28 162.257 162.09 163.246 164.901 161.943C166.302 170.965 173.521 178.801 182.405 180.926C191.279 183.052 201.27 179.34 206.609 171.925C209.792 167.507 211.31 162.12 212.476 156.801C214.925 145.654 216.09 137.005 215.934 125.594V125.603Z" fill="#F2C9AD"/>
<path d="M170.582 146.065C177.272 141.344 181.269 132.989 180.162 124.878C191.338 121.832 204.591 123.272 215.934 125.613C215.101 118.658 209.606 110.94 203.327 107.815C194.727 103.535 184.364 102.957 175.343 106.258C166.321 109.559 158.769 116.69 154.969 125.505C152.118 132.107 151.403 139.591 152.804 146.643L170.729 147.123C170.68 146.771 170.641 146.418 170.582 146.065Z" fill="#472948"/>
<path d="M180.162 124.879C181.269 132.989 177.272 141.344 170.582 146.065C170.651 146.418 170.69 146.771 170.729 147.123L214.161 148.299C215.444 140.845 216.051 133.968 215.933 125.613C204.591 123.282 191.338 121.842 180.162 124.879Z" fill="#EBA58E"/>
<path d="M156.398 154.293C156.82 153.324 157.838 152.677 158.896 152.579C159.954 152.481 161.012 152.893 161.825 153.578C162.638 154.264 163.206 155.195 163.568 156.194C163.901 157.095 164.048 158.192 163.451 158.946C163.04 159.465 162.334 159.691 161.678 159.612C161.022 159.524 160.424 159.162 159.983 158.672C158.896 157.477 158.788 155.508 159.719 154.195C158.788 153.627 157.339 153.755 156.398 154.303V154.293Z" fill="#EBA58E"/>
<path d="M193.964 144.831C189.703 144.831 185.433 144.831 181.172 144.831C181.965 143.264 183.503 141.677 185.07 140.874C186.638 140.071 188.548 139.894 190.183 140.56C191.819 141.226 193.798 143.087 193.974 144.841L193.964 144.831Z" fill="#6A3649"/>
<path d="M191.836 151.433C191.836 152.608 190.984 153.568 189.926 153.568C188.868 153.568 188.016 152.608 188.016 151.433C188.016 150.257 188.868 149.297 189.926 149.297C190.984 149.297 191.836 150.257 191.836 151.433Z" fill="#472948"/>
<path d="M204.297 144.831C207.529 144.831 210.762 144.831 213.994 144.831C213.397 143.264 212.231 141.677 211.046 140.874C209.861 140.071 208.411 139.894 207.177 140.56C205.942 141.226 204.434 143.087 204.307 144.841L204.297 144.831Z" fill="#6A3649"/>
<path d="M206.422 151.433C206.422 152.608 207.274 153.568 208.332 153.568C209.39 153.568 210.242 152.608 210.242 151.433C210.242 150.257 209.39 149.297 208.332 149.297C207.274 149.297 206.422 150.257 206.422 151.433Z" fill="#472948"/>
<path d="M203.364 159.622H196.625C197.134 160.964 198.349 162.031 199.789 162.041C201.229 162.051 202.835 160.944 203.374 159.622H203.364Z" fill="#EBA58E"/>
<path d="M202.897 164.96C196.981 164.794 191.065 164.627 185.148 164.451C185.697 167.086 187.47 169.613 189.86 170.847C192.25 172.081 195.188 172.179 197.657 171.111C200.125 170.044 202.192 167.546 202.907 164.96H202.897Z" fill="white"/>
<path d="M116.719 139.473L259.581 143.323L220.91 126.808L211.937 98.3727C201.133 89.8803 180.416 91.1536 169.867 95.7182L156.389 123.85L116.719 139.463V139.473Z" fill="#BD6C67"/>
<path d="M217.988 117.571L160.736 114.779L156.387 123.859L220.907 126.808L217.988 117.571Z" fill="#8C404C"/>
<path d="M155.141 193.924L206.419 258.817L212.394 256.123L226.714 280.2L216.518 286.253C209.769 290.259 201.149 289.103 195.703 283.452L139.371 225.024L155.141 193.924Z" fill="#CC6164"/>
<path d="M239.161 272.804L224.831 248.727C224.292 247.816 223.107 247.513 222.196 248.061L213.057 253.497C212.146 254.036 211.842 255.221 212.391 256.132L226.721 280.209C227.26 281.12 228.445 281.423 229.356 280.875L238.495 275.439C239.406 274.9 239.709 273.715 239.161 272.804Z" fill="#A34262"/>
<path d="M225.777 250.304L264.311 231.762C263.44 223.074 267.26 213.671 273.93 208.029C274.694 207.382 275.517 206.765 276.467 206.442C277.417 206.119 278.524 206.128 279.367 206.667C280.963 207.696 280.924 210.135 279.984 211.79C279.043 213.435 277.466 214.621 276.301 216.11C275.135 217.608 274.4 219.763 275.419 221.37C276.036 222.339 277.192 222.878 278.338 223.015C279.484 223.142 280.64 222.917 281.766 222.643C288.055 221.125 294 218.255 299.104 214.278C300.093 213.514 301.063 212.691 302.228 212.24C303.394 211.79 304.814 211.77 305.794 212.544C306.754 213.308 307.077 214.66 306.91 215.874C306.744 217.089 306.166 218.196 305.598 219.283C306.235 218.304 308.105 217.608 309.261 217.765C310.417 217.922 311.446 218.784 311.808 219.89C312.19 221.076 311.837 222.359 311.387 223.515C310.466 225.875 309.144 228.089 307.498 230.019C308.105 232.83 307.077 235.984 304.736 237.649C304.442 239.686 303.022 241.694 301.239 242.723C299.456 243.751 297.39 244.182 295.362 244.515C287.379 245.808 279.171 245.72 271.217 244.261L237.874 270.61L225.807 250.334L225.777 250.304Z" fill="#F2C9AD"/>
<path d="M287.447 228.726C290.337 229.098 294.314 228.461 297.732 226.6C301.18 224.788 303.923 221.83 305.216 219.225C303.159 221.291 300.328 223.662 297.076 225.376C293.844 227.119 290.298 228.168 287.438 228.726H287.447Z" fill="#EBA58E"/>
<path d="M289.781 234.966C292.23 235.534 295.639 235.553 298.871 234.73C302.113 233.937 305.111 232.331 307.001 230.675C304.68 231.655 301.682 232.811 298.577 233.575C295.472 234.358 292.289 234.74 289.781 234.966Z" fill="#EBA58E"/>
<path d="M291.453 239.207C293.06 240.049 295.499 240.588 297.918 240.363C300.337 240.167 302.639 239.207 304.079 238.1C302.365 238.698 300.132 239.315 297.84 239.501C295.547 239.706 293.246 239.501 291.453 239.207Z" fill="#EBA58E"/>
<path d="M206.271 259.424L206.036 259.12L154.768 194.228C154.601 194.012 154.641 193.708 154.846 193.542C155.062 193.375 155.365 193.415 155.532 193.62L206.565 258.209L209.219 257.014C209.464 256.897 209.758 257.014 209.866 257.259C209.973 257.504 209.866 257.798 209.621 257.906L206.271 259.414V259.424Z" fill="#A34262"/>
<path d="M205.851 280.464C206.106 277.476 206.106 273.969 206.194 270.463C206.263 266.956 206.439 263.449 206.322 260.452C204.441 262.774 203.128 266.535 203.05 270.384C202.942 274.234 204.088 278.054 205.851 280.464Z" fill="#A34262"/>
<path d="M197.205 272.863C198.596 271.021 200.066 268.778 201.672 266.633C203.259 264.468 204.973 262.411 206.325 260.54C204.082 261.05 201.486 262.783 199.723 265.193C197.93 267.583 197.029 270.571 197.205 272.872V272.863Z" fill="#A34262"/>
<path d="M339.693 368.992H284.047V382.382H339.693V368.992Z" fill="white"/>
<path d="M325.229 422.601H298.508L286.793 382.382H336.944L325.229 422.601Z" fill="white"/>
<path d="M325.645 368.992V382.382H336.938H339.681V368.992H325.645Z" fill="#E4E4E0"/>
<path d="M317.574 422.601H325.224L336.939 382.382H325.645L317.574 422.601Z" fill="#E4E4E0"/>
<path d="M286.789 382.382L324.667 387.279L325.646 382.382H286.789Z" fill="#D4CFBE"/>
<path d="M336.941 382.382H325.647L324.668 387.279L335.119 388.631L336.941 382.382Z" fill="#A59B95"/>
<path d="M287.275 368.992H336.437L317.356 356.444C314.016 354.25 309.687 354.25 306.347 356.444L287.266 368.992H287.275Z" fill="#A64F5A"/>
<path d="M507.689 384.596C508.061 386.447 506.954 388.279 505.142 388.798L504.094 389.101L435.646 408.682C433.775 409.221 431.826 408.182 431.218 406.331C430.611 404.499 431.561 402.511 433.364 401.825L501.577 375.662C503.663 374.859 505.975 376.133 506.416 378.317L507.689 384.605V384.596Z" fill="white"/>
<path d="M442.297 398.388L452.699 381.677C456.098 376.221 462.426 373.332 468.773 374.331L494.485 378.366L442.297 398.388Z" fill="#8C404C"/>
<path d="M508.059 422.641H438.954C441.668 418.478 441.109 412.983 437.612 409.456L436.574 408.408L504.092 389.092L508.49 397.888C509.607 400.112 509.891 402.668 509.303 405.088L507.197 413.786C506.639 416.088 507.354 418.507 509.058 420.143C510.008 421.044 509.362 422.641 508.059 422.641Z" fill="white"/>
<path d="M509.058 420.143C507.344 418.507 506.639 416.088 507.197 413.786L509.303 405.088C509.891 402.668 509.597 400.112 508.49 397.888L504.092 389.092L436.574 408.408L437.612 409.456C438.063 409.907 438.455 410.387 438.808 410.896L500.34 396.605L502.799 400.239C503.828 401.757 504.092 403.667 503.524 405.411L501.3 412.258C500.703 414.109 501.046 416.146 502.221 417.694L505.982 422.641H508.059C509.372 422.641 510.008 421.044 509.058 420.143Z" fill="#E4E4E0"/>
<path d="M346.549 422.601H433.069L399.492 400.522C393.614 396.653 385.994 396.653 380.117 400.522L346.539 422.601H346.549Z" fill="#8C404C"/>
<path d="M315.107 422.601H364.269L345.188 410.053C341.848 407.859 337.519 407.859 334.179 410.053L315.098 422.601H315.107Z" fill="#A64F5A"/>
</svg>
